<svg fill="none" height="40" viewBox="0 0 40 40" width="40" xmlns="http://www.w3.org/2000/svg"><g fill="#66645f"><path d="m34.1 5.09998h-28.2c-1 0-1.9.8-1.9 1.9v18.70002c0 1.1.9 1.9 1.9 1.9h28.3c1.1 0 1.9-.9 1.9-1.9v-18.70002c-.1-1.1-1-1.9-2-1.9zm.6 20.60002c0 .3-.3.5-.5.5h-28.3c-.3 0-.5-.3-.5-.5v-18.70002c0-.3.3-.5.5-.5h28.3c.3 0 .5.3.5.5z"/><path d="m35.3 31.7h-22c-.3-1.1-1.3-2-2.6-2s-2.3.9-2.6 2h-3.4c-.4 0-.7.3-.7.7s.3.7.7.7h3.4c.3 1.2 1.3 2.1 2.6 2.1s2.3-.9 2.6-2.1h22.1c.4 0 .7-.3.7-.7-.1-.4-.4-.7-.8-.7zm-24.6 2.1c-.7 0-1.3-.6-1.3-1.3s.6-1.3 1.3-1.3 1.3.5 1.3 1.2v.1.1c0 .7-.6 1.2-1.3 1.2z"/><path d="m23.1 14.5-4-2.5c-1.4-.9-3.3.1-3.3 1.8v5.1c0 1.7 1.9 2.7 3.3 1.8l4-2.5c.6-.4 1-1.1 1-1.8 0-.8-.4-1.5-1-1.9zm-.7 2.5-4 2.5c-.5.3-1.2-.1-1.2-.7v-5.1c0-.6.7-1 1.2-.7l4 2.5c.2.1.3.4.3.7 0 .4 0 .7-.3.8z"/></g></svg>