<svg enable-background="new 0 0 40 40" viewBox="0 0 40 40" xmlns="http://www.w3.org/2000/svg"><g fill="#66645f"><path d="m27.7 11.2c0-.1 0-.2-.1-.3s-.2-.1-.3-.1c-.2 0-.4.2-.4.4v8.4h-6.4v-8.4c0-.2-.2-.4-.4-.4s-.4.2-.4.4v8.4h-6.4v-8.4c0-.2-.2-.4-.4-.4s-.4.2-.4.4v17.6c0 .2.2.4.4.4s.4-.2.4-.4v-8.4h6.4v8.4c0 .2.2.4.4.4s.4-.2.4-.4v-8.4h6.4v8.4c0 .2.2.4.4.4s.4-.2.4-.4z"/><path d="m20 1c-10.5 0-19 8.5-19 19s8.5 19 19 19 19-8.5 19-19-8.5-19-19-19zm18.1 19c0 10-8.1 18.1-18.1 18.1s-18.1-8.1-18.1-18.1 8.1-18.1 18.1-18.1 18.1 8.1 18.1 18.1z"/><path d="m29.3 20c0 .2.2.4.4.4h4.8c.1 0 .2 0 .3-.1s.1-.1.1-.2v-.1c0-.1 0-.2-.1-.3s-.2-.1-.3-.1h-4.8c-.2 0-.4.2-.4.4z"/><path d="m10.7 20c0-.2-.2-.4-.4-.4h-4.9c-.2 0-.4.2-.4.4s.2.4.4.4h4.8c.3 0 .5-.2.5-.4z"/></g></svg>