<svg enable-background="new 0 0 90 90" viewBox="0 0 90 90" xmlns="http://www.w3.org/2000/svg"><g fill="#6e6c66"><path d="m17.9 51.2c-.3 0-.5-.2-.6-.4l-3.3-10.4h-8.2c-.3 0-.6-.3-.6-.6s.3-.6.6-.6h8.7c.3 0 .5.2.6.4l3 9.4 9.2-18.8c.1-.2.3-.3.5-.3s.4.1.5.4l3.5 8.6h20.4c.3 0 .6.3.6.6s-.3.6-.6.6h-20.7c-.2 0-.4-.1-.5-.4l-3.2-7.8-9.3 18.9c-.2.2-.4.4-.6.4z"/><path d="m58.3 46c-3.6 0-6.5-2.9-6.5-6.5s2.9-6.5 6.5-6.5 6.5 2.9 6.5 6.5-2.9 6.5-6.5 6.5zm0-11.8c-2.9 0-5.3 2.4-5.3 5.3s2.4 5.3 5.3 5.3 5.3-2.4 5.3-5.3-2.3-5.3-5.3-5.3z"/><path d="m58 54c-5.8 0-11.2-3.6-13.4-8.9-.1-.3 0-.6.3-.8.3-.1.6 0 .8.3 2 4.9 7 8.2 12.3 8.2 7.3 0 13.3-6 13.3-13.3s-6-13.3-13.3-13.3c-5.6 0-10.7 3.5-12.6 8.8-.1.3-.4.5-.7.3-.3-.1-.5-.4-.3-.7 2.1-5.7 7.6-9.5 13.7-9.5 8 0 14.4 6.5 14.4 14.4 0 8-6.5 14.5-14.5 14.5z"/><path d="m58 62.5c-10.7 0-19.9-7.3-22.4-17.7-.1-.3.1-.6.4-.7s.6.1.7.4c2.4 9.9 11.1 16.8 21.3 16.8 12 0 21.8-9.8 21.8-21.8s-9.8-21.8-21.8-21.8c-10.3 0-19.4 7.4-21.4 17.5-.1.3-.4.5-.7.5-.3-.1-.5-.4-.5-.7 2.3-10.7 11.7-18.5 22.6-18.5 12.7 0 23 10.3 23 23s-10.3 23-23 23z"/></g></svg>