<svg enable-background="new 0 0 90 90" viewBox="0 0 90 90" xmlns="http://www.w3.org/2000/svg"><g fill="#6e6c66"><path d="m31.9 60.6c-.5 0-.9-.4-.9-.9v-38.9c0-.5.4-.9.9-.9s.9.4.9.9v38.9c0 .3-.1.5-.2.6-.2.2-.4.3-.7.3z"/><path d="m45 65.7c-.5 0-.9-.4-.9-.9v-49c0-.5.4-.9.9-.9s.9.4.9.9v49c0 .4-.4.9-.9.9z"/><path d="m58.1 53.4c-.5 0-.9-.4-.9-.9v-24.6c0-.5.4-.9.9-.9s.9.4.9.9v24.5c0 .6-.4 1-.9 1z"/><path d="m71.3 48.3c-.5 0-.9-.4-.9-.9v-14.4c0-.5.4-.9.9-.9s.9.4.9.9v14.3c0 .6-.4 1-.9 1z"/><path d="m18.7 48.3c-.5 0-.9-.4-.9-.9v-14.4c0-.5.4-.9.9-.9s.9.4.9.9v14.4c0 .2-.1.4-.2.6s-.4.3-.7.3z"/></g></svg>