<svg width="843" height="529" viewBox="0 0 843 529" fill="none" xmlns="http://www.w3.org/2000/svg">
<path d="M406.815 439.109L405.883 439.135L405.886 439.235L406.817 439.21L406.815 439.109Z" fill="#1D1D1B"/>
<path d="M406.811 438.959L405.879 438.985L405.882 439.085L406.813 439.06L406.811 438.959Z" fill="#1D1D1B"/>
<path d="M406.807 438.809L405.875 438.835L405.878 438.935L406.81 438.909L406.807 438.809Z" fill="#1D1D1B"/>
<path d="M406.785 438.689L405.853 438.715L405.856 438.816L406.788 438.789L406.785 438.689Z" fill="#1D1D1B"/>
<path d="M406.798 438.51L405.866 438.536L405.869 438.636L406.801 438.611L406.798 438.51Z" fill="#1D1D1B"/>
<path d="M406.777 438.39L405.845 438.416L405.848 438.516L406.779 438.49L406.777 438.39Z" fill="#1D1D1B"/>
<path d="M406.79 438.21L405.858 438.235L405.861 438.336L406.793 438.31L406.79 438.21Z" fill="#1D1D1B"/>
<path d="M407.746 391.116L406.816 391.052L406.809 391.152L407.739 391.217L407.746 391.116Z" fill="#1D1D1B"/>
<path d="M407.762 390.925L406.833 390.861L406.826 390.962L407.756 391.026L407.762 390.925Z" fill="#1D1D1B"/>
<path d="M407.773 390.776L406.843 390.712L406.836 390.812L407.766 390.876L407.773 390.776Z" fill="#1D1D1B"/>
<path d="M407.766 390.642L406.836 390.578L406.829 390.679L407.759 390.743L407.766 390.642Z" fill="#1D1D1B"/>
<path d="M407.776 390.492L406.846 390.428L406.839 390.529L407.769 390.593L407.776 390.492Z" fill="#1D1D1B"/>
<path d="M407.804 390.327L406.875 390.263L406.868 390.363L407.797 390.427L407.804 390.327Z" fill="#1D1D1B"/>
<path d="M423.344 297.303L422.444 297.062L422.418 297.159L423.318 297.4L423.344 297.303Z" fill="#1D1D1B"/>
<path d="M423.686 296.187L422.787 295.942L422.761 296.04L423.66 296.284L423.686 296.187Z" fill="#1D1D1B"/>
<path d="M423.694 296.048L422.794 295.803L422.768 295.9L423.667 296.145L423.694 296.048Z" fill="#1D1D1B"/>
<path d="M423.742 295.889L422.843 295.645L422.816 295.742L423.715 295.986L423.742 295.889Z" fill="#1D1D1B"/>
<path d="M423.804 295.753L422.905 295.508L422.879 295.605L423.778 295.85L423.804 295.753Z" fill="#1D1D1B"/>
<path d="M423.825 295.558L422.925 295.313L422.899 295.41L423.799 295.654L423.825 295.558Z" fill="#1D1D1B"/>
<path d="M423.86 295.455L422.961 295.211L422.935 295.308L423.834 295.553L423.86 295.455Z" fill="#1D1D1B"/>
<path d="M423.891 295.324L422.991 295.079L422.965 295.177L423.864 295.422L423.891 295.324Z" fill="#1D1D1B"/>
<path d="M424.205 294.17L423.307 293.921L423.28 294.018L424.178 294.267L424.205 294.17Z" fill="#1D1D1B"/>
<path d="M424.245 294.026L423.347 293.777L423.32 293.874L424.218 294.123L424.245 294.026Z" fill="#1D1D1B"/>
<path d="M424.285 293.881L423.387 293.633L423.36 293.73L424.258 293.978L424.285 293.881Z" fill="#1D1D1B"/>
<path d="M424.325 293.737L423.427 293.488L423.4 293.585L424.298 293.834L424.325 293.737Z" fill="#1D1D1B"/>
<path d="M424.365 293.592L423.467 293.344L423.44 293.441L424.338 293.689L424.365 293.592Z" fill="#1D1D1B"/>
<path d="M424.405 293.448L423.507 293.2L423.48 293.297L424.378 293.545L424.405 293.448Z" fill="#1D1D1B"/>
<path d="M424.445 293.303L423.547 293.055L423.52 293.152L424.418 293.4L424.445 293.303Z" fill="#1D1D1B"/>
<path d="M424.774 292.115L423.877 291.863L423.85 291.959L424.747 292.211L424.774 292.115Z" fill="#1D1D1B"/>
<path d="M424.828 292.012L423.931 291.76L423.903 291.857L424.801 292.109L424.828 292.012Z" fill="#1D1D1B"/>
<path d="M424.879 291.837L423.982 291.585L423.955 291.682L424.852 291.934L424.879 291.837Z" fill="#1D1D1B"/>
<path d="M424.92 291.693L424.023 291.441L423.996 291.538L424.892 291.791L424.92 291.693Z" fill="#1D1D1B"/>
<path d="M424.96 291.549L424.063 291.296L424.036 291.393L424.933 291.646L424.96 291.549Z" fill="#1D1D1B"/>
<path d="M425.001 291.405L424.104 291.152L424.077 291.249L424.974 291.502L425.001 291.405Z" fill="#1D1D1B"/>
<path d="M425.018 291.25L424.121 290.998L424.093 291.095L424.99 291.347L425.018 291.25Z" fill="#1D1D1B"/>
<path d="M435.652 258.201L434.775 257.883L434.741 257.978L435.618 258.296L435.652 258.201Z" fill="#1D1D1B"/>
<path d="M435.687 258.03L434.81 257.714L434.776 257.807L435.653 258.124L435.687 258.03Z" fill="#1D1D1B"/>
<path d="M435.738 257.889L434.861 257.573L434.827 257.666L435.704 257.983L435.738 257.889Z" fill="#1D1D1B"/>
<path d="M435.789 257.748L434.912 257.432L434.878 257.525L435.755 257.842L435.789 257.748Z" fill="#1D1D1B"/>
<path d="M435.84 257.608L434.963 257.291L434.929 257.385L435.806 257.702L435.84 257.608Z" fill="#1D1D1B"/>
<path d="M435.881 257.497L435.005 257.18L434.971 257.274L435.846 257.592L435.881 257.497Z" fill="#1D1D1B"/>
<path d="M435.941 257.326L435.064 257.01L435.031 257.103L435.907 257.42L435.941 257.326Z" fill="#1D1D1B"/>
<path d="M436.358 256.198L435.483 255.878L435.448 255.972L436.323 256.292L436.358 256.198Z" fill="#1D1D1B"/>
<path d="M436.394 256.059L435.519 255.738L435.484 255.832L436.359 256.153L436.394 256.059Z" fill="#1D1D1B"/>
<path d="M436.445 255.918L435.57 255.597L435.536 255.691L436.411 256.012L436.445 255.918Z" fill="#1D1D1B"/>
<path d="M436.512 255.777L435.637 255.456L435.603 255.55L436.477 255.871L436.512 255.777Z" fill="#1D1D1B"/>
<path d="M436.548 255.637L435.673 255.316L435.638 255.41L436.513 255.731L436.548 255.637Z" fill="#1D1D1B"/>
<path d="M436.6 255.497L435.725 255.175L435.69 255.269L436.565 255.591L436.6 255.497Z" fill="#1D1D1B"/>
<path d="M436.667 255.355L435.792 255.035L435.758 255.129L436.632 255.449L436.667 255.355Z" fill="#1D1D1B"/>
<path d="M437.087 254.289L436.213 253.964L436.178 254.058L437.052 254.383L437.087 254.289Z" fill="#1D1D1B"/>
<path d="M437.105 254.116L436.231 253.792L436.197 253.885L437.071 254.209L437.105 254.116Z" fill="#1D1D1B"/>
<path d="M437.191 254.009L436.317 253.685L436.282 253.779L437.156 254.104L437.191 254.009Z" fill="#1D1D1B"/>
<path d="M437.243 253.869L436.37 253.544L436.335 253.638L437.208 253.963L437.243 253.869Z" fill="#1D1D1B"/>
<path d="M437.295 253.729L436.421 253.404L436.386 253.498L437.26 253.823L437.295 253.729Z" fill="#1D1D1B"/>
<path d="M437.347 253.589L436.474 253.264L436.439 253.358L437.313 253.682L437.347 253.589Z" fill="#1D1D1B"/>
<path d="M437.4 253.448L436.526 253.123L436.491 253.217L437.365 253.542L437.4 253.448Z" fill="#1D1D1B"/>
<path d="M437.806 252.311L436.933 251.982L436.898 252.076L437.77 252.405L437.806 252.311Z" fill="#1D1D1B"/>
<path d="M437.858 252.171L436.986 251.842L436.951 251.936L437.823 252.264L437.858 252.171Z" fill="#1D1D1B"/>
<path d="M437.927 251.986L437.055 251.657L437.02 251.751L437.892 252.08L437.927 251.986Z" fill="#1D1D1B"/>
<path d="M437.979 251.888L437.106 251.56L437.071 251.653L437.944 251.981L437.979 251.888Z" fill="#1D1D1B"/>
<path d="M438.032 251.706L437.16 251.377L437.125 251.471L437.997 251.8L438.032 251.706Z" fill="#1D1D1B"/>
<path d="M438.069 251.611L437.196 251.283L437.161 251.377L438.033 251.705L438.069 251.611Z" fill="#1D1D1B"/>
<path d="M438.122 251.471L437.25 251.143L437.214 251.237L438.087 251.565L438.122 251.471Z" fill="#1D1D1B"/>
<path d="M438.539 250.344L437.668 250.012L437.632 250.106L438.503 250.438L438.539 250.344Z" fill="#1D1D1B"/>
<path d="M438.578 250.208L437.707 249.876L437.671 249.97L438.542 250.302L438.578 250.208Z" fill="#1D1D1B"/>
<path d="M438.667 250.065L437.795 249.733L437.759 249.827L438.631 250.159L438.667 250.065Z" fill="#1D1D1B"/>
<path d="M438.7 249.924L437.829 249.592L437.793 249.686L438.664 250.018L438.7 249.924Z" fill="#1D1D1B"/>
<path d="M438.759 249.789L437.887 249.457L437.851 249.551L438.723 249.884L438.759 249.789Z" fill="#1D1D1B"/>
<path d="M438.806 249.644L437.935 249.312L437.899 249.406L438.77 249.738L438.806 249.644Z" fill="#1D1D1B"/>
<path d="M438.845 249.508L437.974 249.176L437.938 249.27L438.809 249.602L438.845 249.508Z" fill="#1D1D1B"/>
<path d="M439.294 248.39L438.424 248.054L438.388 248.148L439.258 248.484L439.294 248.39Z" fill="#1D1D1B"/>
<path d="M439.349 248.251L438.479 247.915L438.442 248.009L439.312 248.345L439.349 248.251Z" fill="#1D1D1B"/>
<path d="M439.384 248.109L438.514 247.773L438.478 247.868L439.347 248.204L439.384 248.109Z" fill="#1D1D1B"/>
<path d="M439.452 247.984L438.583 247.648L438.547 247.742L439.416 248.078L439.452 247.984Z" fill="#1D1D1B"/>
<path d="M439.492 247.83L438.622 247.494L438.586 247.588L439.455 247.924L439.492 247.83Z" fill="#1D1D1B"/>
<path d="M439.559 247.684L438.69 247.348L438.654 247.442L439.523 247.777L439.559 247.684Z" fill="#1D1D1B"/>
<path d="M439.618 247.551L438.748 247.215L438.712 247.309L439.582 247.645L439.618 247.551Z" fill="#1D1D1B"/>
<path d="M440.059 246.442L439.19 246.103L439.154 246.196L440.022 246.535L440.059 246.442Z" fill="#1D1D1B"/>
<path d="M440.094 246.279L439.226 245.94L439.189 246.033L440.057 246.372L440.094 246.279Z" fill="#1D1D1B"/>
<path d="M440.182 246.156L439.313 245.816L439.277 245.91L440.145 246.249L440.182 246.156Z" fill="#1D1D1B"/>
<path d="M440.234 246.029L439.367 245.689L439.33 245.783L440.198 246.122L440.234 246.029Z" fill="#1D1D1B"/>
<path d="M440.293 245.898L439.425 245.558L439.388 245.652L440.256 245.992L440.293 245.898Z" fill="#1D1D1B"/>
<path d="M440.332 245.744L439.463 245.404L439.427 245.498L440.295 245.838L440.332 245.744Z" fill="#1D1D1B"/>
<path d="M440.367 245.582L439.499 245.242L439.462 245.336L440.33 245.675L440.367 245.582Z" fill="#1D1D1B"/>
<path d="M440.806 244.489L439.939 244.145L439.902 244.238L440.769 244.582L440.806 244.489Z" fill="#1D1D1B"/>
<path d="M440.861 244.349L439.994 244.006L439.957 244.099L440.824 244.442L440.861 244.349Z" fill="#1D1D1B"/>
<path d="M440.916 244.21L440.049 243.866L440.012 243.959L440.879 244.303L440.916 244.21Z" fill="#1D1D1B"/>
<path d="M440.971 244.07L440.104 243.727L440.067 243.82L440.934 244.164L440.971 244.07Z" fill="#1D1D1B"/>
<path d="M441.059 243.947L440.192 243.604L440.155 243.697L441.022 244.04L441.059 243.947Z" fill="#1D1D1B"/>
<path d="M441.081 243.792L440.215 243.448L440.178 243.541L441.045 243.885L441.081 243.792Z" fill="#1D1D1B"/>
<path d="M441.137 243.653L440.27 243.309L440.233 243.402L441.1 243.746L441.137 243.653Z" fill="#1D1D1B"/>
<path d="M441.618 242.523L440.752 242.175L440.715 242.269L441.58 242.616L441.618 242.523Z" fill="#1D1D1B"/>
<path d="M441.674 242.384L440.809 242.036L440.771 242.13L441.636 242.478L441.674 242.384Z" fill="#1D1D1B"/>
<path d="M441.729 242.245L440.864 241.897L440.827 241.991L441.692 242.339L441.729 242.245Z" fill="#1D1D1B"/>
<path d="M441.798 242.095L440.933 241.748L440.896 241.842L441.761 242.189L441.798 242.095Z" fill="#1D1D1B"/>
<path d="M441.841 241.966L440.976 241.619L440.939 241.712L441.804 242.059L441.841 241.966Z" fill="#1D1D1B"/>
<path d="M441.897 241.828L441.032 241.48L440.995 241.574L441.86 241.921L441.897 241.828Z" fill="#1D1D1B"/>
<path d="M441.966 241.678L441.101 241.331L441.063 241.424L441.928 241.771L441.966 241.678Z" fill="#1D1D1B"/>
<path d="M442.379 240.578L441.515 240.227L441.477 240.321L442.341 240.672L442.379 240.578Z" fill="#1D1D1B"/>
<path d="M442.435 240.439L441.572 240.088L441.534 240.182L442.397 240.533L442.435 240.439Z" fill="#1D1D1B"/>
<path d="M442.492 240.301L441.628 239.95L441.59 240.043L442.454 240.394L442.492 240.301Z" fill="#1D1D1B"/>
<path d="M442.548 240.162L441.685 239.811L441.647 239.904L442.51 240.255L442.548 240.162Z" fill="#1D1D1B"/>
<path d="M442.604 240.023L441.741 239.672L441.703 239.765L442.566 240.116L442.604 240.023Z" fill="#1D1D1B"/>
<path d="M442.661 239.885L441.797 239.534L441.759 239.627L442.623 239.978L442.661 239.885Z" fill="#1D1D1B"/>
<path d="M442.718 239.745L441.854 239.395L441.816 239.488L442.68 239.839L442.718 239.745Z" fill="#1D1D1B"/>
<path d="M449.841 223.117L448.992 222.734L448.951 222.825L449.8 223.208L449.841 223.117Z" fill="#1D1D1B"/>
<path d="M449.903 222.981L449.054 222.597L449.012 222.688L449.862 223.072L449.903 222.981Z" fill="#1D1D1B"/>
<path d="M449.985 222.818L449.135 222.434L449.094 222.526L449.943 222.91L449.985 222.818Z" fill="#1D1D1B"/>
<path d="M450.026 222.707L449.177 222.324L449.136 222.415L449.985 222.799L450.026 222.707Z" fill="#1D1D1B"/>
<path d="M450.088 222.571L449.239 222.187L449.198 222.279L450.047 222.662L450.088 222.571Z" fill="#1D1D1B"/>
<path d="M450.15 222.435L449.301 222.051L449.26 222.143L450.109 222.526L450.15 222.435Z" fill="#1D1D1B"/>
<path d="M450.664 221.348L449.816 220.961L449.774 221.052L450.622 221.439L450.664 221.348Z" fill="#1D1D1B"/>
<path d="M450.72 221.17L449.873 220.783L449.831 220.874L450.678 221.262L450.72 221.17Z" fill="#1D1D1B"/>
<path d="M450.807 221.05L449.959 220.663L449.918 220.754L450.765 221.142L450.807 221.05Z" fill="#1D1D1B"/>
<path d="M450.845 220.897L449.997 220.51L449.955 220.601L450.803 220.989L450.845 220.897Z" fill="#1D1D1B"/>
<path d="M450.932 220.778L450.084 220.39L450.042 220.482L450.89 220.869L450.932 220.778Z" fill="#1D1D1B"/>
<path d="M450.975 220.666L450.127 220.279L450.086 220.371L450.934 220.758L450.975 220.666Z" fill="#1D1D1B"/>
<path d="M451.038 220.53L450.19 220.143L450.148 220.235L450.996 220.622L451.038 220.53Z" fill="#1D1D1B"/>
<path d="M451.512 219.441L450.666 219.049L450.624 219.141L451.47 219.532L451.512 219.441Z" fill="#1D1D1B"/>
<path d="M451.609 219.29L450.763 218.899L450.721 218.99L451.567 219.381L451.609 219.29Z" fill="#1D1D1B"/>
<path d="M451.672 219.153L450.826 218.762L450.784 218.854L451.63 219.245L451.672 219.153Z" fill="#1D1D1B"/>
<path d="M451.735 219.017L450.889 218.626L450.847 218.717L451.693 219.108L451.735 219.017Z" fill="#1D1D1B"/>
<path d="M451.764 218.897L450.917 218.506L450.875 218.597L451.721 218.988L451.764 218.897Z" fill="#1D1D1B"/>
<path d="M451.852 218.772L451.006 218.38L450.964 218.472L451.81 218.864L451.852 218.772Z" fill="#1D1D1B"/>
<path d="M451.923 218.609L451.077 218.218L451.035 218.31L451.881 218.701L451.923 218.609Z" fill="#1D1D1B"/>
<path d="M452.4 217.544L451.555 217.149L451.512 217.241L452.357 217.636L452.4 217.544Z" fill="#1D1D1B"/>
<path d="M452.472 217.38L451.627 216.986L451.584 217.077L452.429 217.472L452.472 217.38Z" fill="#1D1D1B"/>
<path d="M452.527 217.273L451.682 216.878L451.639 216.969L452.484 217.364L452.527 217.273Z" fill="#1D1D1B"/>
<path d="M452.6 217.103L451.756 216.708L451.714 216.8L452.558 217.194L452.6 217.103Z" fill="#1D1D1B"/>
<path d="M452.653 217.001L451.809 216.606L451.766 216.698L452.611 217.093L452.653 217.001Z" fill="#1D1D1B"/>
<path d="M452.725 216.838L451.881 216.443L451.838 216.534L452.683 216.929L452.725 216.838Z" fill="#1D1D1B"/>
<path d="M452.78 216.73L451.936 216.335L451.893 216.426L452.738 216.821L452.78 216.73Z" fill="#1D1D1B"/>
<path d="M453.313 215.625L452.471 215.226L452.428 215.317L453.27 215.715L453.313 215.625Z" fill="#1D1D1B"/>
<path d="M453.374 215.495L452.531 215.097L452.488 215.187L453.331 215.586L453.374 215.495Z" fill="#1D1D1B"/>
<path d="M453.433 215.383L452.591 214.984L452.548 215.075L453.39 215.474L453.433 215.383Z" fill="#1D1D1B"/>
<path d="M453.522 215.203L452.679 214.805L452.636 214.896L453.479 215.294L453.522 215.203Z" fill="#1D1D1B"/>
<path d="M453.569 215.083L452.727 214.685L452.684 214.775L453.526 215.173L453.569 215.083Z" fill="#1D1D1B"/>
<path d="M453.627 214.959L452.784 214.561L452.741 214.652L453.584 215.05L453.627 214.959Z" fill="#1D1D1B"/>
<path d="M453.71 214.803L452.867 214.404L452.824 214.495L453.667 214.894L453.71 214.803Z" fill="#1D1D1B"/>
<path d="M454.229 213.716L453.388 213.314L453.344 213.404L454.186 213.807L454.229 213.716Z" fill="#1D1D1B"/>
<path d="M454.268 213.607L453.427 213.205L453.384 213.296L454.225 213.698L454.268 213.607Z" fill="#1D1D1B"/>
<path d="M454.338 213.466L453.497 213.064L453.454 213.155L454.295 213.556L454.338 213.466Z" fill="#1D1D1B"/>
<path d="M454.403 213.33L453.562 212.929L453.518 213.019L454.359 213.421L454.403 213.33Z" fill="#1D1D1B"/>
<path d="M454.463 213.202L453.621 212.8L453.578 212.891L454.419 213.293L454.463 213.202Z" fill="#1D1D1B"/>
<path d="M454.532 213.06L453.69 212.658L453.647 212.749L454.488 213.151L454.532 213.06Z" fill="#1D1D1B"/>
<path d="M454.596 212.925L453.755 212.523L453.712 212.614L454.553 213.016L454.596 212.925Z" fill="#1D1D1B"/>
<path d="M455.124 211.827L454.285 211.422L454.242 211.512L455.081 211.917L455.124 211.827Z" fill="#1D1D1B"/>
<path d="M455.183 211.724L454.344 211.318L454.3 211.408L455.14 211.814L455.183 211.724Z" fill="#1D1D1B"/>
<path d="M455.248 211.589L454.409 211.183L454.365 211.274L455.204 211.679L455.248 211.589Z" fill="#1D1D1B"/>
<path d="M455.313 211.454L454.474 211.048L454.43 211.138L455.269 211.544L455.313 211.454Z" fill="#1D1D1B"/>
<path d="M455.372 211.325L454.533 210.92L454.489 211.01L455.329 211.415L455.372 211.325Z" fill="#1D1D1B"/>
<path d="M455.45 211.152L454.611 210.747L454.568 210.837L455.407 211.242L455.45 211.152Z" fill="#1D1D1B"/>
<path d="M455.509 211.049L454.669 210.643L454.626 210.733L455.465 211.139L455.509 211.049Z" fill="#1D1D1B"/>
<path d="M456.041 209.967L455.204 209.558L455.16 209.648L455.998 210.057L456.041 209.967Z" fill="#1D1D1B"/>
<path d="M456.12 209.822L455.282 209.413L455.238 209.503L456.076 209.912L456.12 209.822Z" fill="#1D1D1B"/>
<path d="M456.173 209.697L455.336 209.289L455.292 209.379L456.129 209.787L456.173 209.697Z" fill="#1D1D1B"/>
<path d="M456.259 209.545L455.421 209.136L455.377 209.227L456.215 209.636L456.259 209.545Z" fill="#1D1D1B"/>
<path d="M456.324 209.41L455.487 209.001L455.443 209.092L456.28 209.501L456.324 209.41Z" fill="#1D1D1B"/>
<path d="M456.37 209.293L455.532 208.885L455.488 208.975L456.326 209.383L456.37 209.293Z" fill="#1D1D1B"/>
<path d="M456.429 209.166L455.591 208.757L455.547 208.847L456.385 209.256L456.429 209.166Z" fill="#1D1D1B"/>
<path d="M456.961 208.061L456.125 207.648L456.08 207.738L456.916 208.151L456.961 208.061Z" fill="#1D1D1B"/>
<path d="M457.027 207.926L456.191 207.513L456.146 207.604L456.982 208.017L457.027 207.926Z" fill="#1D1D1B"/>
<path d="M457.094 207.792L456.258 207.379L456.213 207.469L457.049 207.882L457.094 207.792Z" fill="#1D1D1B"/>
<path d="M457.13 207.681L456.294 207.269L456.25 207.359L457.086 207.771L457.13 207.681Z" fill="#1D1D1B"/>
<path d="M457.226 207.523L456.391 207.11L456.346 207.201L457.182 207.614L457.226 207.523Z" fill="#1D1D1B"/>
<path d="M457.263 207.412L456.427 206.999L456.383 207.09L457.219 207.502L457.263 207.412Z" fill="#1D1D1B"/>
<path d="M457.338 207.27L456.502 206.858L456.458 206.948L457.293 207.361L457.338 207.27Z" fill="#1D1D1B"/>
<path d="M457.854 206.201L457.021 205.784L456.976 205.874L457.809 206.291L457.854 206.201Z" fill="#1D1D1B"/>
<path d="M457.963 206.101L457.128 205.684L457.083 205.774L457.918 206.191L457.963 206.101Z" fill="#1D1D1B"/>
<path d="M458.045 205.923L457.211 205.507L457.166 205.597L458 206.013L458.045 205.923Z" fill="#1D1D1B"/>
<path d="M458.113 205.789L457.278 205.373L457.233 205.463L458.068 205.879L458.113 205.789Z" fill="#1D1D1B"/>
<path d="M458.17 205.662L457.335 205.246L457.29 205.336L458.125 205.753L458.17 205.662Z" fill="#1D1D1B"/>
<path d="M458.189 205.531L457.355 205.114L457.31 205.204L458.144 205.621L458.189 205.531Z" fill="#1D1D1B"/>
<path d="M458.256 205.396L457.422 204.98L457.377 205.07L458.211 205.487L458.256 205.396Z" fill="#1D1D1B"/>
<path d="M458.851 204.322L458.019 203.902L457.973 203.992L458.805 204.412L458.851 204.322Z" fill="#1D1D1B"/>
<path d="M458.907 204.196L458.074 203.776L458.029 203.866L458.862 204.286L458.907 204.196Z" fill="#1D1D1B"/>
<path d="M458.965 204.068L458.133 203.648L458.087 203.738L458.919 204.158L458.965 204.068Z" fill="#1D1D1B"/>
<path d="M459.021 203.942L458.188 203.522L458.143 203.612L458.976 204.031L459.021 203.942Z" fill="#1D1D1B"/>
<path d="M459.11 203.794L458.277 203.374L458.231 203.464L459.064 203.884L459.11 203.794Z" fill="#1D1D1B"/>
<path d="M459.165 203.668L458.333 203.248L458.287 203.338L459.12 203.758L459.165 203.668Z" fill="#1D1D1B"/>
<path d="M459.256 203.519L458.423 203.099L458.378 203.19L459.21 203.61L459.256 203.519Z" fill="#1D1D1B"/>
<path d="M459.788 202.443L458.957 202.019L458.911 202.109L459.742 202.532L459.788 202.443Z" fill="#1D1D1B"/>
<path d="M459.856 202.309L459.025 201.886L458.98 201.975L459.81 202.399L459.856 202.309Z" fill="#1D1D1B"/>
<path d="M459.932 202.171L459.101 201.747L459.055 201.837L459.886 202.261L459.932 202.171Z" fill="#1D1D1B"/>
<path d="M459.992 202.042L459.161 201.619L459.115 201.709L459.946 202.132L459.992 202.042Z" fill="#1D1D1B"/>
<path d="M460.054 201.947L459.224 201.524L459.178 201.613L460.009 202.037L460.054 201.947Z" fill="#1D1D1B"/>
<path d="M460.123 201.814L459.292 201.39L459.246 201.48L460.077 201.904L460.123 201.814Z" fill="#1D1D1B"/>
<path d="M460.196 201.642L459.366 201.218L459.32 201.308L460.15 201.732L460.196 201.642Z" fill="#1D1D1B"/>
<path d="M460.74 200.573L459.912 200.146L459.866 200.235L460.695 200.662L460.74 200.573Z" fill="#1D1D1B"/>
<path d="M460.795 200.448L459.966 200.022L459.921 200.11L460.75 200.537L460.795 200.448Z" fill="#1D1D1B"/>
<path d="M460.864 200.315L460.035 199.888L459.99 199.977L460.818 200.403L460.864 200.315Z" fill="#1D1D1B"/>
<path d="M460.932 200.182L460.104 199.755L460.058 199.844L460.887 200.27L460.932 200.182Z" fill="#1D1D1B"/>
<path d="M461.001 200.049L460.172 199.622L460.127 199.711L460.956 200.137L461.001 200.049Z" fill="#1D1D1B"/>
<path d="M461.07 199.915L460.241 199.489L460.196 199.577L461.025 200.004L461.07 199.915Z" fill="#1D1D1B"/>
<path d="M461.139 199.782L460.31 199.356L460.264 199.444L461.093 199.871L461.139 199.782Z" fill="#1D1D1B"/>
<path d="M461.704 198.755L460.878 198.324L460.831 198.414L461.658 198.844L461.704 198.755Z" fill="#1D1D1B"/>
<path d="M461.784 198.579L460.957 198.148L460.91 198.238L461.737 198.668L461.784 198.579Z" fill="#1D1D1B"/>
<path d="M461.842 198.489L461.016 198.058L460.969 198.148L461.796 198.578L461.842 198.489Z" fill="#1D1D1B"/>
<path d="M461.923 198.313L461.096 197.883L461.049 197.972L461.876 198.403L461.923 198.313Z" fill="#1D1D1B"/>
<path d="M461.981 198.223L461.154 197.792L461.108 197.882L461.934 198.312L461.981 198.223Z" fill="#1D1D1B"/>
<path d="M462.061 198.047L461.234 197.617L461.187 197.707L462.014 198.137L462.061 198.047Z" fill="#1D1D1B"/>
<path d="M462.13 197.914L461.303 197.484L461.257 197.574L462.084 198.004L462.13 197.914Z" fill="#1D1D1B"/>
<path d="M462.635 196.884L461.81 196.45L461.763 196.54L462.588 196.973L462.635 196.884Z" fill="#1D1D1B"/>
<path d="M462.721 196.743L461.896 196.309L461.85 196.398L462.675 196.832L462.721 196.743Z" fill="#1D1D1B"/>
<path d="M462.813 196.602L461.988 196.168L461.941 196.257L462.766 196.691L462.813 196.602Z" fill="#1D1D1B"/>
<path d="M462.839 196.487L462.014 196.053L461.968 196.142L462.792 196.575L462.839 196.487Z" fill="#1D1D1B"/>
<path d="M462.936 196.345L462.11 195.911L462.063 196L462.889 196.434L462.936 196.345Z" fill="#1D1D1B"/>
<path d="M462.983 196.222L462.158 195.788L462.111 195.877L462.936 196.311L462.983 196.222Z" fill="#1D1D1B"/>
<path d="M463.053 196.089L462.228 195.655L462.181 195.744L463.007 196.178L463.053 196.089Z" fill="#1D1D1B"/>
<path d="M501.403 134.704L500.651 134.153L500.591 134.234L501.343 134.785L501.403 134.704Z" fill="#1D1D1B"/>
<path d="M501.491 134.583L500.739 134.032L500.68 134.113L501.431 134.664L501.491 134.583Z" fill="#1D1D1B"/>
<path d="M501.597 134.466L500.846 133.915L500.786 133.996L501.538 134.547L501.597 134.466Z" fill="#1D1D1B"/>
<path d="M501.668 134.342L500.916 133.791L500.857 133.872L501.609 134.423L501.668 134.342Z" fill="#1D1D1B"/>
<path d="M501.82 134.205L501.068 133.653L501.008 133.735L501.76 134.286L501.82 134.205Z" fill="#1D1D1B"/>
<path d="M501.845 134.1L501.093 133.549L501.034 133.63L501.786 134.181L501.845 134.1Z" fill="#1D1D1B"/>
<path d="M501.997 133.963L501.245 133.412L501.186 133.493L501.937 134.044L501.997 133.963Z" fill="#1D1D1B"/>
<path d="M502.688 133.014L501.938 132.46L501.879 132.541L502.628 133.095L502.688 133.014Z" fill="#1D1D1B"/>
<path d="M502.777 132.894L502.028 132.339L501.968 132.42L502.717 132.975L502.777 132.894Z" fill="#1D1D1B"/>
<path d="M502.866 132.774L502.117 132.219L502.056 132.301L502.806 132.855L502.866 132.774Z" fill="#1D1D1B"/>
<path d="M502.955 132.653L502.206 132.099L502.146 132.18L502.895 132.735L502.955 132.653Z" fill="#1D1D1B"/>
<path d="M503.044 132.533L502.295 131.979L502.235 132.06L502.984 132.614L503.044 132.533Z" fill="#1D1D1B"/>
<path d="M503.112 132.43L502.362 131.876L502.302 131.956L503.052 132.511L503.112 132.43Z" fill="#1D1D1B"/>
<path d="M503.233 132.272L502.483 131.718L502.424 131.799L503.173 132.353L503.233 132.272Z" fill="#1D1D1B"/>
<path d="M503.928 131.338L503.182 130.781L503.122 130.861L503.869 131.418L503.928 131.338Z" fill="#1D1D1B"/>
<path d="M504.029 131.198L503.281 130.641L503.221 130.721L503.969 131.278L504.029 131.198Z" fill="#1D1D1B"/>
<path d="M504.108 131.098L503.361 130.541L503.301 130.621L504.048 131.178L504.108 131.098Z" fill="#1D1D1B"/>
<path d="M504.198 130.977L503.451 130.42L503.391 130.501L504.138 131.058L504.198 130.977Z" fill="#1D1D1B"/>
<path d="M504.287 130.857L503.541 130.3L503.481 130.381L504.227 130.938L504.287 130.857Z" fill="#1D1D1B"/>
<path d="M504.377 130.737L503.63 130.18L503.57 130.261L504.317 130.818L504.377 130.737Z" fill="#1D1D1B"/>
<path d="M504.456 130.581L503.709 130.023L503.65 130.104L504.396 130.661L504.456 130.581Z" fill="#1D1D1B"/>
<path d="M505.164 129.673L504.419 129.112L504.359 129.192L505.104 129.753L505.164 129.673Z" fill="#1D1D1B"/>
<path d="M505.235 129.537L504.491 128.977L504.431 129.057L505.175 129.617L505.235 129.537Z" fill="#1D1D1B"/>
<path d="M505.355 129.397L504.61 128.837L504.55 128.917L505.295 129.477L505.355 129.397Z" fill="#1D1D1B"/>
<path d="M505.416 129.298L504.671 128.738L504.611 128.818L505.355 129.378L505.416 129.298Z" fill="#1D1D1B"/>
<path d="M604.081 30.6822L603.521 29.9375L603.441 29.998L604.001 30.7427L604.081 30.6822Z" fill="#1D1D1B"/>
<path d="M604.178 30.5901L603.618 29.8448L603.538 29.9053L604.098 30.6506L604.178 30.5901Z" fill="#1D1D1B"/>
<path d="M604.286 30.5213L603.727 29.7764L603.646 29.8369L604.205 30.5818L604.286 30.5213Z" fill="#1D1D1B"/>
<path d="M604.417 30.4104L603.857 29.6652L603.776 29.7257L604.336 30.4709L604.417 30.4104Z" fill="#1D1D1B"/>
<path d="M604.56 30.3223L604 29.5776L603.92 29.6378L604.48 30.3825L604.56 30.3223Z" fill="#1D1D1B"/>
<path d="M604.641 30.2704L604.081 29.5255L604.001 29.5857L604.561 30.3307L604.641 30.2704Z" fill="#1D1D1B"/>
<path d="M604.777 30.1403L604.217 29.395L604.136 29.4555L604.696 30.2008L604.777 30.1403Z" fill="#1D1D1B"/>
<path d="M314.548 372.666V255.438" stroke="#00AAD2" stroke-width="13" stroke-miterlimit="10"/>
<path d="M210.5 162L314.81 54.3662L473.921 213.477L314.81 372.587L213 266" stroke="#00AAD2" stroke-width="16" stroke-miterlimit="10" stroke-linejoin="round"/>
<path d="M357.034 170.729H272.587V255.175H357.034V170.729Z" stroke="#00AAD2" stroke-width="18" stroke-miterlimit="10" stroke-linejoin="round"/>
<path d="M355.723 213.301H723.406" stroke="#00AAD2" stroke-width="22" stroke-miterlimit="10" stroke-linejoin="round"/>
<path d="M314.811 170.683V54.287" stroke="#00AAD2" stroke-width="13" stroke-miterlimit="10" stroke-linejoin="round"/>
<path d="M392.438 132.064H645.254V293.989H392.438" stroke="#00AAD2" stroke-width="8" stroke-miterlimit="10" stroke-linejoin="round"/>
<path d="M645.265 132H735V171H645" stroke="#00AAD2" stroke-width="8" stroke-miterlimit="10" stroke-linejoin="round"/>
<path d="M597.239 329H529.761C528.236 329 527 327.89 527 326.52V306.48C527 305.11 528.236 304 529.761 304H597.239C598.764 304 600 305.11 600 306.48V326.52C600 327.89 598.764 329 597.239 329Z" stroke="#00AAD2" stroke-width="4" stroke-miterlimit="10"/>
<path d="M235.085 155.256H200.169V272.222H235.085V155.256Z" fill="#00AAD2"/>
<path d="M707 179H667V198H707V179Z" fill="#00AAD2"/>
<path d="M272.85 193.021H234.263V233.932H272.85V193.021Z" fill="#00AAD2"/>
<path d="M618.86 365H556.139C554.406 365 553 363.56 553 361.783V346.217C553 344.44 554.406 343 556.139 343H618.86C620.594 343 622 344.44 622 346.217V361.783C622 363.56 620.594 365 618.86 365Z" fill="#00AAD2"/>
<path d="M314.024 372.666V255.438" stroke="white" stroke-width="2" stroke-miterlimit="10" stroke-dasharray="12 12"/>
<path d="M314.286 54.3662L473.396 213.477L314.286 372.587" stroke="white" stroke-width="2" stroke-miterlimit="10" stroke-dasharray="12 12"/>
<path d="M356.509 170.729H272.063V255.175H356.509V170.729Z" stroke="white" stroke-width="2" stroke-miterlimit="10" stroke-dasharray="12 12"/>
<path d="M355.198 213.301H517.535" stroke="white" stroke-width="2" stroke-miterlimit="10" stroke-dasharray="12 12"/>
<path d="M199.942 213.301H272.063" stroke="white" stroke-width="2" stroke-miterlimit="10" stroke-dasharray="12 12"/>
<path d="M314.286 170.683V54.287" stroke="white" stroke-width="2" stroke-miterlimit="10" stroke-dasharray="12 12"/>
<path d="M332.644 213.477C332.644 223.325 324.66 231.31 314.81 231.31C304.961 231.31 296.977 223.325 296.977 213.477C296.977 203.628 304.961 195.643 314.81 195.643C324.66 195.643 332.644 203.628 332.644 213.477Z" fill="#E4DCD3"/>
<path d="M645.253 420.135V380.184H464.821V391.286H156.932V267.501H118.118V216.099V159.976H155.883V115.917H194.173L262.359 47.7307V30.4218H645.253V115.917H840.897V422.233H464.821L319.007 463.145L156.932 463.407V453.441H94.2529" stroke="#E4DCD3" stroke-width="4" stroke-miterlimit="10"/>
<path d="M464.821 422.233V332.016" stroke="#E4DCD3" stroke-width="4" stroke-miterlimit="10"/>
<path d="M490.25 380.272V337.786H645.253V380.272" stroke="#E4DCD3" stroke-width="4" stroke-miterlimit="10"/>
<path d="M777.955 213.477H840.372" stroke="#E4DCD3" stroke-width="4" stroke-miterlimit="10"/>
<path d="M413.157 73.9563V0" stroke="#E4DCD3" stroke-width="4" stroke-miterlimit="10"/>
<path d="M262.359 30.4218H93.9907" stroke="#E4DCD3" stroke-width="4" stroke-miterlimit="10"/>
<path d="M262.359 391.549H93.9907" stroke="#E4DCD3" stroke-width="4" stroke-miterlimit="10"/>
<path d="M216.727 297.923V391.463" stroke="#E4DCD3" stroke-width="4" stroke-miterlimit="10"/>
<path d="M94.5151 213.301H160.802" stroke="white" stroke-width="2" stroke-miterlimit="10" stroke-dasharray="12 12"/>
<path d="M0.103027 213.301H66.3899" stroke="white" stroke-width="2" stroke-miterlimit="10" stroke-dasharray="12 12"/>
<path d="M94 104H65V323H94V104Z" stroke="#F6F3F2" stroke-miterlimit="10"/>
<path d="M200 138H161V292H200V138Z" stroke="#F6F3F2" stroke-miterlimit="10"/>
<path d="M211.779 299.188H194.173V331.707H211.779V299.188Z" stroke="#F6F3F2" stroke-miterlimit="10"/>
<path d="M426.007 74.059H400.306V114.304H426.007V74.059Z" stroke="#F6F3F2" stroke-miterlimit="10"/>
<path d="M549.006 343.031H495.243V368.208H549.006V343.031Z" stroke="#F6F3F2" stroke-miterlimit="10"/>
<path d="M654 314H627V365H654V314Z" stroke="#F6F3F2" stroke-miterlimit="10"/>
<path d="M590.18 73.9563H431.252V99.1329H590.18V73.9563Z" stroke="#F6F3F2" stroke-miterlimit="10"/>
<path d="M777.693 200.888H723.406V226.065H777.693V200.888Z" stroke="#F6F3F2" stroke-miterlimit="10"/>
<path d="M790 220H784V226H790V220Z" stroke="#F6F3F2" stroke-miterlimit="10"/>
<path d="M798 220H792V226H798V220Z" stroke="#F6F3F2" stroke-miterlimit="10"/>
<path d="M806 220H800V226H806V220Z" stroke="#F6F3F2" stroke-miterlimit="10"/>
<path d="M458 333H452V339H458V333Z" stroke="#F6F3F2" stroke-miterlimit="10"/>
<path d="M458 341H452V347H458V341Z" stroke="#F6F3F2" stroke-miterlimit="10"/>
<path d="M458 349H452V355H458V349Z" stroke="#F6F3F2" stroke-miterlimit="10"/>
<path d="M715 179H710V184H715V179Z" stroke="#F6F3F2" stroke-miterlimit="10"/>
<path d="M715 186H710V191H715V186Z" stroke="#F6F3F2" stroke-miterlimit="10"/>
<path d="M715 193H710V198H715V193Z" stroke="#F6F3F2" stroke-miterlimit="10"/>
<path d="M565.16 202.454L565.16 529" stroke="#E63312" stroke-width="2" stroke-miterlimit="10"/>
<path d="M255.137 210.987L255.137 529" stroke="#E63312" stroke-width="2" stroke-miterlimit="10"/>
<path d="M435.741 81.5212H440.92C443.298 81.5212 444.866 82.6836 444.866 84.7271C444.866 85.678 444.39 86.524 443.545 87.0874C444.866 87.5453 445.747 88.4789 445.747 90.0467C445.747 92.2837 444.179 93.4995 441.378 93.4995H435.741V81.5212ZM440.533 86.2948C441.678 86.2948 442.03 85.784 442.03 85.0266C442.03 84.2865 441.678 83.7761 440.533 83.7761H438.489V86.2948H440.533ZM441.273 91.2452C442.418 91.2452 442.911 90.7521 442.911 89.9066C442.911 89.0433 442.418 88.5502 441.273 88.5502H438.489V91.2457H441.273V91.2452Z" fill="#E63312"/>
<path d="M445.43 93.4463L449.781 87.1926L445.923 81.5735V81.5205H449.182L451.595 85.1669L454.009 81.5205H457.268V81.5735L453.41 87.1926L457.761 93.4463V93.4993H454.503L451.596 89.2188L448.689 93.4993H445.43V93.4463Z" fill="#E63312"/>
<path d="M457.303 87.5101C457.303 83.8815 459.874 81.2568 463.468 81.2568C467.062 81.2568 469.633 83.8815 469.633 87.5101C469.633 91.1387 467.062 93.7638 463.468 93.7638C459.874 93.7638 457.303 91.1387 457.303 87.5101ZM466.797 87.5101C466.797 85.3963 465.564 83.7934 463.468 83.7934C461.372 83.7934 460.139 85.3963 460.139 87.5101C460.139 89.6239 461.372 91.2268 463.468 91.2268C465.564 91.2268 466.797 89.6239 466.797 87.5101Z" fill="#E63312"/>
<path d="M470.039 91.1212H471.184C472.065 89.994 472.47 88.7431 472.593 86.2941L472.84 81.5205H481.208V91.1212H482.599V95.8948H479.851V93.4993H472.788V95.8948H470.04V91.1212H470.039ZM478.459 91.1212V83.8986H475.377L475.2 86.3119C475.024 88.7955 474.795 90.1524 474.196 91.1212H478.459Z" fill="#E63312"/>
<path d="M727.372 207.932H732.551C734.928 207.932 736.496 209.095 736.496 211.138C736.496 212.089 736.021 212.935 735.175 213.499C736.496 213.956 737.377 214.89 737.377 216.458C737.377 218.695 735.809 219.911 733.008 219.911H727.371V207.932H727.372ZM732.163 212.706C733.308 212.706 733.659 212.195 733.659 211.438C733.659 210.698 733.307 210.187 732.163 210.187H730.119V212.706H732.163ZM732.902 217.656C734.048 217.656 734.541 217.163 734.541 216.318C734.541 215.454 734.048 214.961 732.902 214.961H730.119V217.657H732.902V217.656Z" fill="#E63312"/>
<path d="M737.06 219.858L741.41 213.604L737.553 207.985V207.932H740.812L743.226 211.578L745.639 207.932H748.898V207.985L745.041 213.604L749.391 219.858V219.911H746.133L743.226 215.63L740.319 219.911H737.061V219.858H737.06Z" fill="#E63312"/>
<path d="M748.916 213.921C748.916 210.293 751.488 207.668 755.081 207.668C758.675 207.668 761.247 210.293 761.247 213.921C761.247 217.55 758.675 220.175 755.081 220.175C751.488 220.175 748.916 217.55 748.916 213.921ZM758.41 213.921C758.41 211.807 757.177 210.204 755.081 210.204C752.985 210.204 751.752 211.807 751.752 213.921C751.752 216.035 752.985 217.638 755.081 217.638C757.178 217.638 758.41 216.035 758.41 213.921Z" fill="#E63312"/>
<path d="M761.651 217.532H762.796C763.678 216.405 764.082 215.154 764.206 212.705L764.453 207.932H772.82V217.532H774.211V222.306H771.463V219.911H764.4V222.306H761.652V217.532H761.651ZM770.071 217.532V210.31H766.989L766.813 212.723C766.636 215.207 766.408 216.564 765.809 217.532H770.071Z" fill="#E63312"/>
<path d="M499.211 349.546H504.39C506.768 349.546 508.335 350.709 508.335 352.752C508.335 353.703 507.86 354.549 507.014 355.112C508.335 355.57 509.216 356.504 509.216 358.072C509.216 360.309 507.648 361.525 504.847 361.525H499.21V349.546H499.211ZM504.002 354.32C505.147 354.32 505.499 353.809 505.499 353.052C505.499 352.312 505.147 351.801 504.002 351.801H501.959V354.32H504.002ZM504.742 359.27C505.888 359.27 506.381 358.777 506.381 357.931C506.381 357.067 505.888 356.574 504.742 356.574H501.959V359.27H504.742Z" fill="#E63312"/>
<path d="M508.9 361.471L513.251 355.217L509.393 349.598V349.545H512.652L515.066 353.191L517.479 349.545H520.738V349.598L516.881 355.217L521.232 361.471V361.524H517.973L515.067 357.243L512.16 361.524H508.901V361.471H508.9Z" fill="#E63312"/>
<path d="M520.755 355.535C520.755 351.906 523.327 349.281 526.921 349.281C530.514 349.281 533.086 351.906 533.086 355.535C533.086 359.164 530.514 361.788 526.921 361.788C523.327 361.788 520.755 359.164 520.755 355.535ZM530.25 355.535C530.25 353.421 529.016 351.818 526.92 351.818C524.824 351.818 523.591 353.421 523.591 355.535C523.591 357.648 524.824 359.252 526.92 359.252C529.017 359.252 530.25 357.648 530.25 355.535Z" fill="#E63312"/>
<path d="M533.492 359.146H534.637C535.518 358.019 535.923 356.768 536.046 354.319L536.293 349.545H544.66V359.146H546.052V363.92H543.304V361.525H536.24V363.92H533.492V359.146H533.492ZM541.912 359.146V351.923H538.829L538.653 354.337C538.477 356.821 538.248 358.177 537.649 359.146H541.912Z" fill="#E63312"/>
<path d="M575 509.402H579.131V516.601H580.191L585.619 509.402H590.385V509.483L583.474 518.26L590.809 527.519V527.6H586.016L580.217 520.214H579.131V527.6H575V509.402Z" fill="white"/>
<path d="M589.988 518.5C589.988 512.987 593.854 509 599.256 509C604.658 509 608.524 512.987 608.524 518.5C608.524 524.013 604.658 528 599.256 528C593.854 528 589.988 524.013 589.988 518.5ZM604.261 518.5C604.261 515.289 602.407 512.854 599.256 512.854C596.105 512.854 594.251 515.289 594.251 518.5C594.251 521.711 596.105 524.146 599.256 524.146C602.407 524.146 604.261 521.711 604.261 518.5Z" fill="white"/>
<path d="M611.066 509.401H616.6L621.261 522.247L625.922 509.401H631.456V527.599H627.325V515.77L623.115 527.599H619.408L615.197 515.77V527.599H611.066L611.066 509.401Z" fill="white"/>
<path d="M634.951 509.401H647.927V513.014H639.082V516.6H646.629V520.213H639.082V523.986H647.927V527.599H634.951V509.401Z" fill="white"/>
<path d="M654.573 513.014H649.25V509.401H664.026V513.014H658.704V527.599H654.573L654.573 513.014Z" fill="white"/>
<path d="M669.216 509.401H674.142L681 527.599H676.737L675.465 524.12H667.892L666.621 527.599H662.357L669.216 509.401ZM669.216 520.507H674.142L671.679 513.764L669.216 520.507Z" fill="white"/>
<path d="M264.457 214.001C264.457 219.215 260.23 223.442 255.016 223.442C249.802 223.442 245.575 219.215 245.575 214.001C245.575 208.787 249.802 204.56 255.016 204.56C260.23 204.56 264.457 208.787 264.457 214.001Z" fill="white"/>
<path d="M590.3 144.973C590.891 145.564 590.891 146.52 590.3 147.11L537.218 200.192C536.627 200.783 535.67 200.783 535.079 200.192C534.489 199.6 534.489 198.642 535.079 198.052L588.161 144.973C588.457 144.678 588.845 144.53 589.232 144.53C589.618 144.53 590.005 144.678 590.3 144.973ZM581.794 168.347C581.496 168.007 581.078 167.836 580.659 167.836C580.304 167.835 579.947 167.96 579.659 168.214L538.12 204.819C537.493 205.373 537.432 206.327 537.987 206.955C538.538 207.581 539.494 207.642 540.122 207.089L581.661 170.481C582.288 169.93 582.348 168.973 581.794 168.347ZM532.824 215.999C536.563 212.257 536.563 206.193 532.824 202.45C529.082 198.708 523.016 198.708 519.274 202.45C515.534 206.19 515.534 212.257 519.274 215.999C523.016 219.74 529.082 219.74 532.824 215.999ZM566.928 153.479C566.64 153.226 566.283 153.1 565.929 153.1C565.509 153.1 565.093 153.272 564.793 153.612L528.186 195.15C527.635 195.778 527.694 196.733 528.321 197.285C528.948 197.839 529.902 197.778 530.456 197.15L567.063 155.615C567.614 154.988 567.553 154.03 566.928 153.479ZM547.109 161.577C546.828 161.343 546.488 161.231 546.15 161.231C545.713 161.231 545.279 161.418 544.98 161.782L514 199.407C511.673 202.263 510.509 205.747 510.51 209.224C510.509 213.196 512.03 217.184 515.061 220.214C518.095 223.249 522.087 224.768 526.061 224.767C529.533 224.767 533.018 223.601 535.862 221.279L573.491 190.296C574.137 189.764 574.229 188.811 573.697 188.166C573.166 187.519 572.212 187.428 571.567 187.959L533.944 218.939C531.66 220.804 528.864 221.74 526.061 221.741C522.848 221.739 519.651 220.523 517.2 218.074C514.755 215.629 513.539 212.432 513.537 209.225C513.537 206.418 514.471 203.619 516.342 201.326L547.317 163.708C547.847 163.061 547.754 162.108 547.109 161.577Z" fill="white"/>
<path d="M73 113.122L73 115.774L82.265 115.774V121.044H84.56L84.56 113.122L73 113.122Z" fill="#E63312"/>
<path d="M72.83 120.49C72.83 123.227 73.612 124.808 79.052 125.148L82.265 125.352V129.143H73V131.795H84.56V122.87L79.188 122.632C75.21 122.445 75.125 121.714 75.125 120.49H72.83Z" fill="#E63312"/>
<path d="M73 132.799V135.536L75.21 136.352V141.214L73 142.03L73 144.767L84.56 140.364L84.56 137.202L73 132.799ZM81.789 138.783L77.505 140.364V137.202L81.789 138.783Z" fill="#E63312"/>
<path d="M73 145.777L73 151.217C73 153.92 74.173 155.433 76.332 155.433C77.845 155.433 78.746 154.583 79.188 153.308C79.732 154.124 80.548 154.583 81.466 154.583C83.438 154.583 84.56 153.07 84.56 150.775V145.777H73ZM75.176 148.429H77.777V151.115C77.777 152.22 77.301 152.696 76.468 152.696C75.652 152.696 75.176 152.22 75.176 151.115L75.176 148.429ZM79.953 148.429H82.384V150.401C82.384 151.506 81.891 151.846 81.177 151.846C80.446 151.846 79.953 151.506 79.953 150.401V148.429Z" fill="#E63312"/>
<path d="M73 156.983L73 159.635H77.692L77.692 164.735H73V167.387H84.56V164.735H79.987L79.987 159.635H84.56V156.983H73Z" fill="#E63312"/>
<path d="M73 169.634L73 174.904C73 177.607 74.343 179.12 76.587 179.12C78.831 179.12 80.174 177.607 80.174 174.904V172.286H84.56V169.634H73ZM75.295 172.286H77.879V174.802C77.879 175.907 77.403 176.383 76.587 176.383C75.771 176.383 75.295 175.907 75.295 174.802L75.295 172.286ZM73 180.565L73 183.217H84.56L84.56 180.565H73Z" fill="#E63312"/>
<path d="M73 185.455L73 187.75L80.174 193.53H73V196.182H84.56V193.87L77.386 188.107H84.56V185.455H73ZM85.427 190.827C85.427 192.238 86.141 193.207 86.974 193.836L88.266 192.901C87.62 192.323 87.178 191.643 87.178 190.827C87.178 190.011 87.62 189.331 88.266 188.753L86.974 187.818C86.141 188.447 85.427 189.416 85.427 190.827Z" fill="#E63312"/>
<path d="M73 201.857L73 207.297C73 210 74.173 211.513 76.332 211.513C77.845 211.513 78.746 210.663 79.188 209.388C79.732 210.204 80.548 210.663 81.466 210.663C83.438 210.663 84.56 209.15 84.56 206.855L84.56 201.857H73ZM75.176 204.509H77.777V207.195C77.777 208.3 77.301 208.776 76.468 208.776C75.652 208.776 75.176 208.3 75.176 207.195L75.176 204.509ZM79.953 204.509H82.384V206.481C82.384 207.586 81.891 207.926 81.177 207.926C80.446 207.926 79.953 207.586 79.953 206.481V204.509Z" fill="#E63312"/>
<path d="M73 211.206L73 214.351L77.131 217.156L73 219.961V223.106H73.051L79.086 218.907L84.509 222.63H84.56V219.485L81.041 217.156L84.56 214.827V211.682H84.509L79.086 215.405L73.051 211.206H73Z" fill="#E63312"/>
<path d="M72.745 228.595C72.745 232.063 75.278 234.545 78.78 234.545C82.282 234.545 84.815 232.063 84.815 228.595C84.815 225.127 82.282 222.645 78.78 222.645C75.278 222.645 72.745 225.127 72.745 228.595ZM75.193 228.595C75.193 226.572 76.74 225.382 78.78 225.382C80.82 225.382 82.367 226.572 82.367 228.595C82.367 230.618 80.82 231.808 78.78 231.808C76.74 231.808 75.193 230.618 75.193 228.595Z" fill="#E63312"/>
<path d="M70.688 234.908L70.688 237.56H73L73 244.377H70.688L70.688 247.029H75.295V245.686H84.56V237.611L79.953 237.373C77.59 237.254 76.383 236.863 75.295 236.013V234.908H70.688ZM75.295 238.92C76.23 239.498 77.539 239.719 79.936 239.889L82.265 240.059V243.034H75.295V238.92Z" fill="#E63312"/>
<path d="M73 252.027L73 257.467C73 260.17 74.173 261.683 76.332 261.683C77.845 261.683 78.746 260.833 79.188 259.558C79.732 260.374 80.548 260.833 81.466 260.833C83.438 260.833 84.56 259.32 84.56 257.025V252.027H73ZM75.176 254.679L77.777 254.679L77.777 257.365C77.777 258.47 77.301 258.946 76.468 258.946C75.652 258.946 75.176 258.47 75.176 257.365V254.679ZM79.953 254.679H82.384V256.651C82.384 257.756 81.891 258.096 81.177 258.096C80.446 258.096 79.953 257.756 79.953 256.651L79.953 254.679Z" fill="#E63312"/>
<path d="M73 266.67L73 269.322L82.265 269.322V274.116H73V276.768H84.56L84.56 266.67H73Z" fill="#E63312"/>
<path d="M73 277.764L73 280.501L75.21 281.317L75.21 286.179L73 286.995V289.732L84.56 285.329V282.167L73 277.764ZM81.789 283.748L77.505 285.329L77.505 282.167L81.789 283.748Z" fill="#E63312"/>
<path d="M73 290.742V293.394L77.114 293.394V295.4C77.114 297.848 78.236 299.65 80.837 299.65C83.438 299.65 84.56 297.848 84.56 295.4L84.56 290.742H73ZM79.409 293.394H82.265V295.043C82.265 296.114 81.976 296.913 80.837 296.913C79.698 296.913 79.409 296.114 79.409 295.043V293.394Z" fill="#E63312"/>
<path d="M73 301.118V303.77L77.692 303.77V304.467L73 308.19V311.267H73.051L78.933 306.558L84.509 310.995H84.56V307.935L79.987 304.45V303.77H84.56V301.118H73Z" fill="#E63312"/>
<path d="M174 149.559L174 154.999C174 157.702 175.173 159.215 177.332 159.215C178.845 159.215 179.746 158.365 180.188 157.09C180.732 157.906 181.548 158.365 182.466 158.365C184.438 158.365 185.56 156.852 185.56 154.557L185.56 149.559L174 149.559ZM176.176 152.211H178.777V154.897C178.777 156.002 178.301 156.478 177.468 156.478C176.652 156.478 176.176 156.002 176.176 154.897L176.176 152.211ZM180.953 152.211H183.384V154.183C183.384 155.288 182.891 155.628 182.177 155.628C181.446 155.628 180.953 155.288 180.953 154.183V152.211Z" fill="#E63312"/>
<path d="M174 158.907L174 162.052L178.131 164.857L174 167.662V170.807H174.051L180.086 166.608L185.509 170.331H185.56V167.186L182.041 164.857L185.56 162.528V159.383H185.509L180.086 163.106L174.051 158.907H174Z" fill="#E63312"/>
<path d="M173.745 176.296C173.745 179.764 176.278 182.246 179.78 182.246C183.282 182.246 185.815 179.764 185.815 176.296C185.815 172.828 183.282 170.346 179.78 170.346C176.278 170.346 173.745 172.828 173.745 176.296ZM176.193 176.296C176.193 174.273 177.74 173.083 179.78 173.083C181.82 173.083 183.367 174.273 183.367 176.296C183.367 178.319 181.82 179.509 179.78 179.509C177.74 179.509 176.193 178.319 176.193 176.296Z" fill="#E63312"/>
<path d="M171.688 182.609L171.688 185.261H174L174 192.078H171.688L171.688 194.73H176.295V193.387H185.56V185.312L180.953 185.074C178.59 184.955 177.383 184.564 176.295 183.714V182.609H171.688ZM176.295 186.621C177.23 187.199 178.539 187.42 180.936 187.59L183.265 187.76V190.735H176.295V186.621Z" fill="#E63312"/>
<path d="M174 199.729V202.381H178.692V207.481H174V210.133H185.56V207.481H180.987V202.381H185.56V199.729H174Z" fill="#E63312"/>
<path d="M174 211.138V213.875L176.21 214.691V219.553L174 220.369L174 223.106L185.56 218.703L185.56 215.541L174 211.138ZM182.789 217.122L178.505 218.703V215.541L182.789 217.122Z" fill="#E63312"/>
<path d="M174 227.104V229.756H178.692V230.453L174 234.176V237.253H174.051L179.933 232.544L185.509 236.981H185.56V233.921L180.987 230.436V229.756H185.56V227.104H174Z" fill="#E63312"/>
<path d="M174 236.937L174 239.674L176.21 240.49L176.21 245.352L174 246.168L174 248.905L185.56 244.502V241.34L174 236.937ZM182.789 242.921L178.505 244.502L178.505 241.34L182.789 242.921Z" fill="#E63312"/>
<path d="M174 251.235V253.887H183.265V257.304H185.56V247.818H183.265V251.235H174Z" fill="#E63312"/>
<path d="M173.745 263.471C173.745 266.939 176.278 269.421 179.78 269.421C183.282 269.421 185.815 266.939 185.815 263.471C185.815 260.003 183.282 257.521 179.78 257.521C176.278 257.521 173.745 260.003 173.745 263.471ZM176.193 263.471C176.193 261.448 177.74 260.258 179.78 260.258C181.82 260.258 183.367 261.448 183.367 263.471C183.367 265.494 181.82 266.684 179.78 266.684C177.74 266.684 176.193 265.494 176.193 263.471Z" fill="#E63312"/>
<path d="M174 271.049V273.701H178.692V274.398L174 278.121V281.198H174.051L179.933 276.489L185.509 280.926H185.56V277.866L180.987 274.381V273.701H185.56V271.049H174Z" fill="#E63312"/>
<path d="M263.716 502.68H267.226L276.066 491.708V502.68H280.122V485H276.586L267.772 495.972V485H263.716V502.68Z" fill="white"/>
<path d="M283.546 502.68H287.602V495.504H295.402V502.68H299.458V485H295.402V491.994H287.602V485H283.546V502.68Z" fill="white"/>
<path d="M306.716 502.68H310.772V488.51H315.998V485H301.49V488.51H306.716V502.68Z" fill="white"/>
<path d="M318.027 502.68H330.767V499.17H322.083V495.504H329.493V491.994H322.083V488.51H330.767V485H318.027V502.68Z" fill="white"/>
<path d="M333.464 502.68H337.52V496.388H340.588C344.332 496.388 347.088 494.672 347.088 490.694C347.088 486.716 344.332 485 340.588 485H333.464V502.68ZM337.52 492.878V488.51H340.042C341.68 488.51 342.902 488.952 342.902 490.694C342.902 492.436 341.68 492.878 340.042 492.878H337.52Z" fill="white"/>
<path d="M346.039 502.68H350.225L351.473 499.3H358.909L360.157 502.68H364.343L357.609 485H352.773L346.039 502.68ZM355.191 489.238L357.609 495.79H352.773L355.191 489.238Z" fill="white"/>
<path d="M365.888 502.68H369.944V495.504H371.01L376.704 502.68H381.41V502.602L374.208 493.606L380.994 485.078V485H376.314L370.984 491.994H369.944V485H365.888V502.68Z" fill="white"/>
<path d="M386.646 502.68H390.702V488.51H395.928V485H381.42V488.51H386.646V502.68Z" fill="white"/>
<path d="M397.956 502.68H401.466L410.306 491.708V502.68H414.362V485H410.826L402.012 495.972V485H397.956V502.68Z" fill="white"/>
<path d="M417.786 502.68H426.106C430.24 502.68 432.554 500.886 432.554 497.584C432.554 495.27 431.254 493.892 429.304 493.216C430.552 492.384 431.254 491.136 431.254 489.732C431.254 486.716 428.94 485 425.43 485H417.786V502.68ZM421.842 499.352V495.374H425.95C427.64 495.374 428.368 496.102 428.368 497.376C428.368 498.624 427.64 499.352 425.95 499.352H421.842ZM421.842 492.046V488.328H424.858C426.548 488.328 427.068 489.082 427.068 490.174C427.068 491.292 426.548 492.046 424.858 492.046H421.842Z" fill="white"/>
<path d="M434.925 502.68H438.981V495.504H446.781V502.68H450.837V485H446.781V491.994H438.981V485H434.925V502.68Z" fill="white"/>
<path d="M452.375 502.68H456.561L457.809 499.3H465.245L466.493 502.68H470.679L463.945 485H459.109L452.375 502.68ZM461.527 489.238L463.945 495.79H459.109L461.527 489.238Z" fill="white"/>
<path d="M486.264 485H478.074C474.668 485 472.172 487.08 472.172 490.408C472.172 492.93 473.602 494.75 475.786 495.478L470.378 502.602V502.68H475.188L480.102 495.816H482.208V502.68H486.264V485ZM478.516 492.306C477.086 492.306 476.358 491.578 476.358 490.408C476.358 489.238 477.086 488.51 478.516 488.51H482.208V492.306H478.516Z" fill="white"/>
<path d="M270.866 528.538H274.922V526.25C280.096 525.99 283.294 523.13 283.294 518.762C283.294 514.394 280.096 511.534 274.922 511.274V509.168H270.866V511.274C265.692 511.534 262.494 514.394 262.494 518.762C262.494 523.13 265.692 525.99 270.866 526.25V528.538ZM270.866 523.026C267.928 522.766 266.68 521.206 266.68 518.762C266.68 516.318 267.928 514.758 270.866 514.498V523.026ZM274.922 514.498C277.86 514.758 279.108 516.318 279.108 518.762C279.108 521.206 277.86 522.766 274.922 523.026V514.498Z" fill="white"/>
<path d="M293.665 528.07C298.969 528.07 302.765 524.196 302.765 518.84C302.765 513.484 298.969 509.61 293.665 509.61C288.361 509.61 284.565 513.484 284.565 518.84C284.565 524.196 288.361 528.07 293.665 528.07ZM293.665 524.326C290.571 524.326 288.751 521.96 288.751 518.84C288.751 515.72 290.571 513.354 293.665 513.354C296.759 513.354 298.579 515.72 298.579 518.84C298.579 521.96 296.759 524.326 293.665 524.326Z" fill="white"/>
<path d="M308.315 527.68H312.371V513.51H317.597V510H303.089V513.51H308.315V527.68Z" fill="white"/>
<path d="M327.029 528.07C332.333 528.07 336.129 524.196 336.129 518.84C336.129 513.484 332.333 509.61 327.029 509.61C321.725 509.61 317.929 513.484 317.929 518.84C317.929 524.196 321.725 528.07 327.029 528.07ZM327.029 524.326C323.935 524.326 322.115 521.96 322.115 518.84C322.115 515.72 323.935 513.354 327.029 513.354C330.123 513.354 331.943 515.72 331.943 518.84C331.943 521.96 330.123 524.326 327.029 524.326Z" fill="white"/>
<path d="M343.516 528.07C347.884 528.07 351.368 526.042 351.368 522.636C351.368 520.582 350.25 518.944 348.196 518.268C349.548 517.41 350.354 516.032 350.354 514.68C350.354 511.508 347.91 509.61 343.646 509.61C340.916 509.61 338.706 510.936 337.432 512.444L339.772 514.94C340.474 514.108 341.592 513.25 343.646 513.25C345.18 513.25 346.298 513.9 346.298 514.992C346.298 516.006 345.492 516.864 343.568 516.864H341.644V520.322H343.568C346.064 520.322 347.312 520.946 347.312 522.272C347.312 523.702 345.752 524.43 343.516 524.43C341.202 524.43 339.72 523.312 338.81 522.376L336.522 525.132C337.77 526.432 340.11 528.07 343.516 528.07Z" fill="white"/>
<path d="M361.966 528.07C367.27 528.07 371.066 524.196 371.066 518.84C371.066 513.484 367.27 509.61 361.966 509.61C356.662 509.61 352.866 513.484 352.866 518.84C352.866 524.196 356.662 528.07 361.966 528.07ZM361.966 524.326C358.872 524.326 357.052 521.96 357.052 518.84C357.052 515.72 358.872 513.354 361.966 513.354C365.06 513.354 366.88 515.72 366.88 518.84C366.88 521.96 365.06 524.326 361.966 524.326Z" fill="white"/>
<path d="M373.556 527.68H377.612V520.504H385.412V527.68H389.468V510H385.412V516.994H377.612V510H373.556V527.68Z" fill="white"/>
<path d="M391.006 527.68H395.192L396.44 524.3H403.876L405.124 527.68H409.31L402.576 510H397.74L391.006 527.68ZM400.158 514.238L402.576 520.79H397.74L400.158 514.238Z" fill="white"/>
</svg>
