<svg fill="none" height="104" viewBox="0 0 104 104" width="104" xmlns="http://www.w3.org/2000/svg"><circle cx="52" cy="52" fill="#e4dcd3" r="52"/><g stroke="#666" stroke-width="2"><path d="m37.5 57h-6.8534c-.3935 0-.7505.2308-.9119.5896l-8.1 18c-.2978.6618.1862 1.4104.9119 1.4104h58.9068c.7257 0 1.2097-.7486.9119-1.4104l-8.1-18c-.1614-.3588-.5184-.5896-.9119-.5896h-6.8534"/><path d="m47.7693 19h8.4614l12.5924 47.4635c-1.7062.746-6.8391 2.5365-16.8231 2.5365-9.9839 0-15.1169-1.7905-16.8231-2.5365z"/><path d="m45 30s4.1569 1 7 1 7-1 7-1"/><path d="m43 39s5.3995 1 9 1 9-1 9-1"/><path d="m40 49s7.2491 2 12 2 12-2 12-2"/><path d="m38 58s8.4772 2 14 2 14-2 14-2"/></g></svg>