<svg fill="none" height="104" viewBox="0 0 104 104" width="104" xmlns="http://www.w3.org/2000/svg"><circle cx="52" cy="52" fill="#e4dcd3" r="52"/><g stroke="#666" stroke-width="2"><path d="m51 29.5v19.5c0 .5523-.4477 1-1 1h-28c-.5523 0-1 .4477-1 1v15c0 .5523.4477 1 1 1h6m32-11.5v-18.5c0-.5523.4477-1 1-1h16.9044c.367 0 .7045.201.8793.5237l6.2163 11.4763v18c0 .5523-.4477 1-1 1h-6m-36 0h22"/><circle cx="35" cy="66" r="7"/><circle cx="71" cy="66" r="7"/><path d="m85 48h-17.5"/><path d="m24 40.5 1.5-3.5v-10.0858c0-.8909 1.0771-1.3371 1.7071-.7071l15.2929 15.2929"/></g></svg>