<svg fill="none" height="63" viewBox="0 0 63 63" width="63" xmlns="http://www.w3.org/2000/svg"><g stroke="#666" stroke-width="2"><path d="m57 39v10h-25.6809c-.2076 0-.41.0646-.5792.1848l-17.1607 12.1931c-.6621.4705-1.5792-.0029-1.5792-.8151v-10.5628c0-.5523-.4477-1-1-1h-10v-42h37"/><path d="m26 36v-21c0-.5523.4477-1 1-1h9m0 0v21h13.1262c5.7835 0 10.7441-4.1252 11.7988-9.8118l.9786-5.2764c.5701-3.0743-1.7895-5.9118-4.9162-5.9118h-4.9874c-.5523 0-1-.4477-1-1v-7c0-2.76142-2.2386-5-5-5h-1.1429c-1.0256 0-1.8571.83147-1.8571 1.85714v4.14286c0 3.866-3.134 7-7 7z"/></g></svg>