<svg fill="none" height="58" viewBox="0 0 62 58" width="62" xmlns="http://www.w3.org/2000/svg"><g stroke="#666" stroke-width="2"><path d="m29 57c-15.464 0-28-12.536-28-28 0-11.3335 6.73359-21.09431 16.4184-25.5m39.0816 20.2048c-2.4145-12.6148-13.2936-22.22326-26.4991-22.68724-.5519-.019396-1.0009.43016-1.0009.98244v12.5"/><path d="m36.4705 58c0-7.732 5.1619-14 11.5294-14s11.5294 6.268 11.5294 14"/><path d="m59.5295 30c0 7.732-5.1619 14-11.5294 14s-11.5294-6.268-11.5294-14"/><path d="m34 29h28"/><path d="m34 57h28"/><path d="m17.4136 3.50205c1.8337-.83458 3.7733-1.47717 5.7931-1.90207"/><path d="m17 17.5 10.2521 11.6502c.482.5477.7479 1.2523.7479 1.9818v11.368"/></g></svg>