<svg fill="none" height="40" viewBox="0 0 45 40" width="45" xmlns="http://www.w3.org/2000/svg"><g fill="#66645f"><path d="m22.4265 38.0317c-2.5166-.0056-4.9414-.4932-7.2068-1.4492-2.1859-.9226-4.1408-2.2439-5.81058-3.9273-1.66509-1.6788-2.96894-3.6391-3.87534-5.8264-.93482-2.256-1.40601-4.6606-1.40043-7.147.00546-4.9308 1.89722-9.5285 5.32681-12.94626 3.41754-3.4058 8.03474-5.32085 13.00124-5.39243 4.9628.06604 9.58 1.98159 12.9996 5.3938 3.4295 3.42219 5.3213 8.02349 5.3267 12.95619.0028 2.5024-.4748 4.9184-1.4196 7.1808-.9132 2.1869-2.2251 4.1455-3.8991 5.8214-1.6754 1.6773-3.6346 2.9924-5.8231 3.9089-2.2618.9472-4.6762 1.4275-7.1764 1.4275zm-.0117-35.79878c-9.5973.02276-17.41448 7.85028-17.42579 17.44868-.01143 9.7121 7.64769 17.4016 17.43679 17.5058 9.8171-.0693 17.5063-7.7537 17.5063-17.4943 0-9.6276-7.8295-17.46028-17.4533-17.46028-.0219-.00002-.0421.00002-.064.0001z"/><path d="m34.5776 18.652c-.2119 0-.4399-.0649-.6777-.193-.719-.3859-1.4481-.7861-2.1532-1.173-.815-.4474-1.6579-.91-2.4942-1.3556-2.2576-1.2033-4.5467-1.8134-6.8038-1.8134-2.2357 0-4.4977.5986-6.7233 1.7791-.92.4835-1.8468.9909-2.7431 1.4817-.6236.3414-1.2685.6944-1.9043 1.0357-.2504.1353-.5099.2068-.7505.2068-.51876 0-.90613-.315-1.03624-.8427-.03013-.1204-.03382-.2703-.01044-.4222.48438-2.7448 1.76838-5.2241 3.71298-7.1687 1.947-1.94698 4.4278-3.22894 7.1744-3.70727.4838-.06493.9862-.09835 1.4721-.13067.2773-.01846.5641-.03755.8451-.06229 1.5954.01698 3.1517.3014 4.6258.84542 1.4374.53042 2.7605 1.29353 3.9326 2.26812 1.1728.97519 2.1596 2.13319 2.9329 3.44189.7945 1.3443 1.3426 2.8136 1.6294 4.3671.1074.5728-.0227.956-.4217 1.2425-.1871.133-.3914.2005-.6068.2005zm-12.1346-11.52037c-2.3409 0-4.6336.66832-6.6303 1.9327-3.1054 1.98747-5.0184 4.85117-5.686 8.51157l-.0061.0331.0262.0209c.0284.0228.0597.0483.0909.0739.0314.0257.0628.0514.0914.0742l.0281.0225.0322-.0161c.0904-.0452.1827-.0885.272-.1303.0899-.0422.1829-.0857.2747-.1317.5664-.3055 1.1378-.6213 1.6904-.9267.9967-.5508 2.0273-1.1204 3.0597-1.6476 2.2284-1.1424 4.5008-1.7217 6.7542-1.7217 1.861 0 3.7419.3959 5.5906 1.1767 1.4135.598 2.7818 1.3578 4.1051 2.0926.6144.3412 1.2497.694 1.8817 1.0262.1162.062.2438.114.3671.1644.0606.0247.1233.0503.1833.0766l.0352.0153.1844-.1844-.005-.0287c-.5736-3.3273-2.2404-6.0219-4.954-8.00886-2.1826-1.58623-4.7365-2.42461-7.3858-2.42461z"/><path d="m25.5772 32.6271c-.4177 0-.7581-.1408-.9845-.4073-.2842-.3346-.38-.8427-.2772-1.4693.1593-.9839.2903-1.9869.417-2.9569.028-.2144.056-.4291.0844-.6441.1691-1.2927.8098-2.4904 1.804-3.3723.9948-.8825 2.26-1.3745 3.5624-1.3854h1.6397c.217 0 .436-.0013.6478-.0025.2105-.0012.4281-.0026.6422-.0026.2404 0 .4515.0017.6453.0051.5127.0053.9283.1985 1.1706.5441.2477.3533.2867.8252.11 1.3287-.5248 1.5074-1.3337 2.8961-2.4041 4.1277-.8683.9996-1.8377 1.8517-2.8814 2.5326-1.0673.6963-2.2425 1.2334-3.4931 1.5962-.2422.0704-.472.106-.6829.1061-.0001-.0001-.0002-.0001-.0002-.0001zm5.3772-9.4417c-.1773 0-.3333.0017-.4768.0051-2.4235.0468-4.3896 1.6068-4.7809 3.7936-.213 1.1969-.3658 2.4172-.5136 3.5972-.0187.1496-.0374.2993-.0563.4492-.0377.2795.0004.4869.1133.616.0849.0971.2083.1463.3668.1463.1036 0 .2234-.0215.3559-.0639 3.9547-1.2494 6.7181-3.8243 8.2134-7.653.104-.2694.1072-.4815.0094-.6307-.0979-.1494-.2942-.2312-.5834-.2433-.2098-.0128-.4406-.0188-.7251-.0188-.1617 0-.3267.0019-.4862.0037-.16.0018-.3255.0037-.4882.0037-.1597 0-.3206-.0013-.4762-.0025-.1546-.0013-.3146-.0026-.4721-.0026z"/><path d="m19.311 32.6264c-.1959 0-.4034-.0316-.6165-.0938-1.6055-.4732-3.0561-1.1954-4.3114-2.1464-1.2502-.9471-2.3373-2.1445-3.2312-3.5588-.4352-.6925-.8319-1.4967-1.24823-2.5309-.19978-.4918-.17942-.9583.05729-1.3136.24664-.3702.71334-.5856 1.28064-.591h1.8765l3.1353.2612c1.096.3332 1.9808.8975 2.6298 1.6775.6355.7637 1.05 1.7394 1.232 2.9.1151.7307.2197 1.4774.3209 2.1996.069.4928.1405 1.0024.2144 1.5017.0723.5059-.0346.9538-.301 1.261-.2425.2795-.6113.4335-1.0385.4335zm-7.8893-9.4358c-.3718.0124-.5937.0925-.6986.252-.1046.1591-.0906.393.0442.736 1.5105 3.7593 4.2432 6.2918 8.1222 7.5276.161.0528.3024.0796.4197.0796h.0001c.1594 0 .2825-.0489.366-.1454.1223-.1413.1573-.3783.107-.7248-.0515-.3721-.1052-.7492-.1572-1.1138-.0972-.6824-.1978-1.388-.2869-2.0858-.3036-2.3587-1.7342-3.999-3.827-4.3878-.5559-.1018-1.1358-.1237-1.6966-.145-.2603-.0098-.5295-.02-.7929-.0381l-.0027-.0001z"/><path d="m22.4598 23.4189c-.0224 0-.0445-.0002-.067-.0005-1.0155-.0163-1.9476-.4038-2.6246-1.0909-.6771-.6873-1.044-1.6185-1.0331-2.6223.0162-1.0484.4026-1.9992 1.0879-2.6771.684-.6763 1.6324-1.0488 2.6708-1.0488h.0231c2.0848.0225 3.6571 1.6239 3.6571 3.7253-.0053 1.0314-.3838 1.9751-1.0657 2.657-.6818.6818-1.6224 1.0573-2.6485 1.0573zm-.0114-6.6181c-.7413.0056-1.4901.3425-2.0545.9243-.5559.5731-.8653 1.3158-.8487 2.0377.0461 1.5224 1.3981 2.8575 2.8934 2.8575.019 0 .038-.0002.0571-.0006 1.5515-.0471 2.8916-1.4203 2.8682-2.9388-.023-1.5074-1.4035-2.8802-2.8964-2.8802z"/></g></svg>