<svg fill="none" height="37" viewBox="0 0 37 37" width="37" xmlns="http://www.w3.org/2000/svg"><path d="m18.6595 36.3174c-.0605 0-.124-.0138-.1788-.0387l-.003-.0014-.0032-.0012c-.0574-.0221-.1119-.0586-.1618-.1085l-6.0908-6.0909c-.1929-.1929-.193-.5069 0-.6998.0936-.0936.2178-.1452.3498-.1452s.2562.0516.3499.1452l5.2414 5.2414v-11.1166l-.1002-.0111c-1.2001-.1327-2.3352-.6799-3.196-1.5407-.8608-.8609-1.408-1.9959-1.5407-3.1961l-.0111-.1001h-11.12265l5.24744 5.2475c.09364.0936.14519.2179.14519.3499 0 .1315-.05117.2553-.14418.3488-.10015.0947-.22251.1447-.35393.1447-.13147 0-.25384-.05-.35397-.1448l-6.08978-6.0898c-.047387-.0473-.083264-.1012-.109735-.1647-.049074-.1179-.049074-.2585.000019-.3764l.001152-.0029c.022125-.0575.058637-.1119.108544-.1618l6.09089-6.0909c.09364-.0936.21788-.1452.34986-.1452s.25622.0516.34986.1452c.09365.0937.1452.2179.1452.3499s-.05157.2562-.1452.3499l-5.24136 5.2414h11.12275l.011-.1002c.1327-1.2001.6799-2.3352 1.5407-3.196.8609-.8608 1.9959-1.408 3.196-1.5407l.1002-.0111v-11.11692l-5.2404 5.2467c-.1001.09468-.2225.14474-.3539.14474s-.2538-.05002-.3539-.1447c-.093-.09352-.1442-.21735-.1442-.34885 0-.13196.0516-.25621.1452-.34987l6.0908-6.090875c.0474-.047367.1012-.0832446.1647-.1096765.0582-.0242492.1232-.0370485.1882-.0370485s.1301.0128192.1882.0370485l.0029.0011707c.0574.0220862.1119.0585988.1618.1085258l6.0909 6.090875c.0936.09366.1452.21789.1452.34987 0 .1315-.0512.25533-.1443.34885-.1001.09468-.2224.1447-.3538.1447-.1329 0-.255-.05179-.3529-.14978l-5.2414-5.24144v11.12278l.1001.0111c1.2002.1327 2.3352.6799 3.196 1.5407.8609.8609 1.408 1.9959 1.5407 3.196l.0111.1002h11.1164l-5.2411-5.2475c-.0937-.0937-.1452-.2179-.1452-.3499s.0515-.2562.1452-.3498c.0936-.0937.2178-.1452.3498-.1452s.2562.0515.3499.1452l6.0908 6.0909c.0474.0473.0833.1012.1097.1647.0491.1178.0491.2585 0 .3764-.0251.0601-.0607.1163-.1057.1668l-6.0877 6.0877c-.1001.0947-.2225.1447-.3539.1447-.1319 0-.2543-.0524-.3448-.1477l-.0021-.002c-.1929-.193-.1929-.5068 0-.6998l5.2414-5.2414h-11.1227l-.0111.1002c-.1327 1.2001-.6799 2.3352-1.5407 3.196s-1.9958 1.408-3.196 1.5407l-.1001.0111v11.1164l5.2474-5.2411c.0937-.0937.2179-.1452.3499-.1452.1319 0 .2562.0515.3499.1452.0936.0936.1452.2178.1452.3498s-.0516.2562-.1452.3499l-6.0909 6.0909c-.0474.0474-.1013.0833-.1647.1097-.0629.0262-.128.0401-.1882.0401zm0-22.5364c-2.413 0-4.3761 1.9632-4.3761 4.3762s1.9631 4.3761 4.3761 4.3761 4.3761-1.9632 4.3761-4.3761c0-2.4131-1.9631-4.3762-4.3761-4.3762z" fill="#66645f"/></svg>