<svg fill="none" height="29" viewBox="0 0 32 29" width="32" xmlns="http://www.w3.org/2000/svg"><path d="m12.332 13.0204c.16.281.601.24.721-.08l.761-2.004c.121-.281-.12-.562-.4-.562l-.521.041c0-2.60404 2.123-4.72704 4.728-4.72704v.56c0 .281.279.521.561.401l1.963-.841c.32-.12.32-.561.039-.721l-1.842-1.082c-.24-.16-.602.04-.602.321l-.039.601h-.042c-3.084 0-5.568 2.483-5.568 5.56804v.039l-.601.041c-.28.04-.481.36-.321.601z" fill="#66645f"/><path d="m30.585 3.42727c-1.529-1.803-2.867-2.609002-3.98-2.393-.518.1-1.217.474-1.604 1.662l-4.695 14.12803c-.111.318-.406.539-.742.557l-15.15499-2.598h-.141c-1.799-.006-3.262 1.449-3.268 3.248-.001001.434.084.863.251 1.266l2.002 4.73c.925 2.195 3.075 3.621 5.456 3.619h12.98499c1.07.002 2.021-.682 2.363-1.697l6.893-20.54703c.231-.678.092-1.426-.365-1.975z" stroke="#66645f" stroke-linecap="round" stroke-linejoin="round" stroke-width="1.3"/></svg>