<svg fill="none" height="35" viewBox="0 0 35 35" width="35" xmlns="http://www.w3.org/2000/svg"><g fill="#66645f"><path d="m25.1388 32.315c-.1851 0-.3502-.1034-.4309-.2697-.0557-.1149-.0633-.2447-.0215-.3654.0419-.1207.1282-.2179.2431-.2737 6.6366-3.3138 10.128-10.6814 8.4915-17.9173-1.6361-7.23362-7.9576-12.37949-15.3727-12.51377-.0989-.001806-.1951-.002659-.2939-.002659-7.2778 0-13.66092 4.915739-15.52268 11.954129-1.896797 7.1706 1.32606 14.6585 7.83738 18.2092.1124.0611.1942.1624.2303.285.0362.1227.0225.2521-.0386.3643-.084.1542-.2453.25-.42104.25-.07921 0-.15817-.0202-.2283-.0583-1.68894-.9211-3.19642-2.1094-4.48051-3.5319-1.25154-1.3866-2.26151-2.9618-3.00184-4.6819s-1.190066-3.5365-1.336711-5.3987c-.150475-1.9106.022702-3.8225.514711-5.6825.48555-1.8356 1.2663-3.56234 2.3206-5.13215 1.02757-1.53003 2.29117-2.87706 3.7557-4.00365 1.46349-1.12579 3.08839-2.00132 4.82959-2.602263 1.7841-.61579 3.6488-.928051 5.5421-.928051.1028 0 .207.0009525.3099.0028178 1.9235.0348257 3.8097.3904452 5.6062 1.0569962 1.7512.6497 3.3754 1.57841 4.8277 2.76034 1.4523 1.18199 2.6915 2.58381 3.6832 4.16648 1.0175 1.62393 1.7486 3.39888 2.1731 5.27548.4244 1.8767.5284 3.7937.3089 5.6978-.2139 1.8558-.729 3.6549-1.5311 5.3472-.802 1.6925-1.8683 3.2302-3.1692 4.5706-1.3346 1.3753-2.8841 2.5084-4.6053 3.3677l-.0026.0014c-.0028.0014-.0056.0029-.0085.0042-.0662.0321-.1362.0483-.2086.0483z"/><path d="m24.3676 34.6422v-5.7925c-.0004-1.93-.8342-3.7475-2.2918-5.0048l.6127-.7342c.8069.6939 1.4698 1.5662 1.9211 2.5293.4671.9972.7142 2.1063.7144 3.2074v5.7948z"/><path d="m9.60104 34.6421v-5.7948c.00131-1.0998.2489-2.2076.71596-3.2035.4512-.962 1.1136-1.8332 1.9195-2.5262l.6129.7362c-1.4546 1.2548-2.2885 3.0689-2.292 4.9956v5.7927z"/><path d="m13.6232 32.2793c-.4399 0-.8557-.1735-1.1708-.4887-.3152-.3152-.4887-.731-.4887-1.171v-5.9072c0-2.8696 2.3343-5.2042 5.2035-5.2042h.5907c2.8692 0 5.2035 2.3346 5.2035 5.2042v5.9072c0 .44-.1735.8558-.4887 1.171-.3151.3152-.7309.4887-1.1708.4887zm3.544-11.8145c-2.3419 0-4.2471 1.9054-4.2471 4.2476v5.9072c0 .3944.3088.7034.7031.7034h7.6787c.3943 0 .7032-.309.7032-.7034v-5.9072c0-2.3422-1.9053-4.2476-4.2472-4.2476z"/></g></svg>