<svg fill="none" height="40" viewBox="0 0 45 40" width="45" xmlns="http://www.w3.org/2000/svg"><g fill="#66645f"><path d="m14.4194 4.80687c-.9447.97506-1.4586 2.31916-1.4862 3.88762l-.0003.01384c-.0087.26979-.0167.83631-.0239 1.68377-.009 1.0548-.0168 2.5658-.0233 4.4909-.0187 5.5243-.0237 13.3687-.0273 19.0965 0 0-.0006.8681-.001 1.5566h-.0003v.8335h9.9275v-.8321l.0362-31.76272.0044-.04738c.0009-.01068.0015-.02092.0016-.03199 0-.00004 0-.00012 0-.00016.0007-.21786-.2589-.28565-.3678-.29464-.141.00337-.3806-.00228-.9433-.01562l-.0081-.00019c-.7792-.01838-1.9564-.04612-3.4147-.06202-1.471.00856-2.7412.52171-3.6735 1.48409zm7.5066 30.72923h-8.1362c.0107-7.6806.0468-22.4344.0596-26.22385.0005-.16814.0013-.3732.0018-.48357.0002-.0431.0003-.0812.0003-.0812.0164-1.14917.3564-2.20948.9573-2.98567.5327-.68796 1.5339-1.50302 3.2795-1.47966.5116-.00137.9899.00722 1.412.01478l.0044.00008c.5168.00927.9631.01725 1.3437.00619l1.0714-.03099z"/><path d="m29.06 35.9957-.5731-.7554c3.4887-2.6471 5.2599-6.9803 4.6223-11.3085-.4883-3.3145-2.3593-6.2949-5.1334-8.177l.5324-.7846c1.4691.9967 2.6967 2.2577 3.6486 3.7478.9855 1.5427 1.6216 3.2504 1.8904 5.0756.3441 2.3354.0458 4.7146-.8626 6.8803-.8824 2.1036-2.3086 3.9438-4.1246 5.3218z"/><path d="m28.3265 20.4337.9356-.1589-.7883-4.6081 4.654-.4496-.0921-.9445-5.6679.5487z"/><path d="m28.5862 30.5487.9427.1087-.5407 4.6437 4.6714.2-.0415.9481-5.6891-.2447z"/></g></svg>