<svg enable-background="new 0 0 135 40" height="40" viewBox="0 0 135 40" width="135" xmlns="http://www.w3.org/2000/svg" xmlns:xlink="http://www.w3.org/1999/xlink"><clipPath id="a"><path d="m12.427 9.535v12.124 12.37c0 .294.129.494.332.561l13.041-12.931-12.933-12.823c-.26.073-.44.309-.44.699"/></clipPath><linearGradient id="b" gradientTransform="matrix(0 152.4785 152.4785 0 -441323.4688 180464.875)" gradientUnits="userSpaceOnUse" x1="-1183.4883" x2="-1183.3143" y1="2894.457" y2="2894.457"><stop offset="0" stop-color="#207ab0"/><stop offset=".3206" stop-color="#4a98b5"/><stop offset=".7782" stop-color="#81c0bb"/><stop offset="1" stop-color="#97cfbe"/></linearGradient><clipPath id="c"><path d="m12.867 8.836 12.932 12.822 3.592-3.561-5.398-3.117s-.01-.005-.028-.016h-.002c-.004-.003-.008-.006-.013-.009h-.002c-.003-.002-.008-.004-.012-.007l-.002-.001c0-.001-.001-.001-.002-.002l-.003-.002c-.001 0-.002 0-.002 0l-.003-.002s0 0 0-.001l-.004-.002c-.001 0-.002-.001-.003-.002l-10.367-5.984c-.172-.094-.343-.14-.497-.14-.065 0-.128.008-.186.024"/></clipPath><linearGradient id="d" gradientTransform="matrix(97.541 0 0 -97.541 113521.6328 283843.9063)" gradientUnits="userSpaceOnUse" x1="-1163.707" x2="-1163.5331" y1="2909.8398" y2="2909.8398"><stop offset="0" stop-color="#59bbaa"/><stop offset="1" stop-color="#e6e89a"/></linearGradient><clipPath id="e"><path d="m12.758 34.589c.152.052.347.027.558-.088l1.509-.872c2.941-1.698 9.167-5.293 9.167-5.293l2.699-1.558 2.699-1.559-3.592-3.562z"/></clipPath><linearGradient id="f" gradientTransform="matrix(0 76.793 76.793 0 -222581.3281 91913.6094)" gradientUnits="userSpaceOnUse" x1="-1196.6191" x2="-1196.4453" y1="2898.7324" y2="2898.7324"><stop offset="0" stop-color="#e43432"/><stop offset=".1636" stop-color="#d43643"/><stop offset=".7271" stop-color="#a23e7a"/><stop offset="1" stop-color="#8e4190"/></linearGradient><clipPath id="g"><path d="m25.799 21.658 3.592 3.562 3.948-2.279c.597-.345 1.071-.618 1.24-.715.589-.341.554-.804.086-1.083l-.033-.02c-.005-.003-.011-.006-.016-.01-.479-.257-4.626-2.667-5.167-2.982l-.058-.034z"/></clipPath><linearGradient id="h" gradientTransform="matrix(0 40.9551 40.9551 0 -118953.8203 49926.9063)" gradientUnits="userSpaceOnUse" x1="-1218.6226" x2="-1218.4487" y1="2905.2383" y2="2905.2383"><stop offset="0" stop-color="#f08779"/><stop offset=".6326" stop-color="#f8b474"/><stop offset="1" stop-color="#fcca72"/></linearGradient><path d="m134.032 35.268c0 2.116-1.714 3.83-3.834 3.83h-125.469c-2.119 0-3.839-1.714-3.839-3.83v-30.543c0-2.115 1.72-3.835 3.839-3.835h125.468c2.121 0 3.834 1.72 3.834 3.835z"/><path clip-path="url(#a)" d="m12.427 8.836h13.372v25.753h-13.372z" fill="url(#b)"/><path clip-path="url(#c)" d="m12.867 8.812h16.524v12.846h-16.524z" fill="url(#d)"/><path clip-path="url(#e)" d="m12.758 21.66h16.632v12.98h-16.632z" fill="url(#f)"/><path clip-path="url(#g)" d="m25.799 18.097h9.369v7.123h-9.369z" fill="url(#h)"/><g fill="#fff"><path clip-rule="evenodd" d="m76.275 32.981c-.482-.427-.895-1.089-1.135-1.551l1.647-.702c.106.2.259.513.504.778.423.456.988.771 1.675.771.64 0 1.363-.293 1.743-.82.34-.472.472-1.073.472-1.718v-.645c-1.176 1.515-3.748 1.304-5.188-.262-1.539-1.673-1.524-4.389.031-6.061 1.536-1.521 3.813-1.713 5.153-.272.001.001.002.004.003.004v-.729h1.785v7.761c0 1.975-.725 3.091-1.625 3.741-.659.476-1.583.692-2.396.692-1.055.002-1.964-.363-2.669-.987zm42.793.428 1.724-4.084-3.053-7.08h1.738l2.174 5.043 2.129-5.043h1.737l-4.712 11.164zm-8.253-3.899c-.491-.473-.759-1.216-.766-1.896-.006-.594.196-1.201.633-1.667.7-.748 1.753-1.067 2.857-1.067.722 0 1.36.145 1.844.422 0-1.248-.978-1.725-1.803-1.725-.764 0-1.438.402-1.696 1.1l-1.561-.631c.279-.756 1.151-2.044 3.219-2.044 1.008 0 2.006.356 2.658 1.048.649.692.866 1.555.866 2.7v4.288h-1.701v-.766c-.228.279-.568.56-.935.739-.437.215-.951.289-1.426.289-.775 0-1.629-.252-2.189-.79zm-54.473-3.688c0-2.043 1.555-4.296 4.254-4.296s4.253 2.252 4.253 4.295c0 2.044-1.555 4.295-4.253 4.295-2.699 0-4.254-2.25-4.254-4.294zm9.233 0c0-2.043 1.554-4.296 4.252-4.296s4.253 2.252 4.253 4.295c0 2.044-1.555 4.295-4.253 4.295s-4.252-2.25-4.252-4.294zm-20.754 2.258c-2.573-2.594-2.497-6.762.077-9.356 1.301-1.302 2.992-1.952 4.697-1.945 1.625.007 3.249.613 4.52 1.806l-1.274 1.332c-1.847-1.794-4.78-1.771-6.586.089-1.827 1.893-1.869 4.934-.044 6.829 1.84 1.893 4.891 2.004 6.729.11.623-.641.833-1.457.96-2.292h-4.315v-1.825h6.062c.086.457.1.927.1 1.39 0 1.501-.649 3.092-1.652 4.12-1.146 1.174-2.748 1.78-4.438 1.767-1.756-.017-3.516-.705-4.836-2.025zm43.181.767c-1.514-1.674-1.514-4.414 0-6.086 1.516-1.674 4.103-1.664 5.571-.011.483.542.808 1.245 1.094 1.974l-5.672 2.388c.332.668.984 1.308 2.017 1.308.886 0 1.485-.296 2.119-1.194l1.483.998c-.17.225-.381.448-.538.624-1.515 1.67-4.558 1.67-6.074-.001zm10.653 1.198v-11.305h3.638c2.191 0 3.848 1.534 3.848 3.423 0 1.89-1.573 3.425-3.512 3.425h-2.249v4.457zm8.614 0v-11.307h1.724v11.307zm-23.087-.184v-12.653h1.886v12.653zm31.189-3.132c-.422-.286-1.064-.413-1.623-.413-1.229 0-1.921.621-1.921 1.298 0 .756.724 1.132 1.401 1.132.985-.001 2.143-.821 2.143-2.017zm-52.401-.908c0-1.232-.867-2.591-2.374-2.591-1.506 0-2.374 1.359-2.374 2.592s.868 2.592 2.374 2.592c1.507 0 2.374-1.36 2.374-2.593zm9.232 0c0-1.232-.867-2.591-2.375-2.591-1.506 0-2.373 1.359-2.373 2.592s.867 2.592 2.373 2.592c1.508 0 2.375-1.36 2.375-2.593zm9.024.781c.017-.056.046-.18.065-.307.005-.019.008-.038.005-.04.025-.147.037-.299.036-.454-.001-.146-.014-.289-.037-.428-.002-.026-.006-.053-.009-.054-.021-.133-.054-.262-.096-.382-.32-1-1.179-1.711-2.179-1.703-1.273.011-2.298 1.177-2.289 2.603.011 1.427 1.05 2.577 2.322 2.567 1.002-.009 1.851-.734 2.182-1.802zm7.478-.932 3.786-1.605c-.395-.676-1.025-.887-1.568-.887-1.441 0-2.428 1.637-2.218 2.492zm15.677-3.467c0-.988-.776-1.79-1.928-1.79h-2.073v3.578h2.17c1.019 0 1.831-.8 1.831-1.788z" fill-rule="evenodd"/><path d="m43.824 12.335c.245 0 .423-.202.535-.605.111-.403.192-1.019.242-1.848l.123-1.916h3.38v4.369h.673v2.411h-.927v-1.686h-3.597v1.686h-.928v-2.411zm1.709-2.452c-.038.6-.089 1.095-.153 1.485-.064.391-.161.713-.29.967h2.085v-3.544h-1.577z"/><path d="m49.563 10.467c0-.753.204-1.374.612-1.862s.962-.732 1.662-.732c.706 0 1.264.243 1.674.73.409.486.614 1.108.614 1.864v.104c0 .759-.204 1.381-.612 1.864s-.963.725-1.667.725-1.259-.242-1.669-.727c-.409-.485-.614-1.105-.614-1.862zm.927.103c0 .54.113.985.341 1.337s.565.527 1.014.527c.443 0 .778-.176 1.008-.527.229-.352.343-.797.343-1.337v-.104c0-.534-.115-.978-.346-1.333-.231-.354-.569-.532-1.015-.532-.442 0-.777.177-1.005.532-.228.354-.341.799-.341 1.333v.104z"/><path d="m57.284 12.435c.285 0 .535-.095.749-.285.213-.189.32-.423.32-.699h.838l.014.028c.013.439-.176.83-.565 1.17-.389.341-.841.511-1.355.511-.716 0-1.268-.243-1.657-.729s-.584-1.092-.584-1.817v-.197c0-.719.195-1.322.586-1.811.391-.488.942-.732 1.655-.732.568 0 1.033.176 1.396.527.363.352.538.783.525 1.294l-.009.028h-.843c0-.311-.101-.575-.304-.793-.202-.218-.458-.327-.765-.327-.456 0-.787.176-.996.529-.208.353-.313.781-.313 1.283v.197c0 .512.103.943.309 1.295s.537.528.999.528z"/><path d="m64.232 8.687h-1.681v4.374h-.928v-4.374h-1.657v-.72h4.265v.72z"/><path d="m66.849 11.173.165.64h.028l1.252-3.846h1.031l-2.142 5.875c-.129.342-.313.641-.553.895s-.564.381-.972.381c-.076 0-.171-.008-.287-.026-.116-.017-.206-.034-.269-.049l.094-.729c-.019-.003.037 0 .167.009s.213.014.247.014c.198 0 .359-.088.485-.264s.231-.371.315-.584l.222-.532-1.893-4.99h1.036z"/><path d="m74.269 13.061h-.927v-4.36h-2.274v4.359h-.927v-5.093h4.128z"/><path d="m79.743 13.061h-.927v-2.166h-2.27v2.166h-.928v-5.094h.928v2.203h2.27v-2.203h.927z"/><path d="m80.884 10.467c0-.753.203-1.374.611-1.862s.962-.732 1.662-.732c.706 0 1.264.243 1.674.73.409.486.614 1.108.614 1.864v.104c0 .759-.204 1.381-.612 1.864s-.963.725-1.666.725-1.26-.242-1.669-.727c-.41-.485-.614-1.105-.614-1.862zm.927.103c0 .54.114.985.342 1.337s.565.527 1.015.527c.442 0 .778-.176 1.007-.527.229-.352.344-.797.344-1.337v-.104c0-.534-.115-.978-.346-1.333s-.569-.532-1.015-.532c-.442 0-.777.177-1.005.532s-.342.799-.342 1.333z"/><path d="m88.98 13.061v-5.094h2.011c.671 0 1.192.117 1.563.351.37.234.556.584.556 1.052 0 .239-.072.451-.217.638s-.349.329-.611.426c.316.079.563.225.741.44.177.215.266.46.266.736 0 .478-.173.838-.521 1.083-.347.245-.83.367-1.452.367h-2.336zm.928-2.943h1.087c.393 0 .688-.058.888-.174.199-.116.299-.292.299-.527 0-.242-.101-.424-.301-.546-.201-.123-.498-.184-.89-.184h-1.083zm0 .711v1.516h1.407c.343 0 .602-.065.777-.196.176-.13.264-.317.264-.563 0-.242-.088-.428-.264-.56s-.435-.198-.777-.198h-1.407z"/></g></svg>