<svg enable-background="new 0 0 348 109.5" fill="#fff" viewBox="0 0 348 109.5" xmlns="http://www.w3.org/2000/svg"><path d="m8.9 22.9h16.1v13.7h6.2v-32.5h-6.2v13.4h-16.1v-13.4h-6.2v32.5h6.2z"/><path d="m47 36.6h6.2v-13.6l12.2-18.7v-.2h-7.3l-8 12.8-8-12.8h-7.3v.2l12.2 18.7z"/><path d="m72 33.1c1.1 1.3 2.6 2.3 4.3 3s3.8 1.1 6 1.1c2.3 0 4.3-.4 6-1.1s3.2-1.7 4.3-3 2-2.8 2.6-4.6.9-3.7.9-5.8v-18.6h-6.2v18.2c0 2.8-.6 5-1.8 6.7s-3.1 2.5-5.8 2.5-4.7-.8-5.8-2.5c-1.2-1.7-1.8-3.9-1.8-6.7v-18.2h-6.2v18.6c0 2.1.3 4 .9 5.8s1.5 3.4 2.6 4.6z"/><path d="m109 14.4 17.7 22.2h5.4v-32.5h-6.2v22.2l-17.7-22.2h-5.4v32.5h6.2z"/><path d="m158.8 35.6c2-.7 3.7-1.7 5.1-3.1s2.6-3.1 3.4-5.1 1.2-4.3 1.2-7c0-2.6-.4-4.9-1.2-7-.8-2-1.9-3.7-3.4-5.1-1.4-1.4-3.1-2.4-5.1-3.1s-4.1-1.1-6.4-1.1h-13.1v32.5h13.1c2.3 0 4.4-.3 6.4-1zm-13.4-4.4v-21.7h6.6c3.1 0 5.5.9 7.4 2.7 1.8 1.8 2.7 4.5 2.7 8.1s-.9 6.3-2.7 8.1-4.3 2.7-7.4 2.7h-6.6z"/><path d="m178.3 29.7h14.5l2.6 6.9h6.5l-12.7-32.5h-7.3l-12.7 32.5h6.5zm7.2-18.9 5.2 13.6h-10.3z"/><path d="m205.3 4.1h6.2v32.5h-6.2z"/><path d="m20.7 64.5-9.7-24.5h-8.3v32.4h6.2v-22.9l9 22.9h5.6l9-22.9v22.9h6.2v-32.4h-8.3z"/><path d="m72.3 44.1c-1.5-1.5-3.2-2.7-5.2-3.5-2-.9-4.2-1.3-6.6-1.3s-4.6.4-6.6 1.3-3.8 2-5.2 3.5c-1.5 1.5-2.6 3.3-3.4 5.4s-1.2 4.3-1.2 6.7.4 4.7 1.2 6.7c.8 2.1 2 3.9 3.4 5.4 1.5 1.5 3.2 2.7 5.2 3.5 2 .9 4.2 1.3 6.6 1.3s4.6-.4 6.6-1.3 3.8-2 5.2-3.5c1.5-1.5 2.6-3.3 3.4-5.4s1.2-4.3 1.2-6.7-.4-4.7-1.2-6.7c-.8-2.1-2-3.9-3.4-5.4zm-2.4 16.5c-.5 1.4-1.1 2.5-2 3.5s-1.9 1.8-3.2 2.3c-1.3.6-2.7.9-4.2.9-1.6 0-3-.3-4.2-.9-1.3-.6-2.3-1.4-3.2-2.3-.9-1-1.5-2.2-2-3.5-.5-1.4-.7-2.8-.7-4.4s.2-3 .7-4.4 1.1-2.5 2-3.5 1.9-1.8 3.2-2.3c1.3-.6 2.7-.9 4.2-.9 1.6 0 3 .3 4.2.9 1.3.6 2.3 1.4 3.2 2.3.9 1 1.5 2.2 2 3.5.5 1.4.7 2.8.7 4.4-.1 1.6-.3 3.1-.7 4.4z"/><path d="m87.7 72.4h6.3v-27h9.8v-5.4h-25.9v5.4h9.8z"/><path d="m114.7 71.8c2 .9 4.2 1.3 6.6 1.3s4.6-.4 6.6-1.3 3.8-2 5.2-3.5c1.5-1.5 2.6-3.3 3.4-5.4s1.2-4.3 1.2-6.7-.4-4.7-1.2-6.7c-.8-2.1-2-3.9-3.4-5.4-1.5-1.5-3.2-2.7-5.2-3.5-2-.9-4.2-1.3-6.6-1.3s-4.6.4-6.6 1.3-3.8 2-5.2 3.5c-1.5 1.5-2.6 3.3-3.4 5.4s-1.2 4.3-1.2 6.7.4 4.7 1.2 6.7c.8 2.1 2 3.9 3.4 5.4s3.1 2.7 5.2 3.5zm-2.9-20c.5-1.4 1.1-2.5 2-3.5s1.9-1.8 3.2-2.3c1.3-.6 2.7-.9 4.2-.9 1.6 0 3 .3 4.2.9 1.3.6 2.3 1.4 3.2 2.3.9 1 1.5 2.2 2 3.5.5 1.4.7 2.8.7 4.4s-.2 3.1-.7 4.4c-.5 1.4-1.1 2.5-2 3.5s-1.9 1.8-3.2 2.3c-1.3.6-2.7.9-4.2.9-1.6 0-3-.3-4.2-.9-1.3-.6-2.3-1.4-3.2-2.3-.9-1-1.5-2.2-2-3.5-.5-1.4-.7-2.8-.7-4.4.1-1.6.3-3 .7-4.4z"/><path d="m149.2 59.3h5.2l9.7 13.1h7.5v-.1l-10.5-13.4c2.2-.6 3.9-1.7 5.2-3.2 1.3-1.6 1.9-3.6 1.9-6 0-1.5-.3-2.8-.8-4s-1.3-2.2-2.2-3.1c-1-.8-2.1-1.5-3.4-1.9s-2.8-.7-4.3-.7h-14.5v32.5h6.2zm0-13.9h7.5c1.7 0 2.9.4 3.8 1.1.8.7 1.3 1.8 1.3 3.1s-.4 2.4-1.3 3.1c-.8.7-2.1 1.1-3.8 1.1h-7.5z"/><path d="m185.6 73.1c1.9 0 3.6-.3 5.1-.8s2.9-1.2 4-2.2c1.1-.9 2-2.1 2.6-3.3.6-1.3.9-2.7.9-4.3 0-2.8-.9-5-2.8-6.6-1.8-1.6-4.5-2.7-7.8-3.2l-2.8-.4c-1.4-.2-2.5-.7-3.2-1.3-.7-.7-1.1-1.5-1.1-2.4 0-1 .5-1.8 1.4-2.6.9-.7 2.2-1.1 3.8-1.1 1.5 0 2.9.3 4.2 1 1.3.6 2.5 1.6 3.5 2.8l4-4.1c-1.2-1.5-2.8-2.8-4.7-3.8-2-1-4.2-1.5-6.7-1.5-1.8 0-3.4.3-4.9.8-1.4.5-2.7 1.2-3.7 2.1s-1.8 1.9-2.3 3.2c-.5 1.2-.8 2.5-.8 3.9 0 1.2.2 2.4.7 3.4s1.1 1.9 2 2.7c.8.8 1.9 1.4 3 1.9 1.2.5 2.5.9 3.9 1.1l2.8.4c1.9.3 3.3.8 4.1 1.6.8.7 1.2 1.6 1.2 2.7 0 1.3-.5 2.3-1.6 3.2-1 .9-2.6 1.3-4.6 1.3-1.2 0-2.4-.2-3.4-.5s-1.9-.7-2.7-1.3c-.8-.5-1.6-1.2-2.2-1.8-.6-.7-1.2-1.4-1.6-2.1l-4.1 4c.6.9 1.3 1.7 2.1 2.6s1.8 1.7 2.9 2.4 2.4 1.3 3.9 1.7c1.4.3 3.1.5 4.9.5z"/><path d="m199.8 45.4h9.9v27h6.2v-27h9.9v-5.4h-26z"/><path d="m251 58.2c0 2.8-.6 5-1.8 6.7s-3.1 2.5-5.8 2.5-4.7-.8-5.8-2.5c-1.2-1.7-1.8-3.9-1.8-6.7v-18.2h-6.2v18.6c0 2.1.3 4 .9 5.8s1.4 3.3 2.6 4.6 2.6 2.3 4.3 3 3.8 1.1 6 1.1c2.3 0 4.3-.4 6-1.1s3.2-1.7 4.3-3 2-2.8 2.6-4.6.9-3.7.9-5.8v-18.6h-6.2z"/><path d="m288.6 44.1c-1.4-1.4-3.1-2.4-5.1-3.1s-4.1-1.1-6.4-1.1h-13.1v32.5h13c2.3 0 4.5-.4 6.4-1.1 2-.7 3.7-1.7 5.1-3.1s2.6-3.1 3.4-5.1 1.2-4.3 1.2-7c0-2.6-.4-4.9-1.2-7-.8-1.9-1.9-3.6-3.3-5zm-4.6 20.2c-1.8 1.8-4.3 2.7-7.4 2.7h-6.6v-21.6h6.6c3.1 0 5.5.9 7.4 2.7 1.8 1.8 2.7 4.5 2.7 8.1s-.9 6.3-2.7 8.1z"/><path d="m298.4 40h6.2v32.5h-6.2z"/><path d="m341.7 49.5c-.8-2.1-2-3.9-3.4-5.4-1.5-1.5-3.2-2.7-5.2-3.5-2-.9-4.2-1.3-6.6-1.3s-4.6.4-6.6 1.3-3.8 2-5.2 3.5c-1.5 1.5-2.6 3.3-3.4 5.4s-1.2 4.3-1.2 6.7.4 4.7 1.2 6.7c.8 2.1 2 3.9 3.4 5.4 1.5 1.5 3.2 2.7 5.2 3.5 2 .9 4.2 1.3 6.6 1.3s4.6-.4 6.6-1.3 3.8-2 5.2-3.5c1.5-1.5 2.6-3.3 3.4-5.4s1.2-4.3 1.2-6.7-.4-4.7-1.2-6.7zm-5.9 11.1c-.5 1.4-1.1 2.5-2 3.5s-1.9 1.8-3.2 2.3c-1.3.6-2.7.9-4.2.9-1.6 0-3-.3-4.2-.9-1.3-.6-2.3-1.4-3.2-2.3-.9-1-1.5-2.2-2-3.5-.5-1.4-.7-2.8-.7-4.4s.2-3 .7-4.4 1.1-2.5 2-3.5 1.9-1.8 3.2-2.3c1.3-.6 2.7-.9 4.2-.9 1.6 0 3 .3 4.2.9 1.3.6 2.3 1.4 3.2 2.3.9 1 1.5 2.2 2 3.5.5 1.4.7 2.8.7 4.4s-.2 3.1-.7 4.4z"/><path d="m20.6 105.2-13.5-29.4h-3.3v32.5h2.4v-28.7l13.2 28.7h2.4l13.2-28.7v28.7h2.3v-32.5h-3.2z"/><path d="m71.9 80.2c-1.4-1.5-3.1-2.7-5.1-3.6s-4.1-1.3-6.4-1.3-4.5.4-6.4 1.3c-2 .9-3.6 2.1-5.1 3.6-1.4 1.5-2.5 3.3-3.3 5.3s-1.2 4.2-1.2 6.5.4 4.5 1.2 6.5 1.9 3.8 3.3 5.3 3.1 2.7 5.1 3.6 4.1 1.3 6.4 1.3 4.5-.4 6.4-1.3c2-.9 3.6-2.1 5.1-3.6 1.4-1.5 2.5-3.3 3.3-5.3s1.2-4.2 1.2-6.5-.4-4.5-1.2-6.5-1.9-3.8-3.3-5.3zm1.1 17.5c-.7 1.7-1.6 3.2-2.7 4.5-1.2 1.3-2.6 2.3-4.3 3s-3.5 1.1-5.5 1.1-3.8-.4-5.5-1.1-3.1-1.7-4.3-3-2.1-2.8-2.7-4.5c-.7-1.7-1-3.6-1-5.7 0-2 .3-3.9 1-5.7.7-1.7 1.6-3.2 2.7-4.5 1.2-1.3 2.6-2.3 4.3-3s3.5-1.1 5.5-1.1 3.8.4 5.5 1.1 3.1 1.7 4.3 3 2.1 2.8 2.7 4.5c.7 1.7 1 3.6 1 5.7-.1 2.1-.4 4-1 5.7z"/><path d="m101.9 92.9c-1.7-1.5-4.1-2.4-7.1-2.9l-3.5-.6c-1.8-.3-3.3-.9-4.4-1.8-1.2-.9-1.7-2.3-1.7-3.9 0-.8.2-1.6.6-2.3s.9-1.3 1.6-1.9c.7-.5 1.6-1 2.6-1.3s2.1-.5 3.4-.5c1.7 0 3.2.3 4.7 1s2.7 1.9 3.8 3.5l2-1.3c-1-1.7-2.3-3-4.1-4.1-1.8-1-3.9-1.5-6.4-1.5-1.7 0-3.2.2-4.5.7s-2.4 1.1-3.3 1.9-1.6 1.7-2.1 2.7-.7 2-.7 3.1c0 2.3.8 4.1 2.3 5.5 1.6 1.4 3.6 2.3 6.1 2.7l3.4.6c1.1.2 2 .4 3 .8.9.4 1.7.8 2.4 1.3s1.2 1.2 1.6 1.9.6 1.6.6 2.5c0 1-.2 2-.6 2.9s-1 1.7-1.7 2.4c-.8.7-1.7 1.2-2.9 1.6-1.1.4-2.5.6-4 .6-1.4 0-2.7-.2-3.8-.6s-2.1-.9-3-1.5-1.6-1.3-2.3-2.1-1.2-1.6-1.6-2.5l-2 1.3c.5 1 1.1 1.9 1.9 2.8s1.7 1.8 2.7 2.5c1.1.7 2.2 1.3 3.6 1.8 1.3.5 2.9.7 4.5.7 1.8 0 3.5-.3 4.9-.8s2.7-1.2 3.7-2.1 1.7-1.9 2.2-3.1.8-2.5.8-3.8c-.1-2.7-.9-4.7-2.7-6.2z"/><path d="m115.4 81.8c1.2-1.3 2.6-2.3 4.3-3s3.5-1.1 5.5-1.1c2.8 0 5.3.7 7.4 2.1s3.7 3.2 4.8 5.5l2.1-1.1c-.6-1.3-1.4-2.5-2.4-3.6s-2.1-2-3.3-2.8-2.5-1.4-4-1.8c-1.4-.4-3-.6-4.6-.6-2.3 0-4.5.4-6.4 1.3-2 .9-3.6 2.1-5.1 3.6-1.4 1.5-2.5 3.3-3.3 5.3s-1.2 4.2-1.2 6.5.4 4.5 1.2 6.5 1.9 3.8 3.3 5.3 3.1 2.7 5.1 3.6 4.1 1.3 6.4 1.3c1.6 0 3.2-.2 4.6-.6s2.8-1 4-1.8 2.3-1.7 3.3-2.8 1.8-2.3 2.4-3.6l-2.1-1.1c-1.1 2.3-2.6 4.1-4.8 5.5-2.1 1.4-4.6 2.1-7.4 2.1-2 0-3.8-.4-5.5-1.1s-3.1-1.7-4.3-3-2.1-2.8-2.7-4.5c-.7-1.7-1-3.6-1-5.7 0-2 .3-3.9 1-5.7.6-1.9 1.5-3.4 2.7-4.7z"/><path d="m171.1 80.2c-1.4-1.5-3.1-2.7-5.1-3.6s-4.1-1.3-6.4-1.3-4.5.4-6.4 1.3c-2 .9-3.6 2.1-5.1 3.6-1.4 1.5-2.5 3.3-3.3 5.3s-1.2 4.2-1.2 6.5.4 4.5 1.2 6.5 1.9 3.8 3.3 5.3 3.1 2.7 5.1 3.6 4.1 1.3 6.4 1.3 4.5-.4 6.4-1.3c2-.9 3.6-2.1 5.1-3.6 1.4-1.5 2.5-3.3 3.3-5.3s1.2-4.2 1.2-6.5-.4-4.5-1.2-6.5c-.7-2-1.8-3.8-3.3-5.3zm1.1 17.5c-.7 1.7-1.6 3.2-2.7 4.5-1.2 1.3-2.6 2.3-4.3 3s-3.5 1.1-5.5 1.1-3.8-.4-5.5-1.1-3.1-1.7-4.3-3-2.1-2.8-2.7-4.5c-.7-1.7-1-3.6-1-5.7 0-2 .3-3.9 1-5.7.7-1.7 1.6-3.2 2.7-4.5 1.2-1.3 2.6-2.3 4.3-3s3.5-1.1 5.5-1.1 3.8.4 5.5 1.1 3.1 1.7 4.3 3 2.1 2.8 2.7 4.5c.7 1.7 1 3.6 1 5.7s-.4 4-1 5.7z"/><path d="m212.1 104.6-9.9-28.8h-2.4l-9.9 28.8-8.4-28.8h-2.6l9.8 32.5h2.4l9.9-28.8 9.9 28.8h2.4l9.8-32.5h-2.6z"/></svg>