<svg fill="none" height="104" viewBox="0 0 104 104" width="104" xmlns="http://www.w3.org/2000/svg" xmlns:xlink="http://www.w3.org/1999/xlink"><clipPath id="a"><path d="m21.4102 24.4707h61.1765v56.5882h-61.1765z"/></clipPath><circle cx="52" cy="52" fill="#e4dcd3" r="52"/><g clip-path="url(#a)" fill="#66645f"><path d="m30.0653 50.8895c.7808 0 1.5146-.3014 2.0642-.8474l3.0472-3.0287 5.7971 5.759c.3363.3332.9229.3342 1.2593-.001.3474-.3452.3474-.9062 0-1.2513l-6.4268-6.3846c-.3123-.3103-.947-.3093-1.2593 0l-3.6769 3.6553c-.2873.2855-.6276.3282-.8048.3282s-.5186-.0427-.8059-.3292l-5.737-5.7023c-.2873-.2854-.3304-.6236-.3304-.7987 0-.176.0431-.5142.3304-.8007l14.3441-14.2522c.5646-.561 1.8189-.9489 2.6208-.7888l10.7243 2.1306-7.8713 7.8218c-.1652.1642-.2613.3929-.2613.6257 0 .2357.0931.4585.2613.6256l6.2936 6.2533c.3364.3332.923.3342 1.2593 0 .1682-.1681.2613-.3909.2613-.6266s-.0931-.4585-.2613-.6256l-5.6639-5.6267 6.9863-6.9416c.6157-.6117.8529-1.3428.6507-2.0042-.2022-.6625-.8078-1.1399-1.6627-1.308l-10.367-2.0599c-.2362-.0478-.4895-.0706-.7568-.0706-1.2683 0-2.6638.5401-3.4726 1.3437l-14.3451 14.2533c-.5486.546-.8519 1.2751-.8519 2.0509s.3023 1.5049.8529 2.051l5.737 5.7023c.5506.547 1.2834.8474 2.0652.8474z"/><path d="m64.5072 56.1818c-.3363-.3342-.9229-.3342-1.2593 0-.1682.1671-.2623.3899-.2623.6256 0 .2358.0941.4586.2623.6257l13.9857 13.8951c.3714.369.5126.9648.3874 1.6332-.1211.6545-.4885 1.312-1.032 1.8521l-3.3806 3.3589c-.6847.6803-1.5346 1.0702-2.3305 1.0702-.4805 0-.8989-.1522-1.1772-.4297l-13.7084-13.6186c-.1682-.1681-.3915-.2596-.6297-.2596-.2363 0-.4615.0915-.6297.2596-.1681.1661-.2602.3889-.2602.6256 0 .2357.0921.4585.2602.6256l13.7075 13.6177c.6176.6137 1.4565.9389 2.4245.9389 1.2784 0 2.5908-.5759 3.6018-1.5795l3.3826-3.3589c1.8379-1.8281 2.1272-4.5137.6437-5.9887z"/><path d="m81.5978 32.7422c-.1151-.2716-.3574-.4695-.6487-.5252-.2893-.0567-.5966.0388-.8018.2427l-5.613 5.5779c-.5615.555-1.6106.5541-2.1682-.001l-3.4296-3.4056c-.2894-.2875-.4475-.6714-.4475-1.0782 0-.4058.1581-.7888.4475-1.0772l5.6129-5.577c.2112-.2088.3013-.5072.2442-.7967-.057-.2894-.2542-.5311-.5275-.6445-1.5697-.6545-3.1904-.9867-4.8191-.9867-2.837 0-5.4437 1.0374-7.3397 2.9223-2.786 2.7671-3.6739 6.858-2.3796 10.942l.0821.2557-19.7858 19.6591-.2473-.0647c-1.0281-.2715-2.0762-.4088-3.1133-.4088-2.84 0-5.4517 1.0404-7.3527 2.9283-3.0192 2.9988-3.783 7.7413-1.9491 12.0819.1152.2715.3574.4685.6487.5252.2973.0567.5936-.0349.8019-.2427l5.6149-5.579c.2783-.2765.6737-.4356 1.0841-.4356.4105 0 .8059.1591 1.0842.4366l3.4276 3.4067c.2903.2874.4495.6713.4495 1.0772 0 .4078-.1602.7897-.4505 1.0772l-5.6119 5.5779c-.2093.2089-.3014.5063-.2433.7967.0581.2895.2553.5302.5286.6446 1.5666.6544 3.1893.9866 4.818.9866 2.837 0 5.4438-1.0384 7.3408-2.9232 2.888-2.8686 3.7319-7.2619 2.2013-11.4643l-.0961-.2646 19.4215-19.298.2562.0806c1.2023.3749 2.4346.5649 3.6599.5649 2.841 0 5.4527-1.0404 7.3537-2.9282 3.0192-2.9999 3.783-7.7413 1.9471-12.0829zm-3.2064 10.8306c-1.5636 1.5547-3.7289 2.411-6.0944 2.411-1.2824 0-2.5687-.2446-3.822-.7261-.3264-.1253-.7058-.0457-.952.199l-20.2454 20.1166c-.2582.2567-.3323.6505-.1852.9827 1.6518 3.728 1.0632 7.7811-1.4985 10.3274-1.5607 1.5507-3.72 2.4051-6.0805 2.4051-.6757 0-1.3674-.0716-2.0581-.2119l-.8109-.1641 4.6359-4.6092c.6267-.6206.973-1.4482.974-2.3294 0-.8803-.3453-1.7078-.972-2.3295l-3.4276-3.4056c-.6267-.6227-1.4585-.9668-2.3445-.9668-.8869 0-1.7188.3441-2.3434.9658l-4.6399 4.6111-.1652-.8076c-.6257-3.0685.1992-6.0912 2.2083-8.0865 1.5637-1.5536 3.7279-2.411 6.0924-2.411 1.1092 0 2.2294.186 3.3265.55.3184.1055.6768.0209.912-.2138l20.5707-20.4369c.2482-.2477.3283-.6187.2012-.9449-1.4155-3.6325-.7688-7.4081 1.6928-9.853 2.0081-1.9942 5.0383-2.8238 8.1396-2.1922l.8098.1641-4.6359 4.6072c-.6276.6227-.972 1.4492-.972 2.3295 0 .8802.3444 1.7078.97 2.3304l3.4296 3.4047c.6257.6226 1.4586.9658 2.3445.9658.8839 0 1.7168-.3422 2.3425-.9648l4.6399-4.6102.1641.8077c.6267 3.0674-.1982 6.0902-2.2063 8.0854z"/></g></svg>