<svg fill="none" height="104" viewBox="0 0 104 104" width="104" xmlns="http://www.w3.org/2000/svg"><circle cx="52" cy="52" fill="#e4dcd3" r="52"/><g stroke="#66645f" stroke-width="2"><path d="m32 48v-3c0-11.0457 8.9543-20 20-20s20 8.9543 20 20v3"/><path d="m72 66v.5c0 6.9036-5.5964 12.5-12.5 12.5"/><path d="m23 57c0-4.9706 4.0294-9 9-9h3v18h-3c-4.9706 0-9-4.0294-9-9z"/><path d="m81 57c0 4.9706-4.0294 9-9 9h-3v-18h3c4.9706 0 9 4.0294 9 9z"/><rect height="9" rx="4.5" width="12" x="48" y="75"/></g></svg>