<svg fill="none" height="154" viewBox="0 0 154 154" width="154" xmlns="http://www.w3.org/2000/svg" xmlns:xlink="http://www.w3.org/1999/xlink"><clipPath id="a"><path d="m42 36h76.0723v76.0723h-76.0723z"/></clipPath><circle cx="77" cy="77" r="76" stroke="#666" stroke-width="2"/><g clip-path="url(#a)" fill="#666"><path d="m96.8814 112.072h-14.1368v-9.255h-8.8752v9.255h-14.1357v-11.643c-5.2018-2.6703-9.1046-7.3056-10.8625-12.8877h-6.8712v-17.184h8.5466c1.2273-2.2389 2.8632-4.2792 4.7872-5.967l-7.2501-12.2096 2.1654.2298c2.8751.3056 12.6347 1.6758 19.0602 6.5986.1003-.0024.2007-.0036.3011-.0036h19.1104c11.9992 0 21.7592 9.8275 21.7592 21.9059 0 8.9181-5.433 16.9832-13.5974 20.3116v10.849zm-11.9607-2.189h9.7846v-10.1779l.717-.2634c7.7067-2.8247 12.8837-10.2703 12.8837-18.5291 0-10.8705-8.786-19.7152-19.5852-19.7152h-19.1116c-.2115 0-.4194.006-.6286.0121l-.3979.012-.3119-.249c-4.8421-3.8666-12.0348-5.469-16.05-6.0922l5.9463 10.0104-.7433.5967c-2.1773 1.7468-3.9949 3.982-5.2544 6.4627l-.3035.5979h-7.6898v12.805h6.3359l.221.8036c1.5177 5.5484 5.3632 10.1416 10.5507 12.6018l.6249.2947v10.8309h9.7847v-9.255h13.2274z"/><path d="m80.0616 57.1697c-5.7981 0-10.5147-4.7484-10.5147-10.5855 0-5.837 4.7166-10.5842 10.5147-10.5842 5.7958 0 10.5124 4.7472 10.5124 10.5842 0 5.8371-4.7166 10.5855-10.5124 10.5855zm0-18.9802c-4.5983 0-8.3386 3.7667-8.3386 8.3947 0 4.6293 3.7403 8.3948 8.3386 8.3948 4.596 0 8.3375-3.7655 8.3375-8.3948 0-4.628-3.7415-8.3947-8.3375-8.3947z"/><path d="m79.9503 42.8259h-.0323l-1.8439 1.0022-.2772-1.0984 2.3159-1.2487h1.2225v10.6744h-1.3862v-9.3295z"/><path d="m87.8637 67.5735h-13.8153c-.6011 0-1.0875-.4896-1.0875-1.0948 0-.6051.4864-1.0947 1.0875-1.0947h13.8153c.5999 0 1.0875.4896 1.0875 1.0947 0 .6052-.4876 1.0948-1.0875 1.0948z"/><path d="m116.983 82.4946h-7.021c-.599 0-1.087-.4908-1.087-1.0959 0-.6052.488-1.0948 1.087-1.0948h7.021c.602 0 1.088.4896 1.088 1.0948 0 .6051-.487 1.0959-1.088 1.0959z"/></g></svg>