<svg fill="none" height="154" viewBox="0 0 154 154" width="154" xmlns="http://www.w3.org/2000/svg" xmlns:xlink="http://www.w3.org/1999/xlink"><clipPath id="a"><path d="m36 39h81.9759v75.9036h-81.9759z"/></clipPath><circle cx="77" cy="77" r="76" stroke="#666" stroke-width="2"/><g clip-path="url(#a)" fill="#666"><path d="m47.5978 74.4362c1.0463 0 2.0295-.4042 2.766-1.1367l4.0832-4.0624 7.7681 7.7247c.4507.4469 1.2367.4482 1.6875-.0014.4654-.4629.4654-1.2154 0-1.6783l-8.6119-8.5639c-.4185-.4163-1.2689-.4149-1.6874 0l-4.927 4.903c-.385.3829-.8411.4402-1.0785.4402s-.6949-.0573-1.0798-.4416l-7.6876-7.6486c-.385-.3829-.4427-.8365-.4427-1.0713 0-.2362.0577-.6898.4427-1.074l19.2209-19.117c.7566-.7525 2.4374-1.2728 3.5118-1.058l14.3705 2.8577-10.5475 10.4918c-.2213.2201-.3501.527-.3501.8392 0 .3161.1248.615.3501.8391l8.4335 8.3878c.4507.447 1.2367.4483 1.6874 0 .2254-.2255.3502-.5243.3502-.8405s-.1248-.615-.3502-.8392l-7.5896-7.5472 9.3616-9.3111c.825-.8205 1.1429-1.8011.872-2.6883-.271-.8885-1.0826-1.5289-2.2281-1.7544l-13.8916-2.763c-.3166-.064-.656-.0947-1.0141-.0947-1.6996 0-3.5695.7244-4.6533 1.8024l-19.2224 19.1183c-.7351.7325-1.1415 1.7104-1.1415 2.7511 0 1.0406.4051 2.0185 1.1429 2.751l7.6876 7.6486c.7377.7338 1.7196 1.1367 2.7673 1.1367z"/><path d="m93.747 81.5352c-.4507-.4482-1.2368-.4482-1.6875 0-.2253.2242-.3514.523-.3514.8392s.1261.6151.3514.8392l18.7405 18.6384c.498.495.687 1.294.519 2.19-.162.878-.654 1.76-1.383 2.484l-4.529 4.506c-.918.912-2.057 1.435-3.123 1.435-.644 0-1.205-.204-1.578-.576l-18.369-18.267c-.2253-.2255-.5245-.3483-.8437-.3483-.3166 0-.6184.1228-.8438.3483-.2253.2228-.3487.5216-.3487.8391 0 .3162.1234.6151.3487.8392l18.3679 18.2657c.8276.823 1.9516 1.26 3.2486 1.26 1.713 0 3.472-.773 4.827-2.119l4.532-4.505c2.463-2.453 2.851-6.055.863-8.033z"/><path d="m116.65 50.0948c-.154-.3643-.478-.6298-.869-.7045-.388-.076-.799.0521-1.074.3256l-7.522 7.4819c-.752.7444-2.158.7431-2.905-.0014l-4.5957-4.5681c-.3877-.3856-.5996-.9005-.5996-1.4462 0-.5443.2119-1.058.5996-1.4449l7.5217-7.4805c.283-.2802.403-.6805.327-1.0687-.077-.3882-.341-.7124-.707-.8645-2.103-.8779-4.275-1.3235-6.458-1.3235-3.8011 0-7.2941 1.3915-9.8348 3.9197-3.7331 3.7116-4.9229 9.199-3.1885 14.677l.11.3429-26.5128 26.3694-.3314-.0868c-1.3776-.3642-2.782-.5483-4.1717-.5483-3.8056 0-7.3053 1.3955-9.8527 3.9277-4.0456 4.0225-5.0691 10.3837-2.6117 16.2064.1543.364.4789.628.8693.704.3984.076.7954-.047 1.0744-.326l7.524-7.4828c.3729-.3709.9027-.5844 1.4527-.5844s1.0798.2135 1.4527.5857l4.593 4.5695c.389.386.6023.901.6023 1.445 0 .547-.2146 1.059-.6036 1.445l-7.5199 7.482c-.2804.28-.4038.679-.326 1.068s.3421.711.7083.865c2.0993.878 4.2737 1.323 6.4561 1.323 3.8016 0 7.2946-1.393 9.8366-3.921 3.8699-3.847 5.0007-9.74 2.9497-15.3771l-.1288-.3549 26.0246-25.8851.3434.108c1.6108.503 3.2628.7578 4.9038.7578 3.807 0 7.307-1.3955 9.854-3.9277 4.046-4.0238 5.07-10.3837 2.609-16.2072zm-4.296 14.5275c-2.095 2.0853-4.997 3.234-8.167 3.234-1.718 0-3.442-.3282-5.1211-.974-.4373-.1681-.9457-.0613-1.2757.2669l-27.1285 26.9831c-.3461.3442-.4454.8725-.2482 1.3181 2.2133 5.0006 1.4246 10.4366-2.0081 13.8526-2.0912 2.08-4.9846 3.226-8.1477 3.226-.9054 0-1.8323-.096-2.7579-.284l-1.0865-.22 6.212-6.183c.8397-.832 1.3039-1.942 1.3052-3.124 0-1.181-.4628-2.291-1.3025-3.125l-4.593-4.5682c-.8397-.8351-1.9544-1.2968-3.1415-1.2968-1.1885 0-2.3032.4617-3.1403 1.2955l-6.2174 6.1855-.2213-1.084c-.8384-4.1156.2669-8.17 2.9591-10.8463 2.0953-2.084 4.9954-3.234 8.1638-3.234 1.4863 0 2.9873.2495 4.4575.7378.4266.1414.9068.028 1.222-.2869l27.5646-27.4127c.3326-.3322.4399-.8298.2696-1.2674-1.8968-4.8723-1.0302-9.9368 2.2683-13.2161 2.6908-2.6749 6.7513-3.7876 10.9066-2.9404l1.086.2201-6.2125 6.1798c-.8411.8351-1.3025 1.9438-1.3025 3.1245 0 1.1808.4614 2.2908 1.2998 3.1259l4.5952 4.5668c.839.8352 1.955 1.2955 3.142 1.2955 1.185 0 2.301-.459 3.139-1.2941l6.217-6.1838.22 1.0833c.84 4.1145-.265 8.169-2.956 10.8453z"/></g></svg>