<svg fill="none" height="104" viewBox="0 0 104 104" width="104" xmlns="http://www.w3.org/2000/svg" xmlns:xlink="http://www.w3.org/1999/xlink"><mask id="a" fill="#fff"><rect fill="#fff" height="59" rx="1" width="48" x="28" y="23"/></mask><circle cx="52" cy="52" fill="#e4dcd3" r="52"/><g stroke="#666"><rect height="59" mask="url(#a)" rx="1" stroke-width="4" width="48" x="28" y="23"/><g stroke-width="2"><path d="m35 30h34v9h-34z"/><path d="m35 45h6v6h-6z"/><path d="m35 57h6v6h-6z"/><path d="m35 69h6v6h-6z"/><path d="m49 45h6v6h-6z"/><path d="m63 45h6v6h-6z"/><path d="m49 57h6v6h-6z"/><path d="m49 69h6v6h-6z"/><path d="m63 57h6v18h-6z"/></g></g></svg>