<svg fill="none" height="104" viewBox="0 0 104 104" width="104" xmlns="http://www.w3.org/2000/svg"><circle cx="52" cy="52" fill="#e4dcd3" r="52"/><g stroke="#666" stroke-width="2"><path d="m52 80c-15.464 0-28-12.536-28-28 0-11.3335 6.7336-21.0943 16.4184-25.5m39.0816 20.2048c-2.4145-12.6148-13.2936-22.2233-26.4991-22.6872-.5519-.0194-1.0009.4301-1.0009.9824v12.5"/><path d="m59.4706 81c0-7.732 5.1619-14 11.5294-14s11.5294 6.268 11.5294 14"/><path d="m82.5294 53c0 7.732-5.1619 14-11.5294 14s-11.5294-6.268-11.5294-14"/><path d="m57 52h28"/><path d="m57 80h28"/><path d="m40.4136 26.5021c1.8337-.8346 3.7733-1.4772 5.7931-1.9021"/><path d="m40 40.5 10.2521 11.6502c.482.5477.7479 1.2523.7479 1.9818v11.368"/></g></svg>