<svg fill="none" height="104" viewBox="0 0 104 104" width="104" xmlns="http://www.w3.org/2000/svg"><circle cx="52" cy="52" fill="#e4dcd3" r="52"/><path d="m70.9996 45h-20" stroke="#666" stroke-width="2"/><path d="m26.9999 55.5c1.8333 1.8333 7 3.5 7 14.5" stroke="#666" stroke-width="2"/><path d="m70.9995 63v-1h-1v1zm6.1008-6.0277-.7526.6585zm-6.1008-11.9723v-1h-1v1zm0-6-.9364.3509.2433.6491h.6931zm.2475 11.2828.7525-.6585zm-21.2475-5.2828v26h2v-26zm22 26v-8h-2v8zm-1-7h3.3656v-2h-3.3656zm6.8534-7.6862-5.8534-6.6895-1.5051 1.317 5.8533 6.6895zm-5.8534-6.6895v-4.6243h-2v4.6243zm-1-3.6243h9.6842v-2h-9.6842zm4.3158-8h-4.3158v2h4.3158zm5.3684 8c.7267 0 1.3158-.5891 1.3158-1.3158h-2c0-.3779.3064-.6842.6842-.6842zm-1.6842 13.3656c0-1.1226-.4074-2.207-1.1466-3.0518l-1.5052 1.317c.4202.4802.6518 1.0967.6518 1.7348zm3-14.6814c0-3.6916-2.9926-6.6842-6.6842-6.6842v2c2.587 0 4.6842 2.0972 4.6842 4.6842zm-7.6344 19.3158c2.5595 0 4.6344-2.0749 4.6344-4.6344h-2c0 1.4549-1.1794 2.6344-2.6344 2.6344zm-49.3653-16.5c0-12.9009 10.4163-23.5 23.2954-23.5v-2c-14.0054 0-25.2954 11.5164-25.2954 25.5zm23.2954-23.5c9.989 0 18.4441 6.4815 21.7679 15.3509l1.8728-.7018c-3.5938-9.5899-12.7551-16.6491-23.6407-16.6491zm-25.2954 23.5v2h2v-2zm17 2v-4.5h-2v4.5zm5-9.5c2.7613 0 4.9997 2.2385 4.9997 5h2c0-3.866-3.1337-7-6.9997-7zm-5 5c0-2.7614 2.2385-5 5-5v-2c-3.866 0-7 3.134-7 7zm-17 4.5c0 4.6944 3.8055 8.5 8.5 8.5v-2c-3.5899 0-6.5-2.9101-6.5-6.5zm37.9997 32.5c6.0752 0 11-4.9249 11-11h-2c0 4.9705-4.0294 9-9 9zm-29.4997-24c4.6944 0 8.5-3.8056 8.5-8.5h-2c0 3.5899-2.9102 6.5-6.5 6.5zm40.4997-8.3757h-2c0 .4844.1759.9524.4949 1.317zm-22 21.3757c0 6.0751 4.9249 11 11 11v-2c-4.9705 0-9-4.0295-9-9z" fill="#666"/></svg>