<svg fill="none" height="104" viewBox="0 0 104 104" width="104" xmlns="http://www.w3.org/2000/svg"><circle cx="52" cy="52" fill="#e4dcd3" r="52"/><g stroke="#666" stroke-width="2"><path d="m65.1685 26.2912c.5613-.759 1.603-.9758 2.4205-.5038.8176.472 1.1507 1.4825.774 2.3481l-11.2886 25.941c-1.208 2.776-4.5635 3.8819-7.1854 2.3682-2.6218-1.5137-3.3418-4.9727-1.5417-7.4068z"/><path d="m25 52h-7"/><path d="m52 25v-7"/></g><path d="m71.792 33.6436-.7405.6721zm.0191-1.1951-.7081-.7062zm-.0618 39.425-.708.7062zm-.0134-1.424-.7335-.6797zm-39.376 1.5551-.7081-.7062zm.0089-1.429-.7293.6842zm-.717.7228-3.9848 3.9954 1.416 1.4124 3.9849-3.9955zm44.9211 3.9954-4.1155-4.1264-1.4161 1.4123 4.1155 4.1265zm-50.5729-23.2221c0-14.4015 11.6431-26.0717 26-26.0717v-2c-15.4665 0-28 12.5706-28 28.0717zm45.0515-17.756c4.225 4.6552 6.9485 11.0076 6.9485 17.756h2c0-7.2821-2.934-14.105-7.4675-19.1001zm-19.0515-8.3157c2.3926 0 4.7081.3238 6.9062.9295l.5313-1.9281c-2.3695-.653-4.8637-1.0014-7.4375-1.0014zm20.5191 7.1547 4.0538-4.0646-1.4161-1.4123-4.0538 4.0645zm-39.421 36.7367c-4.3784-4.6667-7.0981-10.9195-7.0981-17.8197h-2c0 7.4383 2.9342 14.173 7.6395 19.1881zm44.9019-17.8197c0 6.8397-2.684 13.0434-6.9976 17.6981l1.467 1.3594c4.6341-5.0006 7.5306-11.6821 7.5306-19.0575zm-5.4675-19.1001c.0352.0387.0509.1187-.0134.1831l-1.4161-1.4124c-.7155.7175-.7066 1.8515-.0515 2.5734zm-.0751 38.1958c-.0011-.0012-.0006-.0007-.0002.0001 0 .0001-.0009-.002-.0009-.0067-.0001-.0101.0036-.0214.0131-.0316l-1.467-1.3594c-.7238.781-.7453 2.0236.0389 2.8099zm-39.3895 1.5433c.7879-.79.762-2.0394.0302-2.8193l-1.4586 1.3684c.0097.0103.0134.0217.0134.0319 0 .0047-.0009.007-.0009.0069.0004-.0009.001-.0014-.0002-.0002z" fill="#666"/><g stroke="#666" stroke-width="2"><path d="m28.2001 28.3213 4.5341 4.5341"/><path d="m85.9999 52h-7"/></g></svg>