<svg fill="none" height="104" viewBox="0 0 104 104" width="104" xmlns="http://www.w3.org/2000/svg"><circle cx="52" cy="52" fill="#e4dcd3" r="52"/><path d="m28.1284 77.0134 5.0804-6.8662c-8.352-9.0651-10.2779-22.7981-3.8217-33.9804 5.443-9.4277 15.4352-14.6022 25.6441-14.3756.7357.0163 1.1599.8162.792 1.4536l-9.8014 16.9763c-2.6544 4.5976-1.0581 10.4886 3.5654 13.158l5.023 2.9c4.6235 2.6693 10.5233 1.1063 13.1777-3.4913l9.8014-16.9764c.3679-.6373 1.2728-.6699 1.6548-.0409 5.3007 8.7279 5.8155 19.9686.3724 29.3963-6.4561 11.1823-19.3122 16.3809-31.3388 13.6804l-3.4061 7.8329" stroke="#666" stroke-width="2"/></svg>