<svg fill="none" height="104" viewBox="0 0 104 104" width="104" xmlns="http://www.w3.org/2000/svg"><circle cx="52" cy="52" fill="#e4dcd3" r="52"/><g stroke="#666" stroke-width="2"><path d="m74.8392 41.4836.9931.1167-.9931-.1167c-.0811.6899.2016 1.3724.7468 1.8029l5.414 4.2757v8.8756l-5.414 4.2757c-.5452.4305-.8279 1.113-.7468 1.8029l.8049 6.8517-6.276 6.276-6.8517-.8049c-.6899-.0811-1.3724.2016-1.8029.7468l-4.2757 5.414h-8.8756l-4.2757-5.414c-.4305-.5452-1.113-.8279-1.8029-.7468l.1167.9931-.1167-.9931-6.8517.8049-6.276-6.276.8049-6.8517c.0811-.6899-.2016-1.3724-.7468-1.8029l-5.414-4.2757v-8.8756l5.414-4.2757c.5452-.4305.8279-1.113.7468-1.8029l-.8049-6.8517 6.276-6.276 6.8517.8049c.6899.0811 1.3724-.2016 1.8029-.7468l4.2757-5.414h8.8756l4.2757 5.414c.4305.5452 1.113.8279 1.8029.7468l6.8517-.8049 6.276 6.276z"/><circle cx="52" cy="52" r="8"/></g></svg>