<svg fill="none" height="35" viewBox="0 0 32 35" width="32" xmlns="http://www.w3.org/2000/svg"><g fill="#66645f"><path d="m15.427 27.6023v-4.8389l-.5503-.1207c-.6022-.1323-1.1744-.3706-1.7006-.7087l-.4749-.3049-3.42507 3.4256-.81155-.8115 3.42502-3.4251-.3049-.4749c-.338-.5264-.5763-1.0985-.7085-1.7007l-.1208-.5502h-4.8389v-1.1476h4.8389l.1208-.5503c.1322-.6023.3705-1.1744.7085-1.7005l.3049-.475-3.42502-3.4251.81163-.81159 3.42529 3.42529.475-.3054c.5249-.3376 1.097-.5758 1.7002-.7083l.5504-.1207v-4.83905h1.1474v4.83905l.5505.1207c.6022.1322 1.1743.3705 1.7006.7084l.4748.305 3.4251-3.42507.8117.81157-3.4252 3.4253.3052.475c.3377.5252.5761 1.0971.7083 1.7001l.1208.5505h4.8388v1.1476h-4.8388l-.1208.5504c-.1321.602-.3706 1.1743-.7085 1.7005l-.3049.4749 3.425 3.4256-.8116.8117-3.4251-3.4256-.475.3051c-.5264.338-1.0983.576-1.6999.7077l-.551.1204v4.8394zm.5735-14.1852c-2.2617 0-4.1016 1.8401-4.1016 4.1016 0 2.2608 1.8397 4.1005 4.101 4.101 2.2618 0 4.1018-1.8397 4.1018-4.101 0-2.2615-1.8399-4.1016-4.1012-4.1016z"/><path d="m7.6123 33.7733 2.51-1.3785-1.20375-.5957c-2.19026-1.0834-4.12785-2.6784-5.60336-4.6128-1.48947-1.9524-2.520171-4.2683-2.980633-6.6976-.793537-4.1848.090145-8.4278 2.488283-11.94716 2.23367-3.27915 5.5817-5.59476 9.42746-6.52056.0159-.00381.0485-.00795.0826-.00795.0052 0 .0101 0 .0147.00016.0249.12853.0476.2418.0693.35004.0486.24211.0901.44975.1389.74469-.0215.01525-.0602.03343-.0915.04219-3.54153.86607-6.63048 3.01065-8.69303 6.03754-2.22523 3.26635-3.0453 7.20355-2.30921 11.08675.87322 4.6052 3.91641 8.5616 8.14049 10.5833l1.30565.625-.7653-3.3779 1.0874-.1473c.0093.0001.0298.0152.0333.0254l.8804 4.4215c.0143.0715-.054.218-.1178.253l-3.86127 2.1216z"/><path d="m19.6538 33.0239c-.0249-.1289-.0477-.2425-.0693-.3512l-.0021-.0104c-.0473-.2366-.0886-.442-.1366-.7333.0216-.0152.06-.0334.0914-.0422 3.5416-.8662 6.6306-3.0108 8.6932-6.0375 2.2253-3.2668 3.0452-7.2043 2.3091-11.0873-.8732-4.6051-3.9164-8.56145-8.1405-10.58343l-1.3055-.62485.7653 3.37789-1.0879.14735c-.0098 0-.03-.01477-.0335-.02475l-.8807-4.42141c-.0143-.07132.054-.21778.1179-.25291l3.8611-2.121376.5523 1.005796-2.5098 1.37822 1.2038.59556c2.1902 1.08353 4.1279 2.67856 5.6035 4.61307 1.4895 1.95244 2.5202 4.26834 2.9807 6.69744.7933 4.1848-.09 8.4275-2.4874 11.9465-2.2335 3.279-5.5816 5.595-9.4274 6.5211-.0154.0036-.0484.0078-.0826.0078-.0055.0001-.0103.0001-.015-.0001z"/></g></svg>