<svg fill="none" height="42" viewBox="0 0 42 42" width="42" xmlns="http://www.w3.org/2000/svg"><g fill="#66645f"><path d="m4.07617 21.0001c0-7.164 5.828-12.99204 12.99303-12.99204 3.51 0 6.058 5.46304 6.058 12.99204 0 8.258-2.208 12.993-6.058 12.993-7.16503-.001-12.99303-5.829-12.99303-12.993zm1.1 0c0 6.557 5.33403 11.891 11.89203 11.891 3.104 0 4.956-4.443 4.956-11.891 0-6.557-2.224-11.89004-4.956-11.89004-6.557-.001-11.89203 5.33304-11.89203 11.89004z"/><path d="m35.987 10.6911c.303 0 .551-.248.551-.551 0-.30401-.248-.55001-.551-.55001h-9.871c-.304 0-.552.246-.552.55001 0 .304.248.551.552.551z"/><path d="m35.987 17.9299c.303 0 .551-.247.551-.551 0-.303-.248-.551-.551-.551h-9.871c-.304 0-.552.248-.552.551 0 .304.248.551.552.551z"/><path d="m35.987 25.1721c.303 0 .551-.248.551-.551s-.248-.551-.551-.551h-9.871c-.304 0-.552.248-.552.551s.248.551.552.551z"/><path d="m35.987 32.4101c.303 0 .551-.246.551-.551 0-.303-.248-.551-.551-.551h-9.871c-.304 0-.552.248-.552.551 0 .305.248.551.552.551z"/></g></svg>