<svg fill="none" height="35" viewBox="0 0 32 35" width="32" xmlns="http://www.w3.org/2000/svg"><g fill="#66645f"><path d="m15.4268 27.6023v-4.8388l-.5503-.1208c-.6022-.1323-1.1744-.3706-1.7006-.7086l-.475-.305-3.42501 3.4256-.81155-.8115 3.42506-3.4251-.305-.4748c-.3379-.5265-.5763-1.0986-.7085-1.7008l-.1208-.5502h-4.83884v-1.1475h4.83884l.1208-.5504c.1323-.6023.3706-1.1744.7085-1.7005l.305-.475-3.42506-3.4251.81163-.81156 3.42523 3.42526.475-.3054c.525-.3375 1.097-.5757 1.7003-.7082l.5504-.1208v-4.83902h1.1473v4.83902l.5506.1208c.6022.1321 1.1743.3704 1.7005.7083l.4749.3051 3.4251-3.42514.8117.81154-3.4253 3.4253.3053.4751c.3377.5252.576 1.097.7083 1.7001l.1207.5505h4.8389v1.1475h-4.8389l-.1207.5504c-.1322.602-.3706 1.1743-.7085 1.7006l-.3049.4748 3.4249 3.4256-.8115.8117-3.4251-3.4256-.475.3051c-.5264.338-1.0984.5761-1.7.7078l-.551.1204v4.8393zm.5735-14.1851c-2.2617 0-4.1016 1.84-4.1016 4.1015 0 2.2608 1.8397 4.1005 4.1009 4.101 2.2618 0 4.1019-1.8397 4.1019-4.101 0-2.2615-1.8399-4.1015-4.1012-4.1015z"/><path d="m7.61218 33.7735 2.51002-1.3786-1.20377-.5957c-2.19026-1.0833-4.12785-2.6784-5.60336-4.6127-1.48947-1.9525-2.520173-4.2683-2.980635-6.6976-.793538-4.1848.090145-8.4278 2.488285-11.94721 2.23367-3.27914 5.58169-5.59476 9.42738-6.52055.016-.00382.0486-.00796.0826-.00796.0052 0 .0102 0 .0148.00017.0248.12852.0476.24179.0693.35003.0485.24212.0901.44975.1388.74469-.0215.01525-.0601.03343-.0914.04219-3.54155.86608-6.63051 3.01066-8.69305 6.03754-2.22523 3.2663-3.045302 7.2036-2.30921 11.0868.87321 4.6051 3.9164 8.5616 8.14049 10.5833l1.30557.625-.7653-3.3779 1.0875-.1474c.0093.0002.0298.0153.0333.0254l.8804 4.4216c.0142.0715-.054.2179-.1178.2529l-3.86129 2.1216z"/><path d="m19.6537 33.0239c-.0249-.1288-.0477-.2424-.0694-.3511l-.002-.0105c-.0474-.2366-.0886-.442-.1366-.7333.0216-.0152.06-.0334.0914-.0422 3.5416-.8662 6.6306-3.0108 8.6932-6.0375 2.2253-3.2668 3.0452-7.2042 2.3091-11.0873-.8732-4.6051-3.9164-8.56142-8.1405-10.5834l-1.3055-.62485.7653 3.37789-1.0879.14735c-.0099 0-.03-.01477-.0335-.02475l-.8807-4.42141c-.0143-.07132.054-.21778.1179-.25291l3.861-2.121375.5523 1.005795-2.5097 1.37822 1.2037.59556c2.1903 1.08353 4.128 2.67856 5.6036 4.61307 1.4894 1.95244 2.5202 4.26831 2.9807 6.69741.7933 4.1848-.09 8.4275-2.4874 11.9466-2.2335 3.279-5.5816 5.5949-9.4275 6.521-.0153.0037-.0483.0078-.0826.0078-.0054.0001-.0103.0001-.0149-.0001z"/></g></svg>