<svg fill="none" height="42" viewBox="0 0 42 42" width="42" xmlns="http://www.w3.org/2000/svg"><path d="m14.987 6.50903h12.029c.118 0 .245.009.38.021.785.088 1.525.45 2.067.983.56.551.918 1.287.918 2.107 0 .092-.006.197-.018.311l-1.362 12.02197c-.093.828-.425 1.594-.938 2.174 1.03.285 1.955.836 2.687 1.572 1.106 1.105 1.792 2.633 1.792 4.311v2.115c0 1.098-.446 2.088-1.169 2.813-.723.723-1.72 1.168-2.813 1.168h-15.115c-1.098 0-2.094-.445-2.818-1.168-.71902-.725-1.16802-1.719-1.16802-2.813v-2.115c0-1.678.68502-3.205 1.79102-4.311.736-.736 1.657-1.287 2.688-1.572-.514-.58-.841-1.346-.938-2.174l-1.359-12.02197c-.013-.113-.017-.218-.017-.315 0-.815.357-1.551.917-2.102.542-.53 1.282-.892 2.068-.983.131-.013.257-.022.378-.022zm1.568 8.35897c-.361 0-.66-.298-.66-.665 0-.365.299-.66.66-.66h8.889c.366 0 .663.294.663.66s-.297.665-.663.665zm.892 3.33c-.366 0-.665-.295-.665-.66 0-.366.299-.665.665-.665h7.109c.366 0 .661.299.661.665 0 .365-.295.66-.661.66zm-1.779 14.136c-.366 0-.66-.295-.66-.66s.294-.662.66-.662h10.667c.367 0 .66.297.66.662s-.293.66-.66.66zm1.779-3.33c-.366 0-.665-.293-.665-.66 0-.365.299-.664.665-.664h7.109c.366 0 .661.299.661.664 0 .367-.295.66-.661.66zm8.229-3.772h-.021-9.305-.021-.769c-1.312 0-2.506.539-3.373 1.404-.866.865-1.404 2.061-1.404 3.373v2.115c0 .73.299 1.395.782 1.879.483.479 1.148.777 1.88.777h15.116c.73 0 1.396-.299 1.879-.777.479-.484.782-1.148.782-1.879v-2.114c0-1.313-.538-2.508-1.404-3.373-.867-.865-2.061-1.404-3.372-1.404h-.77zm-9.352-1.324h9.356c.516-.004.962-.219 1.298-.555h.004c.388-.383.635-.934.707-1.543l1.359-12.02197c.007-.05.007-.104.007-.167 0-.446-.201-.854-.521-1.165-.337-.332-.795-.555-1.286-.609-.068-.009-.148-.013-.232-.013h-12.029c-.084 0-.164.004-.236.013-.487.055-.95.278-1.286.609-.315.312-.521.719-.521 1.16 0 .063.004.123.008.172l1.362 12.02197c.067.609.32 1.16.707 1.543.336.336.782.551 1.303.555z" fill="#66645f"/></svg>