<svg fill="none" height="38" viewBox="0 0 38 38" width="38" xmlns="http://www.w3.org/2000/svg"><g fill="#66645f"><path d="m19 0c-10.5 0-19 8.5-19 19s8.5 19 19 19 19-8.5 19-19-8.5-19-19-19zm0 37c-9.9 0-18-8.1-18-18s8.1-18 18-18 18 8.1 18 18-8.1 18-18 18z"/><path d="m19 4.7998c-7.8 0-14.19995 6.4-14.19995 14.2s6.39995 14.2 14.19995 14.2 14.2001-6.4 14.2001-14.2-6.4001-14.2-14.2001-14.2zm0 16.9c-1.5 0-2.7-1.2-2.7-2.7s1.2-2.7 2.7-2.7 2.7001 1.2 2.7001 2.7-1.2001 2.7-2.7001 2.7zm3.5-4 7.8-5.6c1.2 2 1.9001 4.3 1.9001 6.8l-9.5.4c0-.1 0-.1 0-.2 0-.6-.1001-1-.2001-1.4zm.1 2.2v.3l9.6001-.4c-.2001 2.7-1.2001 5.2-2.8001 7.3l-7.1999-6.1c.2-.4.2999-.7.3999-1.1zm7.2-8.6-7.8 5.5c-.2-.3-.5-.6-.7999-.8l2.3999-9.4c2.4.9 4.6 2.5 6.2 4.7zm-7.2-5-2.3 9.3c-.4-.1-.8-.2-1.3-.2-.1 0-.3 0-.4 0l-3.2-9c1.1-.3 2.3-.5 3.6-.5 1.2-.1 2.4 0 3.6.4zm-8.1.3 3.1 9c-.6.2-1.1.6-1.5 1.1l-8.29995-4.8c1.6-2.5 3.99995-4.4 6.69995-5.3zm-7.09995 6.1 8.29995 4.8c-.2.5-.4 1-.4 1.6 0 .2 0 .5.1.7h-9.59995c0-.2 0-.5 0-.7 0-2.4.5-4.6 1.6-6.4zm8.09995 8-7.89995 5c-.9-1.5-1.5-3.2-1.7-5zm-7.39995 5.8 8.09995-5.1c.3.4.7.7 1.1.9l-3 9.1c-2.6-1-4.69995-2.7-6.19995-4.9zm6.99995 5.2 3-9c.3.1.6.1.8.1h.3l1.7 9.4c-.7.1-1.3.2-2 .2-1.2-.2-2.5-.4-3.8-.7zm6.9.2-1.7-9.4c.5-.2.9001-.4 1.2-.8l7.3 6.2c-1.8 2-4.0999 3.4-6.8 4z"/></g></svg>