<svg fill="none" height="42" viewBox="0 0 42 42" width="42" xmlns="http://www.w3.org/2000/svg"><g fill="#66645f"><path d="m4.07593 20.9998c0-7.164 5.828-12.99199 12.99297-12.99199 3.51 0 6.058 5.46299 6.058 12.99199 0 8.258-2.208 12.993-6.058 12.993-7.16497-.001-12.99297-5.829-12.99297-12.993zm1.1 0c0 6.557 5.33397 11.891 11.89197 11.891 3.104 0 4.956-4.443 4.956-11.891 0-6.557-2.224-11.88999-4.956-11.88999-6.557-.001-11.89197 5.33299-11.89197 11.88999z"/><path d="m35.987 10.6908c.303 0 .551-.248.551-.551 0-.30396-.248-.54996-.551-.54996h-9.871c-.304 0-.552.246-.552.54996 0 .304.248.551.552.551z"/><path d="m35.987 17.9301c.303 0 .551-.247.551-.551 0-.303-.248-.551-.551-.551h-9.871c-.304 0-.552.248-.552.551 0 .304.248.551.552.551z"/><path d="m35.987 25.1718c.303 0 .551-.248.551-.551s-.248-.551-.551-.551h-9.871c-.304 0-.552.248-.552.551s.248.551.552.551z"/><path d="m35.987 32.4101c.303 0 .551-.246.551-.551 0-.303-.248-.551-.551-.551h-9.871c-.304 0-.552.248-.552.551 0 .305.248.551.552.551z"/></g></svg>