<svg fill="none" height="18" viewBox="0 0 18 18" width="18" xmlns="http://www.w3.org/2000/svg"><path d="m15.2793 1.449h-1.1439v-1.449h-1.575v1.449h-7.1217v-1.449h-1.575v1.449h-1.1439c-1.5003 0-2.7198 1.2204-2.7198 2.7207v11.1096c0 1.4994 1.2195 2.7207 2.7198 2.7207h12.5595c1.5003 0 2.7207-1.2213 2.7207-2.7207v-11.1114c-.0018-1.4994-1.2213-2.7189-2.7207-2.7189zm0 14.9742h-12.5595c-.6318 0-1.1448-.513-1.1448-1.1439v-6.8427h14.8491v6.8427c-.0009.6309-.5139 1.1439-1.1448 1.1439zm-12.5595-13.4001h1.1448v.9657h1.5741v-.9648h7.1208v.9657h1.575v-.9657h1.1439c.6309 0 1.1439.5121 1.1439 1.1439v2.6946h-14.8473v-2.6946c0-.6309.513-1.1448 1.1448-1.1448z" fill="#000"/></svg>