<svg fill="none" height="104" viewBox="0 0 104 104" width="104" xmlns="http://www.w3.org/2000/svg"><circle cx="52" cy="52" fill="#e4dcd3" r="52"/><g stroke="#666" stroke-width="2"><path d="m26 29.9731v-.0141l26-8.902 26 8.902v.0141.0162.0165.0166.0167.017.0172.0173.0176.0177.0179.0182.0183.0185.0187.0189.019.0193.0195.0196.0199.02.0203.0204.0207.0208.021.0212.0215.0216.0218.022.0222.0224.0226.0228.023.0232.0234.0237.0238.024.0242.0244.0246.0248.025.0252.0254.0257.0258.026.0263.0264.0266.0269.027.0273.0275.0276.0279.0281.0283.0285.0287.0289.0292.0293.0295.0298.03.0301.0304.0306.0308.031.0313.0314.0317.0318.0321.0323.0325.0327.033.0331.0334.0336.0338.034.0342.0345.0346.0349.0351.0353.0356.0357.036.0362.0364.0366.0369.037.0373.0376.0377.0379.0382.0384.0386.0389.0391.0392.0396.0397.04.0402.0404.0406.0409.0411.0413.0415.0418.042.0422.0425.0427.0429.0431.0434.0436.0438.0441.0443.0445.0447.045.0452.0455.0457.0459.0461.0464.0466.0469.047.0474.0475.0478.048.0483.0485.0487.049.0492.0494.0497.0499.0502.0504.0506.0509.0511.0513.0516.0519.052.0524.0525.0528.053.0533.0536.0537.054.0543.0545.0547.055.0553.0555.0557.056.0562.0564.0568.0569.0572.0575.0577.0579.0582.0585.0587.0589.0592.0595.0597.0599.0602.0605.0607.061.0612.0614.0618.0619.0623.0624.0628.063.0632.0635.0638.064.0643.0645.0648.065.0653.0656.0658.066.0664.0666.0668.0671.0674.0676.0679.0682.0684.0687.0689.0692.0695.0697.07.0703.0705.0708.071.0713.0716.0718.0721.0724.0727.0729.0732.0734.0737.074.0742.0746.0747.0751.0753.0756.0759.0761.0764.0767.077.0772.0775.0778.078.0783.0786.0789.0791.0794.0797.0799.0803.0805.0808.081.0814.0816.0819.0822.0824.0828.083.0832.0836.0839.0841.0844.0847.0849.0853.0855.0858.0861.0864.0867.0869.0872.0875.0878.0881.0884.0886.0889.0893.0895.0897.0901.0904.0906.091.0912.0915.0918.0921.0924.0926.093.0933.0935.0938.0941.0945.0947.0949.0953.0956.0959.0962.0964.0968.097.0974.0976.0979.0982.0986.0988.0991.0994.0997.1.1003.1006.1009.1012.1015.1018.1021.1024.1027.103.1033.1036.1039.1042.1045.1048.1051.1054.1057.106.1064.1066.1069.1073.1075.1078.1082.1085.1087.1091.1094.1097.1099.1103.1107.1109.1112.1115.1119.1121.1125.1128.1131.1134.1137.114.1143.1147.1149.1153.1156.1159.1162.1165.1169.1171.1175.1178.1181.1184.1188.119.1194.1197.12.1203.1207.1209.1213.1216.1219.1223.1225c0 9.9774-6.4165 16.6816-13.0418 20.9526-3.3018 2.1285-6.6113 3.6211-9.0996 4.5817-1.2426.4797-2.2763.8253-2.9965 1.0501-.3599.1124-.6413.1945-.8309.2481-.0107.003-.0211.006-.0312.0088-.0101-.0028-.0205-.0058-.0312-.0088-.1896-.0536-.471-.1357-.8309-.2481-.7202-.2248-1.7539-.5704-2.9965-1.0501-2.4883-.9606-5.7978-2.4532-9.0996-4.5817-6.6253-4.271-13.0418-10.9752-13.0418-20.9526v-.1225-.1223-.1219-.1216-.1213-.1209-.1207-.1203-.12-.1197-.1194-.119-.1188-.1184-.1181-.1178-.1175-.1171-.1169-.1165-.1162-.1159-.1156-.1153-.1149-.1147-.1143-.114-.1137-.1134-.1131-.1128-.1125-.1121-.1119-.1115-.1112-.1109-.1107-.1103-.1099-.1097-.1094-.1091-.1087-.1085-.1082-.1078-.1075-.1073-.1069-.1066-.1064-.106-.1057-.1054-.1051-.1048-.1045-.1042-.1039-.1036-.1033-.103-.1027-.1024-.1021-.1018-.1015-.1012-.1009-.1006-.1003-.1-.0997-.0994-.0991-.0988-.0986-.0982-.0979-.0976-.0974-.097-.0968-.0964-.0962-.0959-.0956-.0953-.0949-.0947-.0945-.0941-.0938-.0935-.0933-.093-.0926-.0924-.0921-.0918-.0915-.0912-.091-.0906-.0904-.0901-.0897-.0895-.0893-.0889-.0886-.0884-.0881-.0878-.0875-.0872-.0869-.0867-.0864-.0861-.0858-.0855-.0853-.0849-.0847-.0844-.0841-.0839-.0836-.0832-.083-.0828-.0824-.0822-.0819-.0816-.0814-.081-.0808-.0805-.0803-.0799-.0797-.0794-.0791-.0789-.0786-.0783-.078-.0778-.0775-.0772-.077-.0767-.0764-.0761-.0759-.0756-.0753-.0751-.0747-.0746-.0742-.074-.0737-.0734-.0732-.0729-.0727-.0724-.0721-.0718-.0716-.0713-.071-.0708-.0705-.0703-.07-.0697-.0695-.0692-.0689-.0687-.0684-.0682-.0679-.0676-.0674-.0671-.0668-.0666-.0664-.066-.0658-.0656-.0653-.065-.0648-.0645-.0643-.064-.0638-.0635-.0632-.063-.0628-.0624-.0623-.0619-.0618-.0614-.0612-.061-.0607-.0605-.0602-.0599-.0597-.0595-.0592-.0589-.0587-.0585-.0582-.0579-.0577-.0575-.0572-.0569-.0568-.0564-.0562-.056-.0557-.0555-.0553-.055-.0547-.0545-.0543-.054-.0537-.0536-.0533-.053-.0528-.0525-.0524-.052-.0519-.0516-.0513-.0511-.0509-.0506-.0504-.0502-.0499-.0497-.0494-.0492-.049-.0487-.0485-.0483-.048-.0478-.0475-.0474-.047-.0469-.0466-.0464-.0461-.0459-.0457-.0455-.0452-.045-.0447-.0445-.0443-.0441-.0438-.0436-.0434-.0431-.0429-.0427-.0425-.0422-.042-.0418-.0415-.0413-.0411-.0409-.0406-.0404-.0402-.04-.0397-.0396-.0392-.0391-.0389-.0386-.0384-.0382-.0379-.0377-.0376-.0373-.037-.0369-.0366-.0364-.0362-.036-.0357-.0356-.0353-.0351-.0349-.0346-.0345-.0342-.034-.0338-.0336-.0334-.0331-.033-.0327-.0325-.0323-.0321-.0318-.0317-.0314-.0313-.031-.0308-.0306-.0304-.0301-.03-.0298-.0295-.0293-.0292-.0289-.0287-.0285-.0283-.0281-.0279-.0276-.0275-.0273-.027-.0269-.0266-.0264-.0263-.026-.0258-.0257-.0254-.0252-.025-.0248-.0246-.0244-.0242-.024-.0238-.0237-.0234-.0232-.023-.0228-.0226-.0224-.0222-.022-.0218-.0216-.0215-.0212-.021-.0208-.0207-.0204-.0203-.02-.0199-.0196-.0195-.0193-.019-.0189-.0187-.0185-.0183-.0182-.0179-.0177-.0176-.0173-.0172-.017-.0167-.0166-.0165z"/><path d="m30 32.8184v-.0039l22-7.7542 22 7.7542v.0039.0151.0152.0154.0156.0157.0159.016.0162.0164.0166.0167.0169.0171.0172.0175.0175.0178.0179.0181.0183.0184.0186.0188.019.0191.0193.0195.0196.0198.02.0202.0204.0205.0207.0209.021.0212.0214.0216.0218.0219.0221.0223.0225.0226.0229.023.0232.0233.0236.0237.0239.0241.0242.0245.0246.0248.025.0252.0254.0255.0257.0259.0261.0263.0265.0266.0268.0271.0272.0274.0275.0278.0279.0282.0283.0285.0287.0289.029.0293.0295.0296.0298.03.0302.0304.0306.0308.031.0311.0314.0315.0318.0319.0321.0323.0325.0327.0329.0331.0333.0335.0337.0338.0341.0343.0344.0347.0348.0351.0352.0354.0357.0358.0361.0362.0364.0367.0368.037.0372.0375.0376.0378.0381.0382.0384.0387.0388.0391.0392.0394.0397.0398.0401.0403.0404.0407.0409.0411.0412.0415.0417.0419.0422.0423.0425.0427.043.0431.0434.0435.0438.044.0442.0444.0446.0448.0451.0452.0455.0456.0459.0461.0463.0465.0467.047.0471.0474.0476.0478.048.0482.0484.0487.0488.0491.0493.0495.0498.0499.0502.0504.0506.0508.051.0513.0515.0517.0519.0521.0524.0525.0528.053.0533.0534.0537.0539.0541.0544.0546.0547.0551.0552.0555.0556.056.0561.0563.0566.0568.0571.0572.0575.0577.058.0581.0584.0587.0588.0591.0593.0595.0598.06.0602.0605.0607.0609.0611.0614.0616.0619.062.0623.0626.0627.063.0633.0634.0637.064.0641.0645.0646.0649.0651.0653.0656.0658.0661.0663.0665.0668.067.0672.0675.0677.068.0682.0684.0687.0689.0692.0693.0697.0699.0701.0703.0706.0709.0711.0713.0716.0718.0721.0723.0725.0728.073.0733.0735.0738.074.0743.0745.0747.0751.0752.0755.0757.076.0763.0765.0767.077.0772.0775.0777.078.0783.0785.0787.079.0792.0795.0798.08.0802.0805.0808.081.0812.0816.0817.0821.0822.0826.0828.083.0833.0836.0838.0841.0843.0846.0848.0851.0854.0856.0859.0861.0864.0867.0869.0872.0874.0877.088.0882.0885.0887.089.0893.0895.0898.09.0904.0906.0908.0911.0914.0916.0919.0922.0924.0927.093.0932.0935.0938.0941.0943.0945.0949.0951.0954.0956.0959.0962.0965.0967.097.0973.0975.0978.0981.0983.0987.0988.0992.0995.0997.1.1002.1006.1008.1011.1013.1017.1019.1021.1025.1027.1031.1033.1035.1039.1041.1044.1047.1049.1053.1055.1058.1061.1063.1066.107.1072.1074c0 8.7023-5.4335 14.5484-11.0529 18.2776-2.8015 1.8591-5.6103 3.1633-7.7227 4.0028-1.0546.4192-1.9317.721-2.5421.9171-.292.0939-.5227.1635-.6823.2101-.1596-.0466-.3903-.1162-.6823-.2101-.6104-.1961-1.4875-.4979-2.5421-.9171-2.1124-.8395-4.9212-2.1437-7.7227-4.0028-5.6194-3.7292-11.0529-9.5753-11.0529-18.2776v-.1074-.1072-.107-.1066-.1063-.1061-.1058-.1055-.1053-.1049-.1047-.1044-.1041-.1039-.1035-.1033-.1031-.1027-.1025-.1021-.1019-.1017-.1013-.1011-.1008-.1006-.1002-.1-.0997-.0995-.0992-.0988-.0987-.0983-.0981-.0978-.0975-.0973-.097-.0967-.0965-.0962-.0959-.0956-.0954-.0951-.0949-.0945-.0943-.0941-.0938-.0935-.0932-.093-.0927-.0924-.0922-.0919-.0916-.0914-.0911-.0908-.0906-.0904-.09-.0898-.0895-.0893-.089-.0887-.0885-.0882-.088-.0877-.0874-.0872-.0869-.0867-.0864-.0861-.0859-.0856-.0854-.0851-.0848-.0846-.0843-.0841-.0838-.0836-.0833-.083-.0828-.0826-.0822-.0821-.0817-.0816-.0812-.081-.0808-.0805-.0802-.08-.0798-.0795-.0792-.079-.0787-.0785-.0783-.078-.0777-.0775-.0772-.077-.0767-.0765-.0763-.076-.0757-.0755-.0752-.0751-.0747-.0745-.0743-.074-.0738-.0735-.0733-.073-.0728-.0725-.0723-.0721-.0718-.0716-.0713-.0711-.0709-.0706-.0703-.0701-.0699-.0697-.0693-.0692-.0689-.0687-.0684-.0682-.068-.0677-.0675-.0672-.067-.0668-.0665-.0663-.0661-.0658-.0656-.0653-.0651-.0649-.0646-.0645-.0641-.064-.0637-.0634-.0633-.063-.0627-.0626-.0623-.062-.0619-.0616-.0614-.0611-.0609-.0607-.0605-.0602-.06-.0598-.0595-.0593-.0591-.0588-.0587-.0584-.0581-.058-.0577-.0575-.0572-.0571-.0568-.0566-.0563-.0561-.056-.0556-.0555-.0552-.0551-.0547-.0546-.0544-.0541-.0539-.0537-.0534-.0533-.053-.0528-.0525-.0524-.0521-.0519-.0517-.0515-.0513-.051-.0508-.0506-.0504-.0502-.0499-.0498-.0495-.0493-.0491-.0488-.0487-.0484-.0482-.048-.0478-.0476-.0474-.0471-.047-.0467-.0465-.0463-.0461-.0459-.0456-.0455-.0452-.0451-.0448-.0446-.0444-.0442-.044-.0438-.0435-.0434-.0431-.043-.0427-.0425-.0423-.0422-.0419-.0417-.0415-.0412-.0411-.0409-.0407-.0404-.0403-.0401-.0398-.0397-.0394-.0392-.0391-.0388-.0387-.0384-.0382-.0381-.0378-.0376-.0375-.0372-.037-.0368-.0367-.0364-.0362-.0361-.0358-.0357-.0354-.0352-.0351-.0348-.0347-.0344-.0343-.0341-.0338-.0337-.0335-.0333-.0331-.0329-.0327-.0325-.0323-.0321-.0319-.0318-.0315-.0314-.0311-.031-.0308-.0306-.0304-.0302-.03-.0298-.0296-.0295-.0293-.029-.0289-.0287-.0285-.0283-.0282-.0279-.0278-.0275-.0274-.0272-.0271-.0268-.0266-.0265-.0263-.0261-.0259-.0257-.0255-.0254-.0252-.025-.0248-.0246-.0245-.0242-.0241-.0239-.0237-.0236-.0233-.0232-.023-.0229-.0226-.0225-.0223-.0221-.0219-.0218-.0216-.0214-.0212-.021-.0209-.0207-.0205-.0204-.0202-.02-.0198-.0196-.0195-.0193-.0191-.019-.0188-.0186-.0184-.0183-.0181-.0179-.0178-.0175-.0175-.0172-.0171-.0169-.0167-.0166-.0164-.0162-.016-.0159-.0157-.0156-.0154-.0152z"/><path d="m74 33-38.5 36.5"/></g></svg>