<svg fill="none" height="104" viewBox="0 0 104 104" width="104" xmlns="http://www.w3.org/2000/svg"><circle cx="52" cy="52" fill="#e4dcd3" r="52"/><path d="m52.9307 67.3595-.4654.8851.4654-.8851c-.5827-.3063-1.2787-.3063-1.8614 0l.4654.8851-.4654-.8851-14.1992 7.465 2.7118-15.8111c.1113-.6487-.1038-1.3107-.5751-1.7702l-11.4874-11.1974 15.8751-2.3068c.6515-.0947 1.2146-.5038 1.5059-1.0941l7.0996-14.3853 7.0996 14.3853c.2913.5903.8544.9994 1.5059 1.0941l15.8751 2.3068-11.4874 11.1974c-.4713.4595-.6864 1.1215-.5751 1.7702l2.7118 15.8111z" stroke="#666" stroke-width="2"/></svg>