<svg fill="none" height="58" viewBox="0 0 62 58" width="62" xmlns="http://www.w3.org/2000/svg"><g fill="#66645f"><path d="m9.06723 26.8893c.78082 0 1.51457-.3014 2.06417-.8474l3.0472-3.0287 5.7971 5.7589c.3364.3333.923.3342 1.2594-.0009.3473-.3452.3473-.9062 0-1.2513l-6.4268-6.3846c-.3123-.3104-.947-.3094-1.2593 0l-3.67692 3.6553c-.2873.2855-.62766.3282-.80485.3282s-.51855-.0427-.80585-.3292l-5.73704-5.7023c-.28731-.2855-.33035-.6236-.33035-.7987 0-.176.04304-.5142.33035-.8007l14.34406-14.25222c.5646-.56098 1.819-.94889 2.6208-.78875l10.7243 2.13052-7.8713 7.82185c-.1652.1641-.2613.3929-.2613.6257 0 .2357.0931.4585.2613.6256l6.2937 6.2533c.3363.3332.9229.3342 1.2593 0 .1682-.1681.2613-.3909.2613-.6266s-.0931-.4585-.2613-.6256l-5.664-5.6267 6.9864-6.94166c.6156-.6117.8529-1.34277.6507-2.0042-.2023-.66244-.8079-1.13986-1.6628-1.30796l-10.3669-2.059905c-.2363-.047743-.4895-.070619-.7568-.070619-1.2684 0-2.6638.540094-3.4727 1.343764l-14.34509 14.25328c-.548581.546-.851901 1.2751-.851901 2.0509s.302319 1.5049.852901 2.051l5.73704 5.7023c.55058.547 1.28336.8474 2.06518.8474z"/><path d="m43.5092 32.1818c-.3364-.3342-.923-.3342-1.2593 0-.1682.1671-.2623.3899-.2623.6256 0 .2358.0941.4586.2623.6257l13.9857 13.8951c.3714.369.5125.9648.3874 1.6332-.1211.6545-.4885 1.312-1.0321 1.8521l-3.3805 3.3589c-.6848.6803-1.5347 1.0702-2.3305 1.0702-.4805 0-.899-.1522-1.1772-.4297l-13.7085-13.6186c-.1682-.1681-.3914-.2596-.6297-.2596-.2362 0-.4614.0915-.6296.2596-.1682.1661-.2603.3889-.2603.6256 0 .2357.0921.4585.2603.6256l13.7074 13.6177c.6177.6137 1.4566.9389 2.4246.9389 1.2783 0 2.5907-.5759 3.6018-1.5795l3.3825-3.3589c1.838-1.8281 2.1273-4.5137.6437-5.9887z"/><path d="m60.5997 8.74203c-.1151-.27153-.3573-.46947-.6486-.52517-.2893-.05669-.5967.03879-.8019.24269l-5.6129 5.57795c-.5616.555-1.6107.554-2.1683-.001l-3.4296-3.4056c-.2893-.2875-.4475-.67142-.4475-1.07823 0-.40582.1582-.78875.4475-1.0772l5.6129-5.57697c.2112-.20887.3013-.50726.2443-.7967-.0571-.28945-.2543-.53114-.5276-.64453-1.5696-.654478-3.1903-.986689-4.8191-.986689-2.8369 0-5.4437 1.037409-7.3397 2.922259-2.7859 2.7671-3.6739 6.85806-2.3795 10.94206l.0821.2556-19.7859 19.6592-.2472-.0647c-1.0281-.2715-2.0762-.4088-3.1133-.4088-2.84 0-5.4518 1.0404-7.35275 2.9282-3.01919 2.9989-3.78299 7.7413-1.94906 12.082.11512.2715.35738.4684.64869.5251.29731.0567.59362-.0348.80184-.2427l5.61488-5.5789c.2783-.2765.6737-.4357 1.0842-.4357.4104 0 .8058.1592 1.0841.4367l3.4276 3.4066c.2903.2875.4495.6714.4495 1.0772 0 .4078-.1602.7898-.4505 1.0772l-5.6119 5.578c-.2092.2089-.3013.5063-.2432.7967.058.2894.2552.5301.5285.6445 1.5667.6545 3.1894.9867 4.8181.9867 2.837 0 5.4437-1.0384 7.3407-2.9232 2.8881-2.8686 3.732-7.2619 2.2014-11.4643l-.0961-.2646 19.4214-19.298.2563.0805c1.2023.375 2.4346.565 3.6598.565 2.841 0 5.4528-1.0404 7.3538-2.9282 3.0192-2.9999 3.783-7.7414 1.947-12.08297zm-3.2063 10.83067c-1.5637 1.5546-3.729 2.411-6.0945 2.411-1.2823 0-2.5687-.2447-3.822-.7261-.3263-.1253-.7057-.0457-.952.199l-20.2453 20.1166c-.2583.2566-.3324.6505-.1852.9827 1.6517 3.7279 1.0631 7.7811-1.4986 10.3274-1.5606 1.5506-3.7199 2.405-6.0804 2.405-.6757 0-1.3674-.0716-2.0582-.2118l-.8108-.1641 4.6359-4.6092c.6266-.6207.973-1.4482.974-2.3295 0-.8802-.3454-1.7078-.972-2.3294l-3.4277-3.4057c-.6266-.6226-1.4585-.9668-2.3444-.9668-.887 0-1.7188.3442-2.3435.9658l-4.63988 4.6112-.16517-.8076c-.62566-3.0685.19921-6.0912 2.20832-8.0865 1.56363-1.5536 3.72793-2.411 6.09243-2.411 1.1092 0 2.2293.186 3.3265.55.3183.1055.6767.0209.912-.2138l20.5706-20.437c.2483-.2476.3284-.6186.2012-.9449-1.4154-3.6324-.7688-7.40807 1.6928-9.8529 2.0081-1.99426 5.0383-2.82379 8.1396-2.1922l.8099.16412-4.6359 4.60719c-.6277.62264-.972 1.44919-.972 2.32945 0 .88024.3443 1.70784.97 2.33044l3.4296 3.4047c.6257.6226 1.4585.9658 2.3445.9658.8839 0 1.7168-.3422 2.3424-.9648l4.6399-4.6102.1642.8076c.6267 3.0675-.1982 6.0902-2.2063 8.0855z"/></g></svg>