<svg fill="none" height="51" viewBox="0 0 74 51" width="74" xmlns="http://www.w3.org/2000/svg"><g stroke="#666" stroke-width="2"><path d="m17 45.0039h-5.5781c-5.75587 0-10.4219-4.6661-10.4219-10.4219s4.66603-10.4219 10.4219-10.4219h1.6317c.1647 0 .2982-.1335.2982-.2982 0-7.0834 5.7422-12.8256 12.8256-12.8256h1.6272c.1311 0 .2475-.07.3067-.187.6944-1.37345 5.3534-9.849315 14.5762-9.8493 9.8423.00002 18.9421 7.42503 16.3767 20.8191-.078.4073.2284.797.6431.797h1.1219c6.1822 0 11.1939 5.0117 11.1939 11.1939s-5.0117 11.1939-11.1939 11.1939h-2.8292"/><path d="m54 50h-33v-26c0-.5523.4477-1 1-1h9l5 4h19v3"/><path d="m37 38h.5l.3-.4 2.7-3.6h19.1072l-5.3992 16h-32.6915l5.1429-12z"/></g></svg>