<svg width="40" height="40" viewBox="0 0 40 40" fill="none" xmlns="http://www.w3.org/2000/svg">
<path d="M32.827 19.446L32.647 18.193C31.851 12.605 27.392 8.14698 21.806 7.35298L20.554 7.17498V0.000976562H19.444V7.17598L18.192 7.35398C12.605 8.14798 8.147 12.606 7.352 18.194L7.174 19.447H0V20.555H7.175L7.353 21.807C8.148 27.395 12.606 31.853 18.193 32.648L19.444 32.827V40H20.554V32.827L21.806 32.648C27.392 31.853 31.852 27.394 32.647 21.807L32.827 20.555H40V19.447H32.827V19.446ZM31.683 20C31.683 26.442 26.442 31.683 20 31.683C13.558 31.683 8.317 26.442 8.317 20C8.317 13.559 13.558 8.31698 20 8.31698C26.442 8.31698 31.683 13.559 31.683 20Z" fill="#66645F"/>
<path d="M20 14.7109C17.083 14.7109 14.71 17.0839 14.71 19.9999C14.71 22.9169 17.083 25.2899 20 25.2899C22.917 25.2899 25.29 22.9169 25.29 19.9999C25.289 17.0839 22.916 14.7109 20 14.7109ZM20 24.1819C17.694 24.1819 15.819 22.3059 15.819 19.9999C15.819 17.6939 17.694 15.8179 20 15.8179C22.305 15.8179 24.182 17.6939 24.182 19.9999C24.182 22.3059 22.305 24.1819 20 24.1819Z" fill="#66645F"/>
</svg>
