<svg width="28" height="38" viewBox="0 0 28 38" fill="none" xmlns="http://www.w3.org/2000/svg">
<path d="M0.0579179 32.2857C0.216936 33.4286 0.853008 34.1905 1.52088 35.0159C2.5068 36.2222 3.71534 37.2063 5.1465 37.9365C5.24191 38 5.33732 38 5.43273 38H5.46454H22.5749H22.7021C22.7657 38 22.8293 37.9683 22.8611 37.9365C24.2923 37.1746 25.5008 36.1905 26.4867 35.0159C27.1546 34.2222 27.7589 33.4286 27.9497 32.2857C28.2041 30.6032 27.5044 28.0635 25.5962 27.5556C25.4054 25.7778 25.2782 24.5397 25.2464 23.8413C25.2146 23.4603 25.1828 23.0476 25.1192 22.6667C25.0556 22.2857 24.992 21.873 24.9284 21.4921C24.8966 21.3016 24.8647 21.1429 24.8329 21.0159V20.9524C24.4831 19.4286 24.4195 16.9524 24.6421 13.619C24.7375 12.2857 24.2923 10.9524 23.4654 10.0635C22.8293 9.39682 22.0342 9.01587 21.1755 9.01587H20.9211H17.7725V7.71428H18.6312C19.2037 7.71428 19.7444 7.46032 20.0624 7.07936C20.3486 6.73016 20.444 6.31746 20.3486 5.90476L19.2355 1.2381C19.0765 0.507937 18.345 0 17.5181 0H10.6167C9.78983 0 9.05834 0.507937 8.89933 1.2381L7.88161 5.90476C7.7862 6.31746 7.88161 6.73016 8.16784 7.07936C8.48588 7.49206 9.02654 7.71428 9.59901 7.71428H10.4577V9.01587H7.46816H7.30915C6.51405 9.04762 5.78257 9.42857 5.1783 10.0317C4.35141 10.9206 3.90616 12.1905 4.00157 13.5238C4.16059 16.3175 4.00157 18.5714 3.46091 20.254L3.4291 20.3492C3.36549 20.6032 3.27008 20.8889 3.17467 21.2381C2.88844 22.3175 2.72942 23.1429 2.69762 23.3016C2.44319 24.7302 2.60221 26.5079 2.69762 27.4603C2.66582 27.4603 2.63401 27.4603 2.60221 27.4603C0.534972 27.9365 -0.228315 30.5714 0.0579179 32.2857ZM2.47499 34.2222C1.80712 33.4286 1.39367 32.8889 1.29826 32.127C1.10744 30.8889 1.6163 29.0159 2.88844 28.7619C3.77894 28.5714 4.82846 29.1746 5.43273 30.1905V36.6984C4.2878 36.0317 3.30189 35.2063 2.47499 34.2222ZM21.43 36.7619H6.70488V30.5397C6.73668 30.5079 6.76848 30.4444 6.76848 30.381H7.27734H20.8257H21.3982V36.7619H21.43ZM8.54949 19.2698H19.5535V29.1429H8.54949V19.2698ZM26.6776 32.0952C26.5503 32.8571 26.1369 33.3968 25.5008 34.1905C24.7375 35.1429 23.7834 35.9365 22.7021 36.5714V30.3492C23.1792 29.3968 24.0379 28.7619 24.8329 28.7302C24.8966 28.7302 24.9284 28.7619 24.992 28.7619C25.0238 28.7619 25.0238 28.7619 25.0556 28.7619H25.0874C25.0874 28.7619 25.0874 28.7619 25.1192 28.7619C26.3277 28.9524 26.8684 30.9206 26.6776 32.0952ZM21.1119 10.3175C21.748 10.3175 22.1932 10.6667 22.4477 10.9524C23.0519 11.5873 23.3382 12.5397 23.2746 13.5556C23.0519 17.0794 23.1155 19.619 23.4972 21.2698V21.3333C23.529 21.4286 23.5608 21.5873 23.5926 21.7778C23.6562 22.127 23.7198 22.5079 23.7834 22.8571C23.847 23.2063 23.8788 23.5873 23.8788 23.9365C23.9106 24.6032 24.0379 25.8413 24.2287 27.5238C23.37 27.7143 22.5113 28.2857 21.907 29.1429H20.7939V10.3175H21.1119ZM9.15376 6.31746C9.12195 6.25397 9.12195 6.22222 9.12195 6.22222L10.1397 1.55556C10.1715 1.46032 10.3305 1.30159 10.6167 1.30159H17.5499C17.8361 1.30159 17.9952 1.42857 18.027 1.55556L19.0447 6.22222C19.0447 6.22222 19.0447 6.28571 19.0129 6.31746C18.9493 6.4127 18.7903 6.47619 18.5676 6.47619H9.5672C9.34458 6.47619 9.21736 6.38095 9.15376 6.31746ZM11.698 7.74603H16.405V9.04762H11.698V7.74603ZM19.5853 10.3175V18H8.54949V10.3175H19.5853ZM3.96976 23.5238C4.00157 23.3651 4.12878 22.6032 4.41502 21.5873C4.51043 21.2381 4.60584 20.9841 4.63764 20.7936L4.66944 20.6984C5.21011 18.8571 5.43273 16.4444 5.24191 13.5238C5.1783 12.5397 5.49634 11.5873 6.10061 10.9524C6.35504 10.6984 6.76848 10.381 7.30915 10.3175V29.1111H6.29143C5.68716 28.2857 4.89207 27.746 4.00157 27.5238C3.90616 26.7302 3.74714 24.9206 3.96976 23.5238Z" fill="#66645F"/>
</svg>
