<svg width="38" height="19" viewBox="0 0 38 19" fill="none" xmlns="http://www.w3.org/2000/svg">
<path d="M37.4286 5.152H33.7836V2.971C33.7836 1.333 32.4456 0 30.7976 0H3.30663C1.70763 0 0.367631 1.299 0.320631 2.894C0.315631 3.045 0.369631 3.19 0.473631 3.3C0.580631 3.415 0.728631 3.48 0.892631 3.483C1.20263 3.483 1.45363 3.241 1.46263 2.931C1.49263 1.928 2.30263 1.141 3.30663 1.141H16.8826L13.4926 8.769C13.4296 8.909 13.4266 9.065 13.4806 9.207C13.5356 9.35 13.6436 9.463 13.7836 9.524C13.8526 9.555 13.9316 9.572 14.0076 9.572H19.2256L15.9866 16.864H15.3986C15.0886 16.864 14.8346 17.116 14.8296 17.426C14.8276 17.58 14.8856 17.725 14.9916 17.835C15.0996 17.946 15.2426 18.004 15.4136 18.005H30.7986C32.4466 18.005 33.7846 16.666 33.7846 15.021V12.854H37.4296C37.7446 12.854 38.0016 12.597 38.0016 12.282V5.724C38.0006 5.408 37.7436 5.152 37.4286 5.152ZM36.8566 6.293V11.711H33.7836V6.293H36.8566ZM20.6116 9.232C20.6716 9.092 20.6766 8.938 20.6236 8.797C20.5656 8.654 20.4606 8.541 20.3196 8.48C20.2506 8.449 20.1736 8.431 20.0956 8.431H14.8786L18.1176 1.141H30.7976C31.8306 1.141 32.6416 1.944 32.6416 2.971V15.02C32.6416 16.053 31.8306 16.864 30.7976 16.864H17.2346L20.6116 9.232Z" fill="#66645F"/>
</svg>
