<svg width="80" height="80" viewBox="0 0 80 80" fill="none" xmlns="http://www.w3.org/2000/svg">
<circle cx="40" cy="40" r="40" fill="#E4DCD3"/>
<path d="M40.1148 60.72C28.4534 60.72 19 51.2602 19 39.5909C19 31.0385 24.0778 23.6729 31.3811 20.3483M60.8525 35.5951C59.0317 26.0759 50.8277 18.8252 40.8696 18.4751C40.4533 18.4604 40.1148 18.7997 40.1148 19.2164V28.6491M45.7483 61.4746C45.7483 55.64 49.6409 50.9101 54.4426 50.9101M54.4426 50.9101C59.2444 50.9101 63.1369 55.64 63.1369 61.4746M54.4426 50.9101C59.2444 50.9101 63.1369 46.1802 63.1369 40.3455M54.4426 50.9101C49.6409 50.9101 45.7483 46.1802 45.7483 40.3455M43.8852 39.5909H65M43.8852 60.72H65M31.3774 20.3499C32.7603 19.7201 34.2229 19.2352 35.746 18.9146M31.0656 30.9129L38.7967 39.7042C39.1602 40.1175 39.3607 40.6492 39.3607 41.1998V49.7781" stroke="#666666" stroke-width="1.5"/>
</svg>
