<svg width="76" height="47" viewBox="0 0 76 47" fill="none" xmlns="http://www.w3.org/2000/svg">
<path d="M12.9002 35.1999C12.6002 35.1999 12.4002 34.9999 12.3002 34.7999L9.0002 24.3999H0.800196C0.500196 24.3999 0.200195 24.0999 0.200195 23.7999C0.200195 23.4999 0.500196 23.1999 0.800196 23.1999H9.5002C9.8002 23.1999 10.0002 23.3999 10.1002 23.5999L13.1002 32.9999L22.3002 14.1999C22.4002 13.9999 22.6002 13.8999 22.8002 13.8999C23.0002 13.8999 23.2002 13.9999 23.3002 14.2999L26.8002 22.8999H47.2002C47.5002 22.8999 47.8002 23.1999 47.8002 23.4999C47.8002 23.7999 47.5002 24.0999 47.2002 24.0999H26.5002C26.3002 24.0999 26.1002 23.9999 26.0002 23.6999L22.8002 15.8999L13.5002 34.7999C13.3002 34.9999 13.1002 35.1999 12.9002 35.1999Z" fill="#6E6C66"/>
<path d="M53.2998 30C49.6998 30 46.7998 27.1 46.7998 23.5C46.7998 19.9 49.6998 17 53.2998 17C56.8998 17 59.7998 19.9 59.7998 23.5C59.7998 27.1 56.8998 30 53.2998 30ZM53.2998 18.2C50.3998 18.2 47.9998 20.6 47.9998 23.5C47.9998 26.4 50.3998 28.8 53.2998 28.8C56.1998 28.8 58.5998 26.4 58.5998 23.5C58.5998 20.6 56.2998 18.2 53.2998 18.2Z" fill="#6E6C66"/>
<path d="M52.9998 38.0001C47.1998 38.0001 41.7998 34.4001 39.5998 29.1001C39.4998 28.8001 39.5998 28.5001 39.8998 28.3001C40.1998 28.2001 40.4998 28.3001 40.6998 28.6001C42.6998 33.5001 47.6998 36.8001 52.9998 36.8001C60.2998 36.8001 66.2998 30.8001 66.2998 23.5001C66.2998 16.2001 60.2998 10.2001 52.9998 10.2001C47.3998 10.2001 42.2998 13.7001 40.3998 19.0001C40.2998 19.3001 39.9998 19.5001 39.6998 19.3001C39.3998 19.2001 39.1998 18.9001 39.3998 18.6001C41.4998 12.9001 46.9998 9.1001 53.0998 9.1001C61.0998 9.1001 67.4998 15.6001 67.4998 23.5001C67.4998 31.5001 60.9998 38.0001 52.9998 38.0001Z" fill="#6E6C66"/>
<path d="M53.0004 46.5C42.3004 46.5 33.1004 39.2 30.6004 28.8C30.5004 28.5 30.7004 28.2 31.0004 28.1C31.3004 28 31.6004 28.2 31.7004 28.5C34.1004 38.4 42.8004 45.3 53.0004 45.3C65.0004 45.3 74.8004 35.5 74.8004 23.5C74.8004 11.5 65.0004 1.7 53.0004 1.7C42.7004 1.7 33.6004 9.1 31.6004 19.2C31.5004 19.5 31.2004 19.7 30.9004 19.7C30.6004 19.6 30.4004 19.3 30.4004 19C32.7004 8.3 42.1004 0.5 53.0004 0.5C65.7004 0.5 76.0004 10.8 76.0004 23.5C76.0004 36.2 65.7004 46.5 53.0004 46.5Z" fill="#6E6C66"/>
</svg>
