<svg width="80" height="80" viewBox="0 0 80 80" fill="none" xmlns="http://www.w3.org/2000/svg">
<path d="M12.3874 30.7908H21.6954V49.2088H12.3874V30.7908ZM23.1014 49.5448V30.4528L40.5984 18.1488V61.8508L23.1014 49.5448ZM42.0064 15.4458L22.1974 29.3838H10.9814V50.6148H22.1974L42.0064 64.5538V15.4458Z" fill="#6E6C66"/>
<path d="M51.1719 50.9669C56.5179 44.6579 56.5179 35.3349 51.1719 29.0249L52.1719 28.0259C58.0629 34.8889 58.0609 45.1019 52.1679 51.9629L51.1719 50.9669Z" fill="#6E6C66"/>
<path d="M60.2705 59.1579C70.0755 48.3199 70.0775 31.6929 60.2785 20.8549L61.2685 19.8789C71.6025 31.2579 71.6025 48.7729 61.2725 60.1529L60.2705 59.1579Z" fill="#6E6C66"/>
</svg>
