<svg width="38" height="38" viewBox="0 0 38 38" fill="none" xmlns="http://www.w3.org/2000/svg">
<path d="M19 0C8.5 0 0 8.5 0 19C0 29.5 8.5 38 19 38C29.5 38 38 29.5 38 19C38 8.5 29.5 0 19 0ZM19 37C9.1 37 1 28.9 1 19C1 9.1 9.1 1 19 1C28.9 1 37 9.1 37 19C37 28.9 28.9 37 19 37Z" fill="#66645F"/>
<path d="M18.9998 4.80005C11.1998 4.80005 4.7998 11.2 4.7998 19C4.7998 26.8 11.1998 33.2001 18.9998 33.2001C26.7998 33.2001 33.1998 26.8 33.1998 19C33.1998 11.2 26.7998 4.80005 18.9998 4.80005ZM18.9998 21.7001C17.4998 21.7001 16.2998 20.5 16.2998 19C16.2998 17.5 17.4998 16.3 18.9998 16.3C20.4998 16.3 21.6998 17.5 21.6998 19C21.6998 20.5 20.4998 21.7001 18.9998 21.7001ZM22.4998 17.7L30.2998 12.1C31.4998 14.1 32.1998 16.4 32.1998 18.9L22.6998 19.3C22.6998 19.2 22.6998 19.2 22.6998 19.1C22.6998 18.5 22.5998 18.1 22.4998 17.7ZM22.5998 19.9V20.2L32.1998 19.8C31.9998 22.5 30.9998 25 29.3998 27.1L22.1998 21C22.3998 20.6 22.4998 20.3 22.5998 19.9ZM29.7998 11.3L21.9998 16.8C21.7998 16.5 21.4998 16.2 21.1998 16L23.5998 6.60005C25.9998 7.50005 28.1998 9.10005 29.7998 11.3ZM22.5998 6.30005L20.2998 15.6C19.8998 15.5 19.4998 15.4 18.9998 15.4C18.8998 15.4 18.6998 15.4 18.5998 15.4L15.3998 6.40005C16.4998 6.10005 17.6998 5.90005 18.9998 5.90005C20.1998 5.80005 21.3998 5.90005 22.5998 6.30005ZM14.4998 6.60005L17.5998 15.6C16.9998 15.8 16.4998 16.2 16.0998 16.7L7.7998 11.9C9.3998 9.40005 11.7998 7.50005 14.4998 6.60005ZM7.3998 12.7L15.6998 17.5C15.4998 18 15.2998 18.5 15.2998 19.1C15.2998 19.3 15.2998 19.6 15.3998 19.8H5.7998C5.7998 19.6 5.7998 19.3 5.7998 19.1C5.7998 16.7 6.2998 14.5 7.3998 12.7ZM15.4998 20.7L7.5998 25.7001C6.6998 24.2001 6.0998 22.5 5.8998 20.7H15.4998ZM8.0998 26.5L16.1998 21.4C16.4998 21.8 16.8998 22.1 17.2998 22.3L14.2998 31.4001C11.6998 30.4001 9.5998 28.7001 8.0998 26.5ZM15.0998 31.7001L18.0998 22.7001C18.3998 22.8001 18.6998 22.8 18.8998 22.8C18.9998 22.8 19.0998 22.8 19.1998 22.8L20.8998 32.2001C20.1998 32.3001 19.5998 32.4001 18.8998 32.4001C17.6998 32.2001 16.3998 32 15.0998 31.7001ZM21.9998 31.9001L20.2998 22.5C20.7998 22.3 21.1998 22.1 21.4998 21.7001L28.7998 27.9C26.9998 29.9 24.6998 31.3001 21.9998 31.9001Z" fill="#66645F"/>
</svg>
