<svg enable-background="new 0 0 42 42" height="42" viewBox="0 0 42 42" width="42" xmlns="http://www.w3.org/2000/svg"><g fill="#66645f"><path d="m33.827 20.446-.18-1.253c-.796-5.588-5.255-10.046-10.841-10.84l-1.252-.178v-7.174h-1.11v7.175l-1.252.178c-5.587.794-10.045 5.252-10.84 10.84l-.178 1.253h-7.174v1.108h7.175l.178 1.252c.795 5.588 5.253 10.046 10.84 10.841l1.251.179v7.173h1.11v-7.173l1.252-.179c5.586-.795 10.046-5.254 10.841-10.841l.18-1.252h7.173v-1.108h-7.173zm-1.144.554c0 6.442-5.241 11.683-11.683 11.683s-11.683-5.241-11.683-11.683c0-6.441 5.241-11.683 11.683-11.683s11.683 5.242 11.683 11.683z"/><path d="m21 15.711c-2.917 0-5.29 2.373-5.29 5.289 0 2.917 2.373 5.29 5.29 5.29s5.29-2.373 5.29-5.29c-.001-2.916-2.374-5.289-5.29-5.289zm0 9.471c-2.306 0-4.181-1.876-4.181-4.182s1.875-4.182 4.181-4.182c2.305 0 4.182 1.876 4.182 4.182s-1.877 4.182-4.182 4.182z"/></g></svg>