<svg enable-background="new 0 0 42 42" height="42" viewBox="0 0 42 42" width="42" xmlns="http://www.w3.org/2000/svg"><path d="m34.624 13.368h-5.991v-5.993c0-1.86-1.515-3.375-3.376-3.375h-17.882c-1.861 0-3.375 1.515-3.375 3.375v17.882c0 1.861 1.514 3.375 3.375 3.375h5.992v5.992c0 1.861 1.513 3.375 3.375 3.375h17.882c1.861.001 3.376-1.513 3.376-3.374v-17.882c0-1.862-1.515-3.375-3.376-3.375zm-29.834 7.072v-5.709l9.926-9.941h5.724zm2.585-15.65h6.239l-8.824 8.81v-6.225c0-1.45 1.135-2.585 2.585-2.585zm0 23.054c-.326 0-.646-.061-.95-.178l-.654-.254 21.638-21.637.257.648c.118.305.178.617.178.952v3.689l-16.78 16.779h-3.689zm20.469-8.823v6.237c0 1.451-1.136 2.586-2.587 2.586h-6.253zm0-6.84v5.709l-9.941 9.954h-5.723zm6.78 25.03h-17.882c-1.45 0-2.586-1.137-2.586-2.586v-5.992h11.101c1.861 0 3.376-1.514 3.376-3.375v-11.101h5.991c1.451 0 2.586 1.136 2.586 2.586v17.882c0 1.449-1.135 2.586-2.586 2.586zm-7.772-31.981-21.636 21.622-.25-.66c-.117-.309-.176-.623-.176-.934v-3.701l16.766-16.767h3.701c.293 0 .598.062.935.189z" fill="#66645f"/></svg>