<svg enable-background="new 0 0 42 42" height="42" viewBox="0 0 42 42" width="42" xmlns="http://www.w3.org/2000/svg"><path d="m16.25 39.736c-.787-.787-.787-1.889 0-2.676l1.271-1.271-11.311-11.308-1.27 1.268c-.789.79-1.888.79-2.678 0l-1.67-1.67c-.789-.79-.789-1.89-.001-2.676l3.412-3.412c.787-.789 1.89-.79 2.679-.001l1.67 1.67c.788.79.787 1.891-.001 2.68l-1.269 1.27 5.22 5.221 16.529-16.53-5.22-5.22-1.273 1.272c-.788.788-1.888.788-2.677 0l-1.67-1.672c-.79-.788-.79-1.889 0-2.677l3.41-3.411c.789-.79 1.89-.79 2.678 0l1.672 1.67c.789.789.789 1.889 0 2.678l-1.272 1.272 11.312 11.31 1.271-1.271c.79-.79 1.889-.79 2.676-.001l1.674 1.671c.787.789.787 1.888-.003 2.678l-3.41 3.41c-.79.79-1.889.79-2.679 0l-1.671-1.67c-.787-.79-.787-1.889 0-2.677l1.274-1.272-5.225-5.221-16.528 16.528 5.222 5.221 1.271-1.271c.787-.787 1.889-.79 2.677 0l1.672 1.671c.789.79.786 1.892-.001 2.678l-3.413 3.412c-.787.787-1.888.787-2.676 0zm.4-1.337 2.61 2.61 4.352-4.352-2.612-2.609zm-15.66-15.66 2.61 2.61 4.351-4.349-2.61-2.61zm33.058-1.739 2.611 2.61 4.35-4.349-2.611-2.61zm-15.657-15.659 2.609 2.611 4.349-4.35-2.61-2.61z" fill="#66645f"/></svg>