<svg fill="none" height="80" viewBox="0 0 80 80" width="80" xmlns="http://www.w3.org/2000/svg"><g fill="#6e6c66"><path d="m26.117 65.9459c-2.548 0-4.13-1.996-4.767-3.879-.978-4.842-1.982-10.118-3.045-15.703-1.002-5.267-2.038-10.711-3.109-16.086-.175-.646-.139-1.288.085-1.807.221-.507.591-.967 1.102-1.367.905-.707 1.91-1.081 2.905-1.081.909 0 1.803.354 2.734 1.081.666.52 1.553 1.423 2.013 2.778.992 4.771 1.942 9.648 2.86 14.367.779 4.002 1.585 8.14 2.414 12.198l.112.551h14.498c2.435 0 4.122 2.539 4.122 4.817-.032 2.043-1.857 3.855-4.162 4.131zm-7.532-25.307c1.297 6.694 2.678 13.8141 4.065 20.8791l.008.043.015.0439c.464 1.3791 1.274 2.963 3.444 2.963h17.883l.079-.02c.641-.154 2.589-.6239 2.589-2.733 0-1.71-.94-3.44-2.736-3.44h-15.088c-.305 0-.621-.261-.677-.56l-1.355-6.864c-1.351-6.848-2.703-13.699-4.079-20.525l-.009-.048-.018-.046c-.502-1.412-1.782-2.931-3.404-2.931h-.034c-.939 0-1.902.534-2.644 1.464l-.057.071-.036.083c-.129.299-.141.52-.037.854.662 3.399 1.364 7.015 2.091 10.766z"/><path d="m29.491 21.8961c-3.41 0-6.184-2.778-6.184-6.194 0-3.417 2.774-6.19502 6.184-6.19502s6.185 2.77902 6.185 6.19502c-.001 3.415-2.775 6.194-6.185 6.194zm0-11.013c-2.652 0-4.811 2.161-4.811 4.818 0 2.656 2.158 4.817 4.811 4.817s4.812-2.161 4.812-4.817c-.001-2.657-2.159-4.818-4.812-4.818z"/><path d="m65.222 65.912c-.875 0-1.73-.265-2.472-.767-2.35-2.088-4.652-4.345-6.881-6.526-1.879-1.841-3.822-3.745-5.792-5.547l-.198-.181h-12.743c-.811 0-1.628-.35-2.429-1.038-.633-.545-1.182-1.256-1.587-2.055-.877-3.007-1.572-6.327-2.307-9.839-.759-3.63-1.543-7.383-2.592-11.068-.513-2.108 1.099-3.657 1.605-4.081 1.187-.993 2.563-1.539 3.875-1.539.136 0 .254.03.354.086l9.39 5.384 2.434-.37c2.106-.32 4.218-.641 6.314-.979.004 0 .129-.002.203-.002 1.872 0 3.902 1.265 3.938 4.042.159 1.723-.798 3.33-2.434 4.151-.067.035-.129.057-.192.069l-10.965 2.064c-.056.011-.103.016-.148.016-.086 0-.172-.016-.25-.046l-2.132-.854 1.552 5.711h10.445c.194 0 .386.083.511.215l4.149 4.346c3.904 4.088 7.811 8.179 11.691 12.272 1.2 1.652 1.156 3.317-.135 5.09-.762.906-1.941 1.446-3.204 1.446zm-15.042-14.398c.171 0 .346.067.469.182l12.857 12.297.052.034c.551.362 1.148.553 1.731.553.849 0 1.621-.387 2.172-1.09l.044-.057.032-.063c.565-1.146.553-2.074-.042-3.103l-.042-.07-15.549-16.275h-10.668c-.313-.025-.575-.267-.689-.678l-.28-1.021-6.346 5.201.395 1.705.04.077c.324.621.773 1.205 1.235 1.603.505.435 1.097.704 1.544.704h13.045zm-16.831-26.794c-.786.107-1.632.467-2.584 1.098l-.035.022-.032.027c-.79.675-1.183 1.55-1.165 2.6l.001.073 4.046 17.388 6.29-5.157-1.341-4.926c-.055-.212.08-.42.141-.499.158-.205.405-.342.614-.342.057 0 .108.009.158.028l3.228 1.298 10.618-1.995.101-.057c1.005-.573 1.668-1.89 1.589-2.687-.074-1.771-1.019-2.818-2.588-2.836l-.056-.001-.056.008c-1.737.265-3.474.537-5.211.808-1.221.191-2.439.382-3.658.569-.034.006-.067.008-.102.008-.122 0-.246-.033-.348-.094l-9.379-5.367z"/></g></svg>