<svg fill="none" height="80" viewBox="0 0 80 80" width="80" xmlns="http://www.w3.org/2000/svg"><g fill="#6e6c66"><path d="m16.287 37.087 3.303-7.42c3.335-7.595 10.897-12.125 20.229-12.125h14.2v19.546h-37.732zm23.532-18.26c-8.752 0-15.879 4.265-19.062 11.41l-2.513 5.633h34.49v-17.043z"/><path d="m59.211 47.0569c-3.36 0-6.091 2.729-6.091 6.09v2.537h-1.015c-.97 0-1.776.807-1.776 1.776v10.656c0 .972.807 1.778 1.776 1.778h14.21c.971 0 1.776-.807 1.776-1.778v-10.656c0-.97-.806-1.776-1.776-1.776h-1.015v-2.537c.001-3.362-2.73-6.09-6.089-6.09zm0 1.521c2.542 0 4.566 2.026 4.566 4.568v2.537h-9.135v-2.537c.001-2.542 2.025-4.568 4.569-4.568zm-7.106 8.629h14.21c.153 0 .253.1.253.253v10.656c0 .155-.1.255-.253.255h-14.21c-.153 0-.253-.1-.253-.255v-10.656c.001-.153.1-.253.253-.253zm7.098 3.536c-.421.005-.758.35-.754.769v.008 2.539c-.006.419.33.766.75.771.421.007.768-.331.772-.75.001-.008.001-.016 0-.021v-2.539c.01-.419-.325-.768-.745-.776-.007-.001-.015-.001-.023-.001z"/><path d="m43.176 60.759h-21.389l-11.82698-21.259 4.57498-10.346c4.462-9.972 14.389-16.414 25.284-16.414h19.069v29.192c.231-.01.458-.035.691-.035.2 0 .395.022.594.03v-30.54h-20.354c-11.402 0-21.786 6.75-26.449 17.195l-4.82898 10.961 12.52098 22.5h22.333c-.092-.421-.16-.851-.219-1.284z"/></g></svg>