<svg enable-background="new 0 0 40 40" viewBox="0 0 40 40" xmlns="http://www.w3.org/2000/svg"><g fill="#66645f"><path d="m25.8 10.4c.1 0 .2.1.3.1.2 0 .4-.1.5-.3.1-.1.1-.3 0-.4 0-.1-.1-.2-.3-.3-1.9-1-4-1.6-6.1-1.6-6.8 0-12.3 5.4-12.3 12.1 0 .3.2.6.6.6s.5-.3.5-.6c0-6.1 5-11 11.2-11 1.9 0 3.8.5 5.6 1.4z"/><path d="m29 11.3c-.1 0-.3.1-.4.1l-7.4 6.7-.1-.1c-.4-.2-.8-.3-1.1-.3-1.3 0-2.3 1-2.3 2.3s1 2.3 2.3 2.3 2.3-1 2.3-2.3c0-.3-.1-.6-.2-.9l-.1-.2 7.4-6.7c.3-.3.2-.6.1-.8-.2-.1-.4-.1-.5-.1zm-7.7 8.7c0 .7-.6 1.3-1.3 1.3s-1.3-.6-1.3-1.3.6-1.3 1.3-1.3 1.3.6 1.3 1.3z"/><path d="m25.6 28.9h-11.2c-.3 0-.5.2-.5.5s.2.5.5.5h11.2c.3 0 .5-.2.5-.5 0-.2-.2-.5-.5-.5z"/><path d="m31.1 14.3c-.1-.2-.3-.3-.5-.3-.1 0-.2 0-.3.1-.3.1-.4.4-.2.7.9 1.5 1.3 3.3 1.3 5.1 0 .3.2.6.6.6.3 0 .6-.2.6-.6 0-1.9-.5-3.9-1.5-5.6z"/><path d="m20 1c-10.5 0-19 8.5-19 19s8.5 19 19 19 19-8.5 19-19-8.5-19-19-19zm17.9 19c0 9.9-8 17.9-17.9 17.9s-17.9-8-17.9-17.9 8-17.9 17.9-17.9 17.9 8 17.9 17.9z"/></g></svg>