<svg fill="none" height="40" viewBox="0 0 40 40" width="40" xmlns="http://www.w3.org/2000/svg"><g fill="#66645f"><path d="m20 40c11.0272 0 20-8.9728 20-20 0-11.02716-8.9728-20-20-20-11.02716 0-20 8.97284-20 20 0 11.0272 8.97284 20 20 20zm0-39.012346c10.484 0 19.0123 8.528396 19.0123 19.012346 0 10.484-8.5283 19.0123-19.0123 19.0123-10.48395 0-19.012346-8.5283-19.012346-19.0123 0-10.48395 8.528396-19.012346 19.012346-19.012346z"/><path d="m22.6072 19.9951c.1234 0 .2419-.0445.3407-.1334.1975-.1876.2074-.4987.0197-.6963-.7703-.8098-1.8518-1.279-2.9678-1.279-1.1309 0-2.1828.4543-2.963 1.279-.1877.1976-.1778.5087.0197.6963.1976.1877.5087.1778.6963-.0197.5926-.6222 1.3877-.9679 2.247-.9679.8592 0 1.6592.3457 2.2469.9679.0987.1037.2271.1531.3605.1531z"/><path d="m5.02691 17.1309c1.8321.395 3.34815.558 4.63704.558 3.01235 0 4.77035-.879 6.38025-1.6889 1.2741-.637 2.3753-1.1901 3.9506-1.1901s2.6766.5481 3.9506 1.1901c2.2963 1.1506 4.9037 2.4543 11.0223 1.1259.1283-.0296.2419-.1037.3111-.2173.0691-.1135.0938-.2469.0642-.3753-1.5902-7.10614-8.0445-12.26663-15.3432-12.26663-7.2988 0-13.75313 5.16049-15.3482 12.27163-.02963.1284-.00493.2617.0642.3753.06914.1136.18272.1876.31111.2173zm14.97289-11.87658c6.6716 0 12.5925 4.60247 14.2666 11.01728-5.4222 1.0765-7.7827-.1037-9.8765-1.1506-1.3284-.6667-2.5827-1.2938-4.3901-1.2938-1.8075 0-3.0667.6271-4.3902 1.2938-2.0889 1.0469-4.4494 2.2271-9.87158 1.1506 1.66914-6.41481 7.59008-11.01728 14.26178-11.01728z"/><path d="m17.5802 35.5506c.0247.005.0494.005.0741.005.1185 0 .2321-.0395.321-.1186.1086-.0938.1728-.2321.1728-.3753 0-9.0568-4.4642-13.6494-13.25923-13.6494h-.00494c-.1432 0-.27654.0593-.37037.1679-.09382.1038-.13827.247-.11851.3902.85926 6.9284 6.28145 12.5136 13.18515 13.5802zm-.4247-1.0765c-6.0049-1.1753-10.71107-6.0247-11.70366-12.0692 7.68886.1828 11.52096 4.1383 11.70366 12.0692z"/><path d="m35.1112 21.4074c-8.795 0-13.2592 4.5926-13.2642 13.6494 0 .1432.0642.2815.1729.3753.0889.079.2024.1185.321.1185.0246 0 .0493 0 .074-.0049 6.8988-1.0667 12.326-6.6519 13.1902-13.5852.0197-.1383-.0247-.2815-.1186-.3901-.0938-.1087-.2271-.1679-.3703-.1679 0 .0049 0 .0049-.005.0049zm-12.2666 13.0667c.1827-7.9309 4.0148-11.8864 11.7037-12.0692-.9926 6.0395-5.6988 10.8889-11.7037 12.0692z"/></g></svg>