<svg fill="none" height="38" viewBox="0 0 28 38" width="28" xmlns="http://www.w3.org/2000/svg"><path d="m.0579179 32.2857c.1590181 1.1429.7950901 1.9048 1.4629621 2.7302.98592 1.2063 2.19446 2.1904 3.62562 2.9206.09541.0635.19082.0635.28623.0635h.03181 17.11036.1272c.0636 0 .1272-.0317.159-.0635 1.4312-.7619 2.6397-1.746 3.6256-2.9206.6679-.7937 1.2722-1.5873 1.463-2.7302.2544-1.6825-.4453-4.2222-2.3535-4.7301-.1908-1.7778-.318-3.0159-.3498-3.7143-.0318-.381-.0636-.7937-.1272-1.1746-.0636-.381-.1272-.7937-.1908-1.1746-.0318-.1905-.0637-.3492-.0955-.4762v-.0635c-.3498-1.5238-.4134-4-.1908-7.3334.0954-1.3333-.3498-2.6666-1.1767-3.5555-.6361-.66668-1.4312-1.04763-2.2899-1.04763h-.2544-3.1486v-1.30159h.8587c.5725 0 1.1132-.25396 1.4312-.63492.2862-.3492.3816-.7619.2862-1.1746l-1.1131-4.66666c-.159-.730163-.8905-1.2381-1.7174-1.2381h-6.9014c-.82687 0-1.55836.507937-1.71737 1.2381l-1.01772 4.66666c-.09541.4127 0 .8254.28623 1.1746.31804.4127.8587.63492 1.43117.63492h.85869v1.30159h-2.98954-.15901c-.7951.03175-1.52658.4127-2.13085 1.01583-.82689.8889-1.27214 2.1588-1.17673 3.4921.15902 2.7937 0 5.0476-.54066 6.7302l-.03181.0952c-.06361.254-.15902.5397-.25443.8889-.28623 1.0794-.44525 1.9048-.47705 2.0635-.25443 1.4286-.09541 3.2063 0 4.1587-.0318 0-.06361 0-.09541 0-2.067238.4762-2.830525 3.1111-2.5442921 4.8254zm2.4170721 1.9365c-.66787-.7936-1.08132-1.3333-1.17673-2.0952-.19082-1.2381.31804-3.1111 1.59018-3.3651.8905-.1905 1.94002.4127 2.54429 1.4286v6.5079c-1.14493-.6667-2.13084-1.4921-2.95774-2.4762zm18.95501 2.5397h-14.72512v-6.2222c.0318-.0318.0636-.0953.0636-.1587h.50886 13.54836.5725v6.3809zm-12.88051-17.4921h11.00401v9.8731h-11.00401zm18.12811 12.8254c-.1273.7619-.5407 1.3016-1.1768 2.0953-.7633.9524-1.7174 1.746-2.7987 2.3809v-6.2222c.4771-.9524 1.3358-1.5873 2.1308-1.619.0637 0 .0955.0317.1591.0317h.0636.0318.0318c1.2085.1905 1.7492 2.1587 1.5584 3.3333zm-5.5657-21.7777c.6361 0 1.0813.3492 1.3358.6349.6042.6349.8905 1.5873.8269 2.6032-.2227 3.5238-.1591 6.0634.2226 7.7142v.0635c.0318.0953.0636.254.0954.4445.0636.3492.1272.7301.1908 1.0793s.0954.7302.0954 1.0794c.0318.6667.1591 1.9048.3499 3.5873-.8587.1905-1.7174.7619-2.3217 1.6191h-1.1131v-18.8254zm-11.95814-4.00004c-.03181-.06349-.03181-.09524-.03181-.09524l1.01775-4.66666c.0318-.09524.1908-.25397.477-.25397h6.9332c.2862 0 .4453.12698.4771.25397l1.0177 4.66666s0 .06349-.0318.09524c-.0636.09524-.2226.15873-.4453.15873h-9.0004c-.22262 0-.34984-.09524-.41344-.15873zm2.54424 1.42857h4.707v1.30159h-4.707zm7.8873 2.57147v7.6825h-11.03581v-7.6825zm-15.61554 13.2063c.03181-.1587.15902-.9206.44526-1.9365.09541-.3492.19082-.6032.22262-.7937l.0318-.0952c.54067-1.8413.76329-4.254.57247-7.1746-.06361-.9841.25443-1.9365.8587-2.5714.25443-.254.66787-.5714 1.20854-.6349v18.7936h-1.01772c-.60427-.8254-1.39936-1.3651-2.28986-1.5873-.09541-.7936-.25443-2.6032-.03181-4z" fill="#66645f"/></svg>