<svg fill="none" height="40" viewBox="0 0 40 40" width="40" xmlns="http://www.w3.org/2000/svg"><g fill="#66645f"><path d="m32.827 19.446-.18-1.253c-.796-5.588-5.255-10.04599-10.841-10.83999l-1.252-.178v-7.17400292h-1.11v7.17500292l-1.252.178c-5.587.794-10.045 5.25199-10.84 10.83999l-.178 1.253h-7.174v1.108h7.175l.178 1.252c.795 5.588 5.253 10.046 10.84 10.841l1.251.179v7.173h1.11v-7.173l1.252-.179c5.586-.795 10.046-5.254 10.841-10.841l.18-1.252h7.173v-1.108h-7.173zm-1.144.554c0 6.442-5.241 11.683-11.683 11.683s-11.683-5.241-11.683-11.683c0-6.441 5.241-11.68299 11.683-11.68299s11.683 5.24199 11.683 11.68299z"/><path d="m20 14.711c-2.917 0-5.29 2.373-5.29 5.289 0 2.917 2.373 5.29 5.29 5.29s5.29-2.373 5.29-5.29c-.001-2.916-2.374-5.289-5.29-5.289zm0 9.471c-2.306 0-4.181-1.876-4.181-4.182s1.875-4.182 4.181-4.182c2.305 0 4.182 1.876 4.182 4.182s-1.877 4.182-4.182 4.182z"/></g></svg>