<svg fill="none" height="36" viewBox="0 0 36 36" width="36" xmlns="http://www.w3.org/2000/svg"><path d="m14.8235 36c-3.754 0-6.88232-2.7801-7.36361-6.4084l-.09625-.9424-7.2673834.0471v-1.1309l7.3636334-.0471.24064-.7539c.72193-2.4974 2.64707-4.3822 5.05347-5.0419.7219-.1885 1.3957-.3298 2.1177-.3298 3.2727 0 6.1604 2.1675 7.1229 5.2303l.2407.754 10.3476-.0943h.2406.0482c.6256-.0471 1.155-.3298 1.5401-.801.385-.4712.5294-1.0838.4812-1.6492l-.8181-7.7749v-.0471c-.2888-1.4608-1.3958-2.6388-2.8396-2.9686h-.0963l-9.8663-1.4607c-.9625-.1885-1.9732-.6126-2.8395-1.1781l.8181-.801c.0482 0 1.0107.6597 2.2139.8953l9.7701 1.4607c2.0695.377 3.6577 2.0262 3.9465 4.0995l.8182 7.6806v.377c0 1.8377-1.5401 3.2984-3.4171 3.2984l-10.2513.0943-.0963.9424c-.3369 3.3926-3.0321 6.0785-6.4973 6.5026-.2888 0-.6257.0471-.9145.0471zm.0482-13.4293c-3.4653 0-6.30486 2.7801-6.30486 6.1728 0 3.3926 2.83956 6.1727 6.30486 6.1727 3.4652 0 6.2566-2.7801 6.2566-6.1727 0-3.3927-2.7914-6.1728-6.2566-6.1728zm3.5133-11.2147c-.9144-.6125-1.6845-1.41359-2.3101-2.356 0 0-2.3102-3.91099-4.9091-5.41885-2.88773-1.60209-8.75938-2.3089-11.1658-2.49738v-1.08377c5.34225.518325 9.62567 1.46073 11.7433 2.63874 2.5989 1.46074 4.861 4.99477 5.3423 5.89006.1443.28272.3369.51832.5294.75392l.77.75388.7701-.75388c1.6845-1.64921 4.6203-3.58115 9.3369-3.86387v1.13089c-3.1284.18848-5.7754 1.17801-7.9412 2.96858z" fill="#66645f"/></svg>