<svg fill="none" height="38" viewBox="0 0 38 38" width="38" xmlns="http://www.w3.org/2000/svg"><g fill="#66645f"><path d="m26.7 10.1724c0-.0998 0-.19949-.1-.29923-.1-.09973-.2-.09973-.3-.09973-.2 0-.4.19947-.4.39896v8.3776h-6.4v-8.3776c0-.19949-.2-.39896-.4-.39896s-.4.19947-.4.39896v8.3776h-6.4v-8.3776c0-.19949-.2-.39896-.4-.39896s-.4.19947-.4.39896v17.5532c0 .1994.2.3989.4.3989s.4-.1995.4-.3989v-8.3777h6.4v8.3777c0 .1994.2.3989.4.3989s.4-.1995.4-.3989v-8.3777h6.4v8.3777c0 .1994.2.3989.4.3989s.4-.1995.4-.3989z"/><path d="m19 0c-10.5 0-19 8.47728-19 18.9492 0 10.472 8.5 18.9492 19 18.9492s19-8.4772 19-18.9492c0-10.47192-8.5-18.9492-19-18.9492zm18.1 18.9492c0 9.9733-8.1 18.0516-18.1 18.0516s-18.1-8.0783-18.1-18.0516c0-9.97325 8.1-18.051605 18.1-18.051605s18.1 8.078355 18.1 18.051605z"/><path d="m28.2998 18.9487c0 .1995.2.399.4.399h4.8c.1 0 .2 0 .3-.0998.1-.0997.1-.0997.1-.1994v-.0998c0-.0997 0-.1994-.1-.2992-.1-.0997-.2-.0997-.3-.0997h-4.8c-.2 0-.4.1995-.4.3989z"/><path d="m9.7 18.9487c0-.1994-.2-.3989-.4-.3989h-4.9c-.2 0-.4.1995-.4.3989 0 .1995.2.399.4.399h4.8c.3 0 .5-.1995.5-.399z"/></g></svg>