<svg enable-background="new 0 0 42 42" height="42" viewBox="0 0 42 42" width="42" xmlns="http://www.w3.org/2000/svg"><g fill="#66645f"><path d="m.544 19.53c-.152.009-.292.075-.395.187-.103.114-.155.259-.149.41.015.316.272.545.615.545 7.434 0 13.482 6.051 13.482 13.488-.002.154.056.299.162.407.106.11.25.172.402.174h.007c.315 0 .566-.256.57-.585.001-8.064-6.59-14.626-14.694-14.626z"/><path d="m.544 23.279c-.152.007-.293.072-.396.186-.102.112-.155.26-.148.411.014.314.272.544.615.544 5.367 0 9.734 4.371 9.734 9.74-.002.154.056.299.162.407.106.11.25.172.402.174h.007c.316 0 .567-.256.571-.585.001-5.998-4.908-10.877-10.947-10.877z"/><path d="m.544 27.027c-.152.006-.293.071-.396.186-.102.111-.155.259-.148.412.014.314.272.543.615.543 3.301 0 5.987 2.688 5.987 5.992-.004.316.248.576.564.581h.007c.316 0 .567-.256.571-.585 0-3.931-3.227-7.129-7.2-7.129z"/><path d="m41.428 16.133h-3.645v-2.181c0-1.638-1.338-2.971-2.986-2.971h-27.491c-1.599 0-2.939 1.299-2.986 2.894-.005.151.049.296.153.406.107.115.255.18.419.183.31 0 .561-.242.57-.552.03-1.003.84-1.79 1.844-1.79h13.576l-3.39 7.628c-.063.14-.066.296-.012.438.055.143.163.256.303.317.069.031.148.048.224.048h5.218l-3.239 7.292h-.588c-.31 0-.564.252-.569.562-.002.154.056.299.162.409.108.111.251.169.422.17h15.385c1.648 0 2.986-1.339 2.986-2.984v-2.167h3.645c.315 0 .572-.257.572-.572v-6.558c-.001-.316-.258-.572-.573-.572zm-.572 1.141v5.418h-3.073v-5.418zm-16.245 2.939c.06-.14.065-.294.012-.435-.058-.143-.163-.256-.304-.317-.069-.031-.146-.049-.224-.049h-5.217l3.239-7.29h12.68c1.033 0 1.844.803 1.844 1.83v12.049c0 1.033-.811 1.844-1.844 1.844h-13.563z"/></g></svg>