<svg enable-background="new 0 0 42 42" height="42" viewBox="0 0 42 42" width="42" xmlns="http://www.w3.org/2000/svg"><path d="m21.246 37.203c-.146 0-.281-.058-.379-.163-.196-.209-.187-.539.023-.735.6-.563 1.247-1.457 1.775-2.451l.281-.528h-5.39l-.096.209c-.983 2.149-2.156 3.317-2.38 3.528-.096.09-.224.141-.357.141-.146 0-.28-.058-.379-.163-.197-.209-.187-.539.023-.735.601-.566 1.248-1.459 1.775-2.451l.281-.528h-5.391l-.096.209c-.983 2.149-2.156 3.317-2.38 3.528-.096.09-.224.141-.357.141-.146 0-.28-.058-.379-.163-.197-.209-.187-.539.023-.735.601-.566 1.248-1.459 1.776-2.451l.281-.531h-3.693c-.131 0-.257-.05-.354-.141-.089-.083-2.2-2.106-3.074-8.051-.095-.648.081-1.253.511-1.75.85-.983 2.676-1.601 5.586-1.887l.533-.052-.249-.474c-.895-1.697-1.712-3.656-1.637-6.474l.024-.917-.642.656c-.102.104-.233.162-.369.162-.106 0-.209-.033-.298-.095-.235-.163-.292-.488-.129-.723l1.499-2.151c.097-.14.257-.224.427-.224s.329.084.427.224l1.498 2.151c.164.235.105.56-.13.724-.087.061-.19.093-.296.093-.136 0-.263-.052-.36-.145l-.588-.565-.022.815c-.083 3.064.964 4.982 1.889 6.676l.108.197.225-.01c.764-.035 1.579-.054 2.46-.054.667 0 1.345.012 2.027.031l.611.016-.281-.542c-.852-1.641-1.63-3.543-1.557-6.319l.024-.919-.642.659c-.101.104-.231.16-.369.16-.105 0-.208-.033-.297-.094-.114-.08-.19-.198-.214-.335-.024-.136.006-.274.085-.388l1.498-2.151c.097-.139.257-.223.428-.223.169 0 .329.083.427.223l1.499 2.151c.079.114.109.252.084.388-.024.137-.101.256-.215.335-.088.062-.19.094-.296.094-.136 0-.264-.052-.361-.146l-.588-.565-.022.817c-.083 3.064.981 5.013 1.92 6.73l.097.178.202.01c1.464.072 3.04.182 4.682.326l.664.057-.314-.587c-.938-1.747-1.846-3.705-1.768-6.718l.024-.917-.642.656c-.102.104-.233.161-.369.161-.106 0-.209-.033-.297-.094-.114-.079-.19-.197-.214-.335-.024-.136.006-.274.085-.388l1.499-2.151c.097-.139.256-.223.427-.223.17 0 .33.083.427.223l1.499 2.151c.162.236.104.56-.131.724-.087.062-.19.094-.297.094-.133 0-.263-.052-.359-.145l-.588-.568-.021.818c-.083 3.069.958 4.971 1.961 6.81l.331.612.191.02c1.902.191 3.468.384 4.398.505l.378.05.029-.38c.945-12.485 3.634-18.816 7.995-18.816 1.661 0 2.889 1.046 2.9 1.057.152.129.218.328.171.521l-6.877 28.046c-.057.233-.265.396-.505.396h-8.506l-.096.209c-.984 2.149-2.157 3.317-2.381 3.528-.096.09-.223.141-.356.141zm3.446-13.62c.462 1.142.676 2.197.679 3.32 0 1.709-.247 3.36-.732 4.911l-.146.469h7.685l6.695-27.322-.239-.134c-.396-.222-1.021-.485-1.74-.485-2.155 0-5.932 2.44-7.024 18.78-.01.145-.077.28-.19.37-.094.075-.211.116-.328.116-.082-.006-1.763-.247-4.285-.52l-.598-.063zm-6.762-.558c.633 1.374.916 2.57.917 3.878 0 1.711-.247 3.364-.731 4.911l-.147.469h5.403l.086-.239c.579-1.617.871-3.346.871-5.139-.001-1.598-.506-2.827-.999-3.82l-.089-.182-.199-.019c-1.661-.157-3.263-.281-4.763-.371l-.6-.035zm-4.685-.672c-.564 0-1.091.007-1.587.021l-.552.015.237.5c.456.964.981 2.294.981 4.016 0 1.711-.247 3.362-.731 4.911l-.146.469h5.404l.085-.239c.578-1.621.87-3.35.87-5.141 0-1.616-.476-2.841-1.243-4.297l-.097-.185-.208-.007c-1.015-.041-2.029-.063-3.013-.063zm-3.523.115c-2.986.223-4.938.773-5.646 1.595-.236.272-.322.564-.27.92.645 4.375 1.973 6.465 2.515 7.162l.107.139h3.898l.086-.239c.577-1.621.87-3.35.87-5.141 0-1.603-.486-2.854-1.214-4.243l-.11-.209z" fill="#66645f"/></svg>