<svg enable-background="new 0 0 42 42" height="42" viewBox="0 0 42 42" width="42" xmlns="http://www.w3.org/2000/svg"><g fill="#66645f"><path d="m32.766 31.909c-2.076 0-3.893-1.404-4.414-3.417l-.055-.21h-15.082l-.055.21c-.408 1.597-1.662 2.85-3.271 3.271-.377.098-.765.146-1.15.146-2.077 0-3.891-1.404-4.412-3.417l-.055-.21h-.775c-1.928 0-3.497-1.594-3.497-3.557v-2.485c0-1.584 1.063-2.983 2.585-3.402l6.597-1.804 3.948-5.177c.845-1.105 2.186-1.765 3.588-1.765h12.854c1.578 0 2.996.784 3.818 2.101l3.063 4.886 3.494 1.596c1.254.575 2.061 1.837 2.052 3.217v2.836c0 1.961-1.565 3.558-3.496 3.558h-1.262l-.056.21c-.41 1.597-1.664 2.852-3.271 3.271-.376.092-.764.142-1.148.142zm.007-7.962c-1.861 0-3.375 1.514-3.375 3.376 0 1.86 1.514 3.375 3.375 3.375 1.86 0 3.375-1.515 3.375-3.375 0-1.862-1.513-3.376-3.375-3.376zm-24.025 0c-1.861 0-3.376 1.514-3.376 3.376 0 1.86 1.515 3.375 3.376 3.375 1.86 0 3.374-1.515 3.374-3.375 0-1.862-1.514-3.376-3.374-3.376zm24.025-1.163c2.332 0 4.276 1.745 4.527 4.063l.027.248h1.175c1.274 0 2.312-1.063 2.312-2.371v-.279h-.008v-2.555c.01-.91-.523-1.75-1.357-2.138l-3.646-1.666c-.105-.051-.199-.131-.252-.22l-3.17-5.049c-.587-.951-1.656-1.542-2.791-1.542h-12.881c-1.033 0-2.022.484-2.646 1.294l-4.064 5.331c-.094.129-.224.188-.316.214l-6.791 1.857c-1.021.286-1.725 1.221-1.715 2.269v2.483c0 1.308 1.037 2.371 2.313 2.371h.687l.027-.248c.229-2.111 1.925-3.809 4.034-4.035.173-.021.343-.028.512-.028 2.33 0 4.276 1.745 4.526 4.063l.027.248h14.9l.026-.248c.228-2.111 1.924-3.808 4.033-4.035.174-.018.343-.027.511-.027z"/><path d="m2.892 14.491 6.045-1.857c.093-.026.222-.085.316-.214l4.064-5.331c.623-.81 2.357-1.294 3.391-1.294h12.882c1.135 0 2.953.591 3.54 1.542l3.17 5.049c.054.089.146.169.252.22l2.897 1.666c.668.311 1.281-.721.499-1.08l-2.745-1.596-3.062-4.886c-.822-1.316-2.99-2.101-4.567-2.101h-12.855c-1.402 0-3.488.659-4.333 1.765l-3.948 5.177-5.852 1.804c-.922.253-.42 1.34.306 1.136z"/></g></svg>