<svg enable-background="new 0 0 42 42" height="42" viewBox="0 0 42 42" width="42" xmlns="http://www.w3.org/2000/svg"><g fill="#66645f"><path d="m4.076 21c0-7.164 5.828-12.992 12.993-12.992 3.51 0 6.058 5.463 6.058 12.992 0 8.258-2.208 12.993-6.058 12.993-7.165-.001-12.993-5.829-12.993-12.993zm1.1 0c0 6.557 5.334 11.891 11.892 11.891 3.104 0 4.956-4.443 4.956-11.891 0-6.557-2.224-11.89-4.956-11.89-6.557-.001-11.892 5.333-11.892 11.89z"/><path d="m35.987 10.691c.303 0 .551-.248.551-.551 0-.304-.248-.55-.551-.55h-9.871c-.304 0-.552.246-.552.55s.248.551.552.551z"/><path d="m35.987 17.93c.303 0 .551-.247.551-.551 0-.303-.248-.551-.551-.551h-9.871c-.304 0-.552.248-.552.551 0 .304.248.551.552.551z"/><path d="m35.987 25.172c.303 0 .551-.248.551-.551s-.248-.551-.551-.551h-9.871c-.304 0-.552.248-.552.551s.248.551.552.551z"/><path d="m35.987 32.41c.303 0 .551-.246.551-.551 0-.303-.248-.551-.551-.551h-9.871c-.304 0-.552.248-.552.551 0 .305.248.551.552.551z"/></g></svg>