<svg fill="none" height="70" viewBox="0 0 70 70" width="70" xmlns="http://www.w3.org/2000/svg"><g fill="#6e6c66"><path d="m64.1011 29.6517c0-.1573-.0786-.236-.0786-.3146-.236-.5506-.3933-1.1012-.6292-1.6517-.0787-.1573-.1573-.3146-.236-.4719-.236-.5506-.4719-1.0225-.7865-1.4944-.0787-.1573-.1573-.3146-.236-.4719-.3146-.4719-.5505-1.0225-.8651-1.4944-.0787-.1573-.1573-.3146-.3146-.3933-.236-.3932-.5506-.7865-.7866-1.1011l-.0786-.0786c-.0787-.1573-.236-.3146-.3146-.472-1.4944-1.8876-3.2247-3.6179-5.1124-5.0337 0 0-.0786 0-.0786-.0786-4.7191-3.5393-10.3821-5.5056-16.4382-5.5056h-.0787v-6.76408c0-.39325-.3932-.78651-.7865-.78651-19.0337 0-34.52809 14.23599-34.52809 32.24719 0 .6292 0 1.6517.07865 2.3595 0 .3933.39326.7079.78652.7079h6.84272c0 15.2584 12.3483 27.6068 27.6067 27.6068s27.6068-12.3484 27.6068-27.6068c0-3.2247-.5506-6.2921-1.5731-9.2022zm-59.77526 7.6292c0-.5506-.07865-1.1011-.07865-1.5731.07865-16.8314 14.39321-30.2022 32.24721-30.59546v10.77526c-11.2472.3933-20.6854 9.045-20.6854 19.8989v1.573h-11.48316zm33.74156 27.6067c-14.3932 0-26.1123-11.6404-26.1123-26.1123h4.6404c.3933 0 .7865-.3933.7865-.7866v-2.2809c0-10.146 9.1236-18.4044 19.9776-18.4044.3932 0 .7865-.3933.7865-.7866v-3.8539h1.0224.0787c.3146 0 .5506 0 .7865.0787.236 0 .4719.0786.7865.0786.1573 0 .236 0 .3933.0787 6.8427.8651 13.0562 4.3258 17.382 9.7528 1.809 2.2809 3.1461 4.7191 4.0899 7.4719 0 .0786.0786.0786.0786.1573.9439 2.6741 1.4158 5.5843 1.4158 8.573-.0787 14.3933-11.7191 26.0337-26.1124 26.0337z"/><path d="m64.1011 29.6517c0-.1573-.0786-.236-.0786-.3146-.236-.5506-.3933-1.1012-.6292-1.6517-.0787-.1573-.1573-.3146-.236-.4719-.236-.5506-.4719-1.0225-.7865-1.4944-.0787-.1573-.1573-.3146-.236-.4719-.3146-.4719-.5505-1.0225-.8651-1.4944-.0787-.1573-.1573-.3146-.3146-.3933-.236-.3932-.5506-.7865-.7866-1.1011l-.0786-.0786c-.0787-.1573-.236-.3146-.3146-.472-1.4944-1.8876-3.2247-3.6179-5.1124-5.0337 0 0-.0786 0-.0786-.0786-4.7191-3.5393-10.3821-5.5056-16.4382-5.5056h-.0787v-6.76408c0-.39325-.3932-.78651-.7865-.78651-19.0337 0-34.52809 14.23599-34.52809 32.24719 0 .6292 0 1.6517.07865 2.3595 0 .3933.39326.7079.78652.7079h6.84272c0 15.2584 12.3483 27.6068 27.6067 27.6068s27.6068-12.3484 27.6068-27.6068c0-3.2247-.5506-6.2921-1.5731-9.2022zm-59.77526 7.6292c0-.5506-.07865-1.1011-.07865-1.5731.07865-16.8314 14.39321-30.2022 32.24721-30.59546v10.77526c-11.2472.3933-20.6854 9.045-20.6854 19.8989v1.573h-11.48316zm33.74156 27.6067c-14.3932 0-26.1123-11.6404-26.1123-26.1123h4.6404c.3933 0 .7865-.3933.7865-.7866v-2.2809c0-10.146 9.1236-18.4044 19.9776-18.4044.3932 0 .7865-.3933.7865-.7866v-3.8539h1.0224.0787c.3146 0 .5506 0 .7865.0787.236 0 .4719.0786.7865.0786.1573 0 .236 0 .3933.0787 6.8427.8651 13.0562 4.3258 17.382 9.7528 1.809 2.2809 3.1461 4.7191 4.0899 7.4719 0 .0786.0786.0786.0786.1573.9439 2.6741 1.4158 5.5843 1.4158 8.573-.0787 14.3933-11.7191 26.0337-26.1124 26.0337z"/><path d="m38.0673 24.2247c-8.0225 0-14.5506 6.5281-14.5506 14.5506s6.5281 14.5506 14.5506 14.5506 14.5506-6.5281 14.5506-14.5506c0-7.9438-6.5281-14.5506-14.5506-14.5506zm0 27.6854c-7.236 0-13.0562-5.8202-13.0562-13.0562 0-7.2359 5.8202-13.0561 13.0562-13.0561 7.2359 0 13.0562 5.8202 13.0562 13.0561 0 7.1574-5.8989 13.0562-13.0562 13.0562z"/><path d="m38.0673 24.2247c-8.0225 0-14.5506 6.5281-14.5506 14.5506s6.5281 14.5506 14.5506 14.5506 14.5506-6.5281 14.5506-14.5506c0-7.9438-6.5281-14.5506-14.5506-14.5506zm0 27.6854c-7.236 0-13.0562-5.8202-13.0562-13.0562 0-7.2359 5.8202-13.0561 13.0562-13.0561 7.2359 0 13.0562 5.8202 13.0562 13.0561 0 7.1574-5.8989 13.0562-13.0562 13.0562z"/><path d="m41.9214 38.8539c0-2.1236-1.7304-3.8539-3.854-3.8539s-3.8539 1.7303-3.8539 3.8539 1.7303 3.854 3.8539 3.854 3.854-1.7304 3.854-3.854zm-3.854 2.2809c-1.2584 0-2.2809-1.0224-2.2809-2.2809 0-1.2584 1.0225-2.2809 2.2809-2.2809 1.2585 0 2.2809 1.0225 2.2809 2.2809 0 1.2585-1.0224 2.2809-2.2809 2.2809z"/><path d="m41.9214 38.8539c0-2.1236-1.7304-3.8539-3.854-3.8539s-3.8539 1.7303-3.8539 3.8539 1.7303 3.854 3.8539 3.854 3.854-1.7304 3.854-3.854zm-3.854 2.2809c-1.2584 0-2.2809-1.0224-2.2809-2.2809 0-1.2584 1.0225-2.2809 2.2809-2.2809 1.2585 0 2.2809 1.0225 2.2809 2.2809 0 1.2585-1.0224 2.2809-2.2809 2.2809z"/><path d="m32.955 34.2922c.236.0786.4719.0786.7865.0786.4719 0 1.0225-.1573 1.4157-.3932 1.4158-.7865 1.8877-2.5955 1.0225-3.9326-.3932-.7079-1.0225-1.1798-1.7303-1.3371-.1573-.0786-.3933-.0786-.5506-.0786-.5505 0-1.1798.0786-1.6517.3932-.6292.3933-1.1797 1.0225-1.337 1.7304-.236.7865-.0787 1.4943.3146 2.2022.3146.7079.9438 1.1798 1.7303 1.3371zm-.9438-3.2247c.1573-.4719.3932-.7865.7865-1.0225.236-.1573.5506-.236.8652-.236h.0786c.0787 0 .236 0 .3146.0787.4719.0786.7865.3933 1.0225.7865.4719.7865.1573 1.8877-.6292 2.3596-.3933.2359-.8652.3146-1.2584.1573-.472-.1573-.7866-.3933-1.0225-.7865-.236-.3933-.236-.8652-.1573-1.3371z"/><path d="m32.955 34.2922c.236.0786.4719.0786.7865.0786.4719 0 1.0225-.1573 1.4157-.3932 1.4158-.7865 1.8877-2.5955 1.0225-3.9326-.3932-.7079-1.0225-1.1798-1.7303-1.3371-.1573-.0786-.3933-.0786-.5506-.0786-.5505 0-1.1798.0786-1.6517.3932-.6292.3933-1.1797 1.0225-1.337 1.7304-.236.7865-.0787 1.4943.3146 2.2022.3146.7079.9438 1.1798 1.7303 1.3371zm-.9438-3.2247c.1573-.4719.3932-.7865.7865-1.0225.236-.1573.5506-.236.8652-.236h.0786c.0787 0 .236 0 .3146.0787.4719.0786.7865.3933 1.0225.7865.4719.7865.1573 1.8877-.6292 2.3596-.3933.2359-.8652.3146-1.2584.1573-.472-.1573-.7866-.3933-1.0225-.7865-.236-.3933-.236-.8652-.1573-1.3371z"/><path d="m40.663 34.0562c.4719.236.9438.3933 1.4157.3933 1.0225 0 1.9663-.5506 2.5169-1.4158.7865-1.4157.3146-3.146-1.0225-3.9326-.4719-.3146-1.1011-.3932-1.6517-.3932-.1573 0-.3932.0786-.5505.0786-.7079.236-1.3371.7079-1.7304 1.3371-.8651 1.3371-.3932 3.1461 1.0225 3.9326zm0-3.382c.236-.3933.6292-.7079 1.0225-.7865.0786 0 .2359-.0787.3146-.0787.3146 0 .7078.0787 1.0225.236.7865.4719 1.1011 1.4943.6292 2.3595-.4719.7865-1.4944 1.1011-2.3596.6292s-1.1011-1.573-.6292-2.3595z"/><path d="m40.663 34.0562c.4719.236.9438.3933 1.4157.3933 1.0225 0 1.9663-.5506 2.5169-1.4158.7865-1.4157.3146-3.146-1.0225-3.9326-.4719-.3146-1.1011-.3932-1.6517-.3932-.1573 0-.3932.0786-.5505.0786-.7079.236-1.3371.7079-1.7304 1.3371-.8651 1.3371-.3932 3.1461 1.0225 3.9326zm0-3.382c.236-.3933.6292-.7079 1.0225-.7865.0786 0 .2359-.0787.3146-.0787.3146 0 .7078.0787 1.0225.236.7865.4719 1.1011 1.4943.6292 2.3595-.4719.7865-1.4944 1.1011-2.3596.6292s-1.1011-1.573-.6292-2.3595z"/><path d="m32.3258 38.8538c0-1.573-1.2584-2.9101-2.9101-2.9101s-2.9101 1.2585-2.9101 2.9101c0 1.6517 1.2584 2.9101 2.9101 2.9101s2.9101-1.337 2.9101-2.9101zm-2.9101 1.7304c-.9438 0-1.7303-.7865-1.7303-1.7304 0-.9438.7865-1.7303 1.7303-1.7303s1.7304.7865 1.7304 1.7303c0 .9439-.7866 1.7304-1.7304 1.7304z"/><path d="m32.3258 38.8538c0-1.573-1.2584-2.9101-2.9101-2.9101s-2.9101 1.2585-2.9101 2.9101c0 1.6517 1.2584 2.9101 2.9101 2.9101s2.9101-1.337 2.9101-2.9101zm-2.9101 1.7304c-.9438 0-1.7303-.7865-1.7303-1.7304 0-.9438.7865-1.7303 1.7303-1.7303s1.7304.7865 1.7304 1.7303c0 .9439-.7866 1.7304-1.7304 1.7304z"/><path d="m43.4156 38.8538c0 1.5731 1.2585 2.9101 2.9102 2.9101 1.6516 0 2.9101-1.2584 2.9101-2.9101 0-1.6516-1.2585-2.9101-2.9101-2.9101-1.6517 0-2.9102 1.3371-2.9102 2.9101zm4.6405 0c0 .9439-.7865 1.7304-1.7303 1.7304-.9439 0-1.7304-.7865-1.7304-1.7304 0-.9438.7865-1.7303 1.7304-1.7303.9438 0 1.7303.7865 1.7303 1.7303z"/><path d="m43.4156 38.8538c0 1.5731 1.2585 2.9101 2.9102 2.9101 1.6516 0 2.9101-1.2584 2.9101-2.9101 0-1.6516-1.2585-2.9101-2.9101-2.9101-1.6517 0-2.9102 1.3371-2.9102 2.9101zm4.6405 0c0 .9439-.7865 1.7304-1.7303 1.7304-.9439 0-1.7304-.7865-1.7304-1.7304 0-.9438.7865-1.7303 1.7304-1.7303.9438 0 1.7303.7865 1.7303 1.7303z"/><path d="m35.0786 43.6517c-.4719-.3146-1.0224-.3933-1.6516-.3933-.1573 0-.3933.0787-.5506.0787-.7865.2359-1.3371.7078-1.7303 1.3371-.3933.6292-.472 1.4157-.3146 2.2022.2359.7865.7078 1.4157 1.337 1.7303.4719.236.9439.3933 1.4158.3933 1.0224 0 1.9663-.5506 2.5168-1.4944.3933-.6292.4719-1.4157.3146-2.2022-.1573-.6292-.6292-1.2585-1.3371-1.6517zm.0787 3.3034c-.4719.7865-1.573 1.1011-2.3596.6292-.7865-.4719-1.1011-1.5731-.6292-2.3596.3146-.4719.7079-.7079 1.0225-.7865.0787 0 .236-.0787.3146-.0787h.1573c.3146 0 .5506.0787.8652.236.3932.236.7078.6292.7865 1.0225.1573.5505.0786.9438-.1573 1.3371z"/><path d="m35.0786 43.6517c-.4719-.3146-1.0224-.3933-1.6516-.3933-.1573 0-.3933.0787-.5506.0787-.7865.2359-1.3371.7078-1.7303 1.3371-.3933.6292-.472 1.4157-.3146 2.2022.2359.7865.7078 1.4157 1.337 1.7303.4719.236.9439.3933 1.4158.3933 1.0224 0 1.9663-.5506 2.5168-1.4944.3933-.6292.4719-1.4157.3146-2.2022-.1573-.6292-.6292-1.2585-1.3371-1.6517zm.0787 3.3034c-.4719.7865-1.573 1.1011-2.3596.6292-.7865-.4719-1.1011-1.5731-.6292-2.3596.3146-.4719.7079-.7079 1.0225-.7865.0787 0 .236-.0787.3146-.0787h.1573c.3146 0 .5506.0787.8652.236.3932.236.7078.6292.7865 1.0225.1573.5505.0786.9438-.1573 1.3371z"/><path d="m42.8652 43.3371c-.1573 0-.3932-.0787-.5505-.0787-.5506-.0786-1.1798.0787-1.6517.3933-1.4157.7865-1.8876 2.5955-1.0225 3.9326.5506.9438 1.4944 1.4944 2.5169 1.4944.4719 0 .9438-.1573 1.4157-.3933 1.3371-.7865 1.809-2.5955 1.0225-3.9326-.3933-.7078-1.0225-1.1797-1.7304-1.4157zm.0787 4.3258c-.7865.4719-1.8876.1573-2.3596-.6292-.4719-.7865-.1573-1.8876.6293-2.3595.2359-.1573.5505-.236.8651-.236h.1573c.0787 0 .236 0 .3146.0787.3146.0786.7866.3146 1.0225.7865.4719.7865.236 1.8876-.6292 2.3595z"/><path d="m42.8652 43.3371c-.1573 0-.3932-.0787-.5505-.0787-.5506-.0786-1.1798.0787-1.6517.3933-1.4157.7865-1.8876 2.5955-1.0225 3.9326.5506.9438 1.4944 1.4944 2.5169 1.4944.4719 0 .9438-.1573 1.4157-.3933 1.3371-.7865 1.809-2.5955 1.0225-3.9326-.3933-.7078-1.0225-1.1797-1.7304-1.4157zm.0787 4.3258c-.7865.4719-1.8876.1573-2.3596-.6292-.4719-.7865-.1573-1.8876.6293-2.3595.2359-.1573.5505-.236.8651-.236h.1573c.0787 0 .236 0 .3146.0787.3146.0786.7866.3146 1.0225.7865.4719.7865.236 1.8876-.6292 2.3595z"/></g></svg>