<svg fill="none" height="106" viewBox="0 0 106 106" width="106" xmlns="http://www.w3.org/2000/svg"><g fill="#6e6c66"><path d="m30.622 41.5023c-2.12 2.3556-3.4156 5.5356-3.6511 8.9512-.2356 3.4155.7066 6.5955 2.5911 8.8333.2355.3533.8244.4711 1.1778.1177.3533-.3533.4711-.8244.2355-1.1777-1.5311-1.8845-2.3555-4.7111-2.2378-7.7733.2356-3.0623 1.4134-5.7712 3.18-7.7734.3534-.3534.3534-.9422 0-1.1778-.3533-.3533-.9422-.3533-1.2955 0z"/><path d="m24.7332 34.3179c-3.8867 4.24-6.36 10.0111-6.7133 16.2533-.3534 6.2422 1.4133 12.0134 4.7111 16.1356.2355.3533.8244.4711 1.1777.1177.3534-.3533.4712-.8244.2356-1.1777-3.0622-3.7689-4.7111-9.0689-4.3578-14.9578.3534-5.8889 2.7089-11.1889 6.2422-15.0756.3534-.3533.3534-.9422 0-1.1778-.3533-.5888-.9422-.471-1.2955-.1177z"/><path d="m75.2599 41.6201c-.3533-.3533-.8244-.3534-1.1778-.1178-.3533.3533-.3533.8244 0 1.1778 1.7667 2.0022 2.9445 4.7111 3.18 7.7733.2356 3.0623-.7066 5.7711-2.2377 7.7733-.2356.3534-.2356.9423.2355 1.1778.3534.3534.9422.2356 1.1778-.1177 1.7667-2.2378 2.7089-5.4178 2.5911-8.8334-.3533-3.4155-1.6489-6.4777-3.7689-8.8333z"/><path d="m81.1488 34.3178c-.3533-.3533-.8244-.3533-1.1777-.1177-.3534.3533-.3534.8244 0 1.1777 3.5333 3.8867 5.8888 9.1867 6.2422 15.0756.3533 5.8889-1.4134 11.1889-4.3578 14.9578-.2356.3533-.2356.9422.2355 1.1778.3534.3533.9423.2355 1.1778-.1179 3.2978-4.1222 5.0645-9.8933 4.7111-16.1355-.4711-6.0067-2.9444-11.7778-6.8311-16.0178z"/><path d="m74.4356 69.3712c-1.1778 0-2.4734 0-3.6511 0-2.9445 0-6.0067 0-8.9512 0-3.7688 0-7.5377 0-11.3066 0-3.5334 0-7.0667 0-10.6 0-2.3556 0-4.5934 0-6.9489 0-.3533 0-.7067 0-1.06 0v1.6489c.9422 0 2.0022-.2356 2.8267-.8244.8244-.4712 1.4133-1.1778 2.0022-2.0023.9422-1.4133 1.4133-3.18 1.6489-4.9466.3533-2.0023.2355-3.8867.2355-5.8889 0-1.7667 0-3.6511 0-5.4178 0-.5889 0-1.06 0-1.6489 0-.9422.1178-1.6489.2356-2.5911.1178-.5889.3533-1.2955.5889-1.8844 0-.1178 0-.1178.1177-.2356 0 0 .1178-.2356 0-.1178.1178-.1178.1178-.2355.2356-.4711.1178-.3533.3533-.5889.4711-.9422.3533-.5889.7067-1.1778 1.06-1.6489-.1178.1178.1178-.1178.1178-.1178 0-.1177.1178-.1178.1178-.2355.1177-.1178.2355-.2356.3533-.3534.2356-.2355.4711-.4711.7067-.7066 1.8844-1.8845 4.1222-3.18 6.5955-3.8867.5889-.2356 1.2956-.3533 2.0022-.4711.2356 0 .4712-.1178.8245-.1178h1.06c.7067 0 1.2955 0 2.0022.1178 0 0 .2356 0 .1178 0h.2355c.1178 0 .3534 0 .4712.1178.3533.1177.7066.1177 1.06.2355.7066.1178 1.2955.3534 1.8844.5889.2356.1178.4711.2356.8244.3533.3534.1178.5889.3534.9423.4712.5889.3533 1.1778.7066 1.6489 1.06.2355.2355.3533.2355.7066.4711.2356.2355.4711.4711.8245.7066.4711.4711.9422.9423 1.2955 1.4134 0 .1177.1178.1178.1178.2355 0 0 .1178.2356.1178.1178.1178.1178.2355.2356.2355.3533.2356.2356.3534.5889.5889.8245.3534.5889.5889 1.1778.9423 1.7666-.1178-.1177 0 .1178 0 .1178 0 .1178-.0001.1178.1177.2356 0 .1178.1178.3533.1178.4711.1178.3533.2356.7067.2356.9422.1177.3533.1177.5889.2355.9422v.2356s0 .2355 0 .1178c0 .2355 0 .3533.1178.5889v1.06 1.4133 8.1267c0 1.06.1178 2.2377.3533 3.2977.2356 1.7667.8245 3.5334 1.6489 4.9467.4711.8244 1.1778 1.5311 1.8845 2.0022.8244.5889 1.7666.8245 2.8266.8245.4711 0 .8245-.3534.8245-.8245-.2356-.1178-.7067-.4711-1.06-.4711-.1178 0-.2356 0-.3534 0h-.1177c-.2356 0 .2355 0 0 0-.2356 0-.4711-.1178-.7067-.1178-.1178 0-.2356-.1177-.2356-.1177.2356.1177-.1177 0-.1177-.1178-.2356-.1178-.3534-.2356-.5889-.3534 0 0-.1178 0-.1178-.1177.2355.1177 0 0 0 0-.1178-.1178-.1178-.1178-.2356-.2356-.1177-.1178-.3533-.3533-.4711-.4711 0 0-.2355-.3533-.1178-.1178-.1177-.1178-.1177-.1178-.1177-.2355-.1178-.2356-.2356-.3534-.3534-.5889-.1177-.2356-.2355-.3534-.2355-.5889 0-.1178-.1178-.2356-.1178-.2356s-.1178-.2355 0 0c0-.1177 0-.1177-.1178-.2355-.1177-.3534-.3533-.8245-.4711-1.2956-.2355-.8244-.3533-1.6489-.4711-2.4733v-.1178c0 .2356 0 .1178 0 0s0-.1178 0-.2355c0-.1178 0-.3534 0-.4712 0-.2355 0-.5888-.1178-.8244 0-.2356 0-.5889 0-.8244 0-1.06 0-2.12 0-3.18 0-1.7667 0-3.5334 0-5.3 0-.3534 0-.7067 0-1.06 0-1.2956-.2355-2.7089-.5889-4.0045-1.6488-5.3-6.36-9.3044-11.66-10.6-5.4177-1.4133-11.3066.3533-15.3111 4.1222-2.0022 1.8845-3.5333 4.24-4.24 6.8312-.4711 1.6488-.4711 3.1799-.4711 4.9466v5.3 2.9445c0 .9422 0 1.8844-.1178 2.8266 0 .1178 0 .3534 0 .1178v.2356c0 .2355-.1177.4711-.1177.5888-.1178.3534-.1178.8245-.2356 1.1778-.1178.4711-.2356.8245-.3533 1.1778 0 0-.1178.3533 0 .1178 0 .1178-.1178.2355-.1178.2355-.1178.2356-.2356.3534-.3533.5889-.1178.1178-.2356.3534-.3534.4711 0 .1178-.1178.1178-.1178.2356.1178-.2356-.1177.1178-.1177.1178-.1178.1177-.2356.2355-.3534.4711-.1177.1178-.1177.1178-.2355.2355 0 0-.2356.1178 0 0l-.1178.1178c-.1178.1178-.3533.2356-.4711.3533 0 0-.3533.1178-.1178.1178-.1178 0-.2355.1178-.3533.1178-.2356.1178-.4711.1178-.7067.1178-.2355 0 .2356 0 0 0h-.1178c-.1177 0-.2355 0-.3533 0-.4711 0-.8244.3533-.8244.8244s.3533.8245.8244.8245h3.6511 8.9511 11.3067 10.6 6.9489 1.06c.4711 0 .8244-.3534.8244-.8245s-.9422-.4711-1.2955-.4711z"/><path d="m56.8866 70.6668c-.2355.3533-.3533.5889-.5889.9422-.3533.3534-.4711.4711-.8244.7067-.7067.4711-1.4134.5889-2.2378.7067-.4711 0-.8244 0-1.1778-.1178-.4711-.1178-.7066-.2356-1.1778-.4711-.7066-.3534-1.2955-1.06-1.6488-1.6489-.4712-.9422-1.8845-.1178-1.4134.8244 1.06 1.8845 3.0622 3.18 5.3 3.0623 2.12 0 4.1222-1.1778 5.0645-3.0623.2355-.3533.1177-.8244-.2356-1.06-.3533-.3533-.8244-.2355-1.06.1178z"/></g><path d="m53.1177 27.0889v8.5977" stroke="#6e6c66" stroke-linecap="round" stroke-miterlimit="10" stroke-width="1.4"/></svg>