<svg fill="none" height="90" viewBox="0 0 90 90" width="90" xmlns="http://www.w3.org/2000/svg"><g fill="#6e6c66"><path d="m44.0004 47.4c4.8 0 8.6-3.9001 8.6-8.6001s-3.9-8.5999-8.6-8.5999c-4.8 0-8.6 3.8999-8.6 8.5999s3.8 8.6001 8.6 8.6001zm0-16.2c4.1 0 7.4 3.4 7.4 7.5s-3.3 7.5-7.4 7.5-7.4-3.4-7.4-7.5 3.2-7.5 7.4-7.5z"/><path d="m44.0003 27.6999c.7732 0 1.4-.6268 1.4-1.4s-.6268-1.4-1.4-1.4-1.4.6268-1.4 1.4.6268 1.4 1.4 1.4z"/><path d="m44.0003 27.6999c.7732 0 1.4-.6268 1.4-1.4s-.6268-1.4-1.4-1.4-1.4.6268-1.4 1.4.6268 1.4 1.4 1.4z"/></g><g stroke="#6e6c66" stroke-miterlimit="10" stroke-width="1.4"><path d="m24.8 72.5h38.3c.9 0 1.7-.7 1.8-1.6 1.4-10.9-4.8-15.6-5.1-15.8-.7-.5-1.8-.4-2.4.2-3.5 3.7-7.7 5.4-13.4 5.4s-10-1.7-13.5-5.4c-.6-.7-1.7-.8-2.4-.2-.3.2-6.5 4.9-5.1 15.8.1.9.9 1.6 1.8 1.6z"/><path d="m44 56.7998c9.9 0 18-8.1 18-18s-8.1-18-18-18-18 8.1-18 18 8 18 18 18z"/></g></svg>