<svg width="158" height="50" viewBox="0 0 158 50" fill="none" xmlns="http://www.w3.org/2000/svg">
<path d="M152.961 50H4.93421C2.22039 50 0 47.75 0 45V5C0 2.25 2.22039 0 4.93421 0H152.961C155.674 0 157.895 2.25 157.895 5V45C157.895 47.75 155.674 50 152.961 50Z" fill="black"/>
<path fill-rule="evenodd" clip-rule="evenodd" d="M4.93421 49H152.961C155.12 49 156.902 47.2036 156.902 45V5C156.902 2.79636 155.12 1 152.961 1H4.93421C2.7747 1 0.993049 2.79636 0.993049 5V45C0.993049 47.2036 2.7747 49 4.93421 49ZM4.93421 50H152.961C155.674 50 157.895 47.75 157.895 45V5C157.895 2.25 155.674 0 152.961 0H4.93421C2.22039 0 0 2.25 0 5V45C0 47.75 2.22039 50 4.93421 50Z" fill="black"/>
<path d="M33.4153 24.8253C33.4153 20.8292 36.7361 18.8956 36.8638 18.7667C34.948 16.0597 32.138 15.673 31.1163 15.5441C28.6895 15.2862 26.2628 16.962 25.1133 16.962C23.836 16.962 21.9202 15.5441 19.8766 15.5441C17.1944 15.5441 14.7677 17.0909 13.3627 19.5402C10.5528 24.4386 12.5964 31.6574 15.2786 35.6535C16.6835 37.5871 18.2162 39.7785 20.2598 39.6496C22.3034 39.5207 23.0697 38.3605 25.4964 38.3605C27.9232 38.3605 28.5618 39.6496 30.7331 39.6496C32.9044 39.6496 34.3093 37.716 35.5866 35.7824C37.1193 33.591 37.7579 31.3996 37.7579 31.2707C37.6301 31.1418 33.4153 29.5949 33.4153 24.8253Z" fill="white"/>
<path d="M29.5281 13.4534C30.361 12.1244 30.9856 10.433 30.8815 8.62085C29.6322 8.74166 27.9664 9.58735 27.1335 10.9163C26.3006 12.0036 25.5719 13.8158 25.7801 15.5072C27.1335 15.628 28.5911 14.6615 29.5281 13.4534Z" fill="white"/>
<path d="M61.7847 39.6554H59.0135L57.5019 34.5766H52.2115L50.6999 39.6554H48.0547L53.2192 22.4141H56.4942L61.7847 39.6554ZM56.9981 32.4381L55.6125 27.8939C55.4865 27.4929 55.2346 26.29 54.7307 24.6862C54.6048 25.3545 54.3528 26.5573 53.975 27.8939L52.5894 32.4381H56.9981Z" fill="white"/>
<path d="M75.5147 33.0695C75.5147 34.9362 74.9808 36.3363 73.7794 37.503C72.7115 38.4363 71.5101 38.903 69.9083 38.903C68.3065 38.903 67.1051 38.4363 66.4377 37.3863V43.1032H63.6345V31.4361C63.6345 30.2694 63.6345 29.1027 63.501 27.8193H65.9037L66.0372 29.5693C66.9716 28.286 68.3065 27.5859 70.1753 27.5859C71.6436 27.5859 72.845 28.0526 73.7794 29.1027C74.9808 30.036 75.5147 31.3194 75.5147 33.0695ZM72.7115 33.0695C72.7115 32.0194 72.4445 31.0861 71.9106 30.5027C71.3766 29.8027 70.5757 29.4527 69.5078 29.4527C68.8404 29.4527 68.173 29.686 67.639 30.036C67.1051 30.386 66.7046 30.9694 66.5712 31.5528C66.4377 31.9028 66.4377 32.1361 66.4377 32.2528V34.1195C66.4377 34.9362 66.7046 35.5196 67.2386 36.1029C67.7725 36.6863 68.5734 36.9196 69.3744 36.9196C70.4422 36.9196 71.2432 36.5696 71.7771 35.8696C72.311 35.1695 72.7115 34.2362 72.7115 33.0695Z" fill="white"/>
<path d="M87.5289 33.0695C87.5289 34.9362 87.0713 36.3363 86.0415 37.503C85.1262 38.4363 84.0964 38.903 82.7234 38.903C81.3504 38.903 80.3207 38.4363 79.7486 37.3863V43.1032H77.3459V31.4361C77.3459 30.2694 77.3459 29.1027 77.2314 27.8193H79.2909L79.4054 29.5693C80.2063 28.286 81.3504 27.5859 82.9523 27.5859C84.2108 27.5859 85.2406 28.0526 86.0415 29.1027C87.0713 30.036 87.5289 31.3194 87.5289 33.0695ZM85.1262 33.0695C85.1262 32.0194 84.8974 31.0861 84.4397 30.5027C83.982 29.8027 83.2955 29.4527 82.3802 29.4527C81.8081 29.4527 81.236 29.686 80.7784 30.036C80.3207 30.386 79.9774 30.9694 79.863 31.5528C79.7486 31.9028 79.7486 32.1361 79.7486 32.2528V34.1195C79.7486 34.9362 79.9774 35.5196 80.4351 36.1029C80.8928 36.6863 81.5793 36.9196 82.2658 36.9196C83.1811 36.9196 83.8676 36.5696 84.3253 35.8696C84.7829 35.1695 85.1262 34.2362 85.1262 33.0695Z" fill="white"/>
<path d="M102.975 34.692C102.975 36.1288 102.454 37.3043 101.541 38.2187C100.499 39.2636 98.9344 39.6554 96.9792 39.6554C95.1543 39.6554 93.7205 39.2636 92.6777 38.6105L93.3295 36.39C94.5026 37.0431 95.8061 37.435 97.2399 37.435C98.2827 37.435 99.0648 37.1737 99.5862 36.7819C100.108 36.2594 100.368 35.7369 100.368 34.9532C100.368 34.3002 100.108 33.6471 99.7165 33.2552C99.1951 32.7328 98.413 32.3409 97.3703 31.9491C94.3723 30.9041 92.9384 29.2061 92.9384 27.1163C92.9384 25.6795 93.4598 24.6345 94.5026 23.7202C95.5454 22.8059 96.8489 22.4141 98.6737 22.4141C100.238 22.4141 101.411 22.6753 102.454 23.1978L101.802 25.4182C100.89 24.8958 99.8469 24.6345 98.5434 24.6345C97.631 24.6345 96.8489 24.8958 96.3275 25.2876C95.9364 25.6795 95.6757 26.2019 95.6757 26.855C95.6757 27.5081 95.9364 28.0306 96.4578 28.553C96.8489 28.9449 97.7613 29.3367 98.9344 29.8592C100.368 30.3817 101.411 31.1654 102.193 31.9491C102.715 32.6021 102.975 33.5165 102.975 34.692Z" fill="white"/>
<path d="M111.556 29.2663H108.786V35.1839C108.786 36.6304 109.268 37.4194 110.231 37.4194C110.713 37.4194 111.074 37.4194 111.315 37.2879L111.435 39.3919C110.954 39.6549 110.352 39.6549 109.508 39.6549C108.545 39.6549 107.702 39.3919 107.22 38.7344C106.618 38.0769 106.377 37.0249 106.377 35.4469V29.2663H104.691V27.1622H106.377V24.9267L108.786 24.1377V27.1622H111.556V29.2663Z" fill="white"/>
<path d="M123.569 33.5582C123.569 35.3001 123.116 36.7932 122.211 37.913C121.193 39.0328 119.948 39.6549 118.364 39.6549C116.779 39.6549 115.535 39.0328 114.629 37.913C113.724 36.7932 113.271 35.4245 113.271 33.6826C113.271 31.9407 113.724 30.4477 114.743 29.3278C115.648 28.208 117.006 27.5859 118.59 27.5859C120.174 27.5859 121.419 28.208 122.324 29.3278C123.116 30.4477 123.569 31.8163 123.569 33.5582ZM121.079 33.6826C121.079 32.5628 120.853 31.6919 120.401 30.9453C119.948 30.0744 119.156 29.5767 118.25 29.5767C117.345 29.5767 116.553 30.0744 116.1 30.9453C115.648 31.6919 115.422 32.6873 115.422 33.6826C115.422 34.8024 115.648 35.6734 116.1 36.4199C116.553 37.2909 117.345 37.7886 118.25 37.7886C119.156 37.7886 119.835 37.2909 120.401 36.4199C120.853 35.6734 121.079 34.678 121.079 33.6826Z" fill="white"/>
<path d="M132.895 30.2493C132.637 30.2493 132.379 30.1247 131.992 30.1247C131.089 30.1247 130.315 30.4986 129.799 31.1219C129.412 31.7452 129.154 32.4931 129.154 33.3657V39.4737H126.445V31.4959C126.445 30.1247 126.445 29.0028 126.316 27.8809H128.638L128.767 30.1247H128.896C129.154 29.3767 129.67 28.7535 130.186 28.2549C130.831 27.8809 131.476 27.6316 132.121 27.6316C132.379 27.6316 132.637 27.6316 132.766 27.6316V30.2493H132.895Z" fill="white"/>
<path d="M145.481 33.0605C145.481 33.5582 145.481 33.9315 145.357 34.1803H137.664C137.664 35.3001 138.037 36.1711 138.781 36.7932C139.401 37.2909 140.27 37.6641 141.262 37.6641C142.379 37.6641 143.496 37.5397 144.364 37.1665L144.736 38.9084C143.62 39.4061 142.379 39.6549 140.89 39.6549C139.153 39.6549 137.664 39.1572 136.672 38.0374C135.679 37.042 135.183 35.549 135.183 33.8071C135.183 32.0651 135.679 30.5721 136.548 29.4523C137.54 28.208 138.905 27.5859 140.642 27.5859C142.255 27.5859 143.62 28.208 144.364 29.4523C145.108 30.4477 145.481 31.6919 145.481 33.0605ZM142.999 32.4384C142.999 31.6919 142.875 31.0698 142.503 30.4477C142.007 29.7011 141.386 29.3278 140.518 29.3278C139.649 29.3278 139.029 29.7011 138.533 30.3232C138.161 30.8209 137.913 31.5675 137.788 32.314H142.999V32.4384Z" fill="white"/>
<path d="M50.9963 15.6153C51.3606 15.6153 51.6627 15.515 51.9029 15.3143C52.143 15.1137 52.2711 14.8657 52.2871 14.5704H53.6618C53.6458 14.9528 53.5198 15.3105 53.2836 15.6437C53.0475 15.9731 52.7273 16.2343 52.3231 16.4274C51.9189 16.6205 51.4826 16.717 51.0144 16.717C50.1058 16.717 49.3854 16.4388 48.8531 15.8822C48.3208 15.3257 48.0547 14.5571 48.0547 13.5766V13.4346C48.0547 12.4994 48.3188 11.7517 48.8471 11.1914C49.3754 10.6273 50.0958 10.3452 51.0084 10.3452C51.7808 10.3452 52.4091 10.5591 52.8934 10.9869C53.3817 11.411 53.6378 11.9694 53.6618 12.6622H52.2871C52.2711 12.3101 52.143 12.0205 51.9029 11.7934C51.6667 11.5662 51.3646 11.4526 50.9963 11.4526C50.5241 11.4526 50.1599 11.6154 49.9037 11.941C49.6476 12.2628 49.5175 12.7531 49.5135 13.4119V13.6333C49.5135 14.2997 49.6396 14.7975 49.8917 15.1269C50.1479 15.4525 50.5161 15.6153 50.9963 15.6153Z" fill="white"/>
<path d="M57.0718 14.1728H56.3334V16.6034H54.8745V10.4588H56.3334V12.9121H56.9757L58.7707 10.4588H60.5717L58.2244 13.4005L60.7699 16.6034H58.8728L57.0718 14.1728Z" fill="white"/>
<path d="M60.95 13.4743C60.95 12.8724 61.076 12.331 61.3282 11.8501C61.5803 11.3655 61.9345 10.9945 62.3908 10.7371C62.847 10.4758 63.3713 10.3452 63.9637 10.3452C64.8401 10.3452 65.5505 10.6121 66.0949 11.146C66.6432 11.6798 66.9393 12.3878 66.9834 13.2699L66.9894 13.5936C66.9894 14.1993 66.8653 14.7407 66.6171 15.2178C66.373 15.6948 66.0208 16.0639 65.5606 16.3252C65.1043 16.5864 64.576 16.717 63.9757 16.717C63.0591 16.717 62.3247 16.4293 61.7724 15.8538C61.2241 15.2746 60.95 14.5041 60.95 13.5425V13.4743ZM62.4088 13.5936C62.4088 14.2259 62.5469 14.7218 62.823 15.0815C63.0992 15.4374 63.4834 15.6153 63.9757 15.6153C64.4679 15.6153 64.8502 15.4336 65.1223 15.0701C65.3985 14.7067 65.5365 14.1747 65.5365 13.4743C65.5365 12.8534 65.3945 12.3613 65.1103 11.9978C64.8301 11.6343 64.4479 11.4526 63.9637 11.4526C63.4874 11.4526 63.1092 11.6324 62.829 11.9921C62.5489 12.348 62.4088 12.8818 62.4088 13.5936Z" fill="white"/>
<path d="M73.9113 13.5936C73.9113 14.5439 73.6831 15.303 73.2269 15.8709C72.7706 16.435 72.1583 16.717 71.3898 16.717C70.6774 16.717 70.1071 16.4955 69.6789 16.0526V18.9659H68.2201V10.4588H69.5648L69.6248 11.0835C70.0531 10.5913 70.6354 10.3452 71.3718 10.3452C72.1643 10.3452 72.7846 10.6254 73.2329 11.1857C73.6851 11.7422 73.9113 12.5165 73.9113 13.5084V13.5936ZM72.4584 13.4743C72.4584 12.861 72.3284 12.3745 72.0682 12.0148C71.8121 11.6552 71.4439 11.4753 70.9636 11.4753C70.3673 11.4753 69.939 11.7082 69.6789 12.1738V14.8998C69.943 15.3768 70.3753 15.6153 70.9756 15.6153C71.4399 15.6153 71.8021 15.4393 72.0622 15.0872C72.3264 14.7313 72.4584 14.1937 72.4584 13.4743Z" fill="white"/>
<path d="M74.8778 13.4743C74.8778 12.8724 75.0039 12.331 75.256 11.8501C75.5082 11.3655 75.8624 10.9945 76.3186 10.7371C76.7749 10.4758 77.2992 10.3452 77.8915 10.3452C78.768 10.3452 79.4784 10.6121 80.0227 11.146C80.571 11.6798 80.8672 12.3878 80.9112 13.2699L80.9172 13.5936C80.9172 14.1993 80.7931 14.7407 80.545 15.2178C80.3009 15.6948 79.9487 16.0639 79.4884 16.3252C79.0321 16.5864 78.5038 16.717 77.9035 16.717C76.987 16.717 76.2526 16.4293 75.7003 15.8538C75.152 15.2746 74.8778 14.5041 74.8778 13.5425V13.4743ZM76.3366 13.5936C76.3366 14.2259 76.4747 14.7218 76.7509 15.0815C77.027 15.4374 77.4112 15.6153 77.9035 15.6153C78.3958 15.6153 78.778 15.4336 79.0502 15.0701C79.3263 14.7067 79.4644 14.1747 79.4644 13.4743C79.4644 12.8534 79.3223 12.3613 79.0381 11.9978C78.758 11.6343 78.3758 11.4526 77.8915 11.4526C77.4152 11.4526 77.037 11.6324 76.7569 11.9921C76.4767 12.348 76.3366 12.8818 76.3366 13.5936Z" fill="white"/>
<path d="M85.3237 16.6034V10.4588H87.9592C88.8477 10.4588 89.5241 10.6064 89.9883 10.9018C90.4526 11.1933 90.6847 11.6135 90.6847 12.1625C90.6847 12.4464 90.5907 12.702 90.4026 12.9292C90.2184 13.1525 89.9443 13.3248 89.5801 13.4459C90.0043 13.5292 90.3405 13.6977 90.5887 13.9514C90.8368 14.205 90.9609 14.5041 90.9609 14.8486C90.9609 15.4203 90.7367 15.8557 90.2885 16.1548C89.8442 16.4539 89.2039 16.6034 88.3674 16.6034H85.3237ZM86.7825 13.9854V15.5131H88.3794C89.1278 15.5131 89.502 15.2594 89.502 14.7521C89.502 14.241 89.1218 13.9854 88.3614 13.9854H86.7825ZM86.7825 12.9973H87.9832C88.8117 12.9973 89.2259 12.7664 89.2259 12.3045C89.2259 11.8199 88.8337 11.57 88.0492 11.5548H86.7825V12.9973Z" fill="white"/>
</svg>
