<svg width="159" height="50" viewBox="0 0 159 50" fill="none" xmlns="http://www.w3.org/2000/svg">
<path d="M154.013 50H5.98694C3.27313 50 1.05273 47.75 1.05273 45V5C1.05273 2.25 3.27313 0 5.98694 0H154.013C156.727 0 158.947 2.25 158.947 5V45C158.947 47.75 156.727 50 154.013 50Z" fill="black"/>
<path fill-rule="evenodd" clip-rule="evenodd" d="M5.12464 49H153.151C155.31 49 157.092 47.2036 157.092 45V5C157.092 2.79636 155.31 1 153.151 1H5.12464C2.96513 1 1.18348 2.79636 1.18348 5V45C1.18348 47.2036 2.96513 49 5.12464 49ZM5.12464 50H153.151C155.865 50 158.085 47.75 158.085 45V5C158.085 2.25 155.865 0 153.151 0H5.12464C2.41082 0 0.19043 2.25 0.19043 5V45C0.19043 47.75 2.41082 50 5.12464 50Z" fill="black"/>
<path fill-rule="evenodd" clip-rule="evenodd" d="M12.2046 24.9375V11.729C12.2046 10.9742 12.7923 10.3452 13.3801 10.3452C13.9679 10.3452 14.203 10.471 14.5556 10.7226L37.243 24.0569C37.7132 24.3085 37.9483 24.6859 37.9483 25.0633C37.9483 25.4407 37.7132 25.8181 37.243 26.0697L14.5556 39.2782C14.3205 39.404 13.9679 39.6556 13.3801 39.6556C12.7923 39.6556 12.2046 39.0266 12.2046 38.2718V24.9375Z" fill="url(#paint0_linear)"/>
<path fill-rule="evenodd" clip-rule="evenodd" d="M26.5475 24.1383L12.2046 10.3452C12.3272 10.3452 12.3272 10.3452 12.4498 10.3452C13.0627 10.3452 13.3079 10.4631 13.6757 10.6989L31.0833 19.7764L26.5475 24.1383Z" fill="url(#paint1_linear)"/>
<path fill-rule="evenodd" clip-rule="evenodd" d="M31.5941 29.3104L27.6504 25L31.7037 20.6897L37.2906 24.0422C37.7288 24.2816 37.9479 24.6408 37.9479 25C37.9479 25.3592 37.7288 25.7184 37.2906 25.9579L31.5941 29.3104Z" fill="url(#paint2_linear)"/>
<path fill-rule="evenodd" clip-rule="evenodd" d="M12.2046 39.6549L26.612 24.1377L31.0833 28.9534L13.5708 39.3874C13.1982 39.5212 12.9498 39.6549 12.2046 39.6549C12.3288 39.6549 12.3288 39.6549 12.2046 39.6549Z" fill="url(#paint3_linear)"/>
<path fill-rule="evenodd" clip-rule="evenodd" d="M87.4033 41.765C86.7769 41.2782 86.2758 40.4262 86.0253 39.9394L88.0298 39.0875C88.155 39.3309 88.4056 39.696 88.6562 40.0611C89.1573 40.5479 89.9089 41.0347 90.6606 41.0347C91.4123 41.0347 92.2893 40.6696 92.7904 40.0611C93.1662 39.4526 93.4168 38.8441 93.4168 37.9922V37.2619C91.9134 39.0875 88.7814 38.8441 87.0275 36.8968C85.1483 34.9496 85.1483 31.6636 87.0275 29.7163C88.9067 27.8907 91.6629 27.6473 93.2915 29.3512V28.4993H95.4213V37.7487C95.4213 40.0611 94.5443 41.3999 93.4168 42.2518C92.6651 42.8603 91.5376 43.1037 90.5354 43.1037C89.4078 42.8603 88.2803 42.4952 87.4033 41.765ZM139.896 42.2518L142.025 37.3836L138.267 28.9861H140.397L143.028 34.9496L145.659 28.9861H147.788L142.025 42.2518H139.896ZM129.748 37.627C129.122 37.0185 128.871 36.1666 128.871 35.3147C128.871 34.5844 129.122 33.8542 129.623 33.3674C130.5 32.5155 131.753 32.1504 133.131 32.1504C134.008 32.1504 134.759 32.2721 135.386 32.6372C135.386 31.1767 134.133 30.5682 133.131 30.5682C132.254 30.5682 131.377 31.055 131.001 31.907L129.122 31.1767C129.497 30.3248 130.5 28.7427 133.005 28.7427C134.258 28.7427 135.511 29.1078 136.263 29.9597C137.014 30.8116 137.265 31.7853 137.265 33.124V38.2356H135.135V37.3836C134.884 37.7487 134.383 37.9922 134.008 38.2356C133.506 38.479 132.88 38.6007 132.254 38.6007C131.502 38.479 130.374 38.2356 129.748 37.627ZM62.9737 33.2457C62.9737 30.8116 64.8529 28.1341 68.2355 28.1341C71.4928 28.1341 73.4973 30.8116 73.4973 33.2457C73.4973 35.6798 71.6181 38.3573 68.2355 38.3573C64.8529 38.3573 62.9737 35.6798 62.9737 33.2457ZM74.2489 33.2457C74.2489 30.8116 76.1281 28.1341 79.5107 28.1341C82.768 28.1341 84.7725 30.8116 84.7725 33.2457C84.7725 35.6798 82.8933 38.3573 79.5107 38.3573C76.2534 38.3573 74.2489 35.6798 74.2489 33.2457ZM48.8171 35.9232C45.6851 32.8806 45.8104 27.8907 48.9424 24.7264C50.571 23.1443 52.5755 22.4141 54.7052 22.4141C56.7097 22.4141 58.7142 23.1443 60.2176 24.6047L58.7142 26.1869C56.4592 23.9962 52.826 24.1179 50.6963 26.3086C48.4412 28.621 48.4412 32.1504 50.6963 34.4627C52.9513 36.7751 56.7097 36.8968 58.9648 34.5844C59.7165 33.8542 59.967 32.8806 60.0923 31.907H54.7052V29.7163H62.0968C62.2221 30.2031 62.2221 30.8116 62.2221 31.4201C62.2221 33.2457 61.4704 35.0713 60.2176 36.2883C58.8395 37.627 56.835 38.3573 54.8305 38.3573C52.7008 38.2356 50.4457 37.5053 48.8171 35.9232ZM101.811 36.7751C99.9314 34.8279 99.9314 31.5419 101.811 29.4729C103.69 27.5256 106.822 27.5256 108.576 29.4729C109.202 30.0814 109.578 30.9333 109.954 31.7853L103.063 34.5844C103.439 35.4364 104.316 36.1666 105.569 36.1666C106.696 36.1666 107.448 35.8015 108.2 34.7062L110.079 35.9232C109.828 36.1666 109.578 36.41 109.453 36.6534C107.323 38.7224 103.69 38.7224 101.811 36.7751ZM114.84 38.2356V24.7264H119.35C121.981 24.7264 124.11 26.552 124.11 28.7427C124.11 30.9333 122.231 32.7589 119.851 32.7589H117.095V38.2356H114.84ZM125.363 38.2356V24.7264H127.493V38.2356H125.363ZM97.0499 37.9922V22.9009H99.305V37.9922H97.0499ZM135.26 34.2193C134.759 33.8542 134.008 33.7325 133.256 33.7325C131.752 33.7325 130.876 34.4627 130.876 35.3147C130.876 36.1666 131.752 36.6534 132.629 36.6534C133.882 36.6534 135.26 35.6798 135.26 34.2193ZM71.1169 33.2457C71.1169 31.7853 70.1147 30.2031 68.2355 30.2031C66.3563 30.2031 65.3541 31.7853 65.3541 33.2457C65.3541 34.7062 66.3563 36.2883 68.2355 36.2883C69.9894 36.2883 71.1169 34.7062 71.1169 33.2457ZM82.3921 33.2457C82.3921 31.7853 81.3899 30.2031 79.5107 30.2031C77.6315 30.2031 76.6293 31.7853 76.6293 33.2457C76.6293 34.7062 77.6315 36.2883 79.5107 36.2883C81.3899 36.2883 82.3921 34.7062 82.3921 33.2457ZM93.5421 34.0976C93.5421 33.9759 93.5421 33.8542 93.6674 33.7325C93.6674 33.6108 93.6674 33.3674 93.6674 33.2457C93.6674 33.124 93.6674 32.8806 93.6674 32.7589V32.6372C93.6674 32.5155 93.5421 32.2721 93.5421 32.1504C93.1662 30.9333 92.0387 30.0814 90.9112 30.0814C89.4078 30.0814 88.155 31.5419 88.155 33.124C88.155 34.8279 89.4078 36.1666 91.0365 36.1666C92.0387 36.2883 93.041 35.4364 93.5421 34.0976ZM102.688 33.0023L107.323 31.055C106.822 30.2031 106.07 29.9597 105.444 29.9597C103.564 30.0814 102.437 32.0287 102.688 33.0023ZM121.855 28.8644C121.855 27.6473 120.853 26.7954 119.475 26.7954H116.969V31.055H119.6C120.853 31.055 121.855 30.0814 121.855 28.8644Z" fill="white"/>
<path d="M49.4714 15.6153C49.8356 15.6153 50.1378 15.515 50.378 15.3143C50.6181 15.1137 50.7462 14.8657 50.7622 14.5704H52.1369C52.1209 14.9528 51.9949 15.3105 51.7587 15.6437C51.5226 15.9731 51.2024 16.2343 50.7982 16.4274C50.394 16.6205 49.9577 16.717 49.4895 16.717C48.5809 16.717 47.8605 16.4388 47.3282 15.8822C46.7959 15.3257 46.5298 14.5571 46.5298 13.5766V13.4346C46.5298 12.4994 46.7939 11.7517 47.3222 11.1914C47.8505 10.6273 48.5709 10.3452 49.4834 10.3452C50.2559 10.3452 50.8842 10.5591 51.3685 10.9869C51.8568 11.411 52.1129 11.9694 52.1369 12.6622H50.7622C50.7462 12.3101 50.6181 12.0205 50.378 11.7934C50.1418 11.5662 49.8397 11.4526 49.4714 11.4526C48.9992 11.4526 48.635 11.6154 48.3788 11.941C48.1227 12.2628 47.9926 12.7531 47.9886 13.4119V13.6333C47.9886 14.2997 48.1147 14.7975 48.3668 15.1269C48.623 15.4525 48.9912 15.6153 49.4714 15.6153Z" fill="white"/>
<path d="M55.5469 14.1728H54.8085V16.6034H53.3496V10.4588H54.8085V12.9121H55.4508L57.2458 10.4588H59.0468L56.6995 13.4005L59.245 16.6034H57.3479L55.5469 14.1728Z" fill="white"/>
<path d="M59.4251 13.4743C59.4251 12.8724 59.5511 12.331 59.8033 11.8501C60.0554 11.3655 60.4096 10.9945 60.8659 10.7371C61.3221 10.4758 61.8464 10.3452 62.4388 10.3452C63.3152 10.3452 64.0256 10.6121 64.57 11.146C65.1183 11.6798 65.4144 12.3878 65.4585 13.2699L65.4645 13.5936C65.4645 14.1993 65.3404 14.7407 65.0922 15.2178C64.8481 15.6948 64.4959 16.0639 64.0357 16.3252C63.5794 16.5864 63.0511 16.717 62.4508 16.717C61.5342 16.717 60.7998 16.4293 60.2475 15.8538C59.6992 15.2746 59.4251 14.5041 59.4251 13.5425V13.4743ZM60.8839 13.5936C60.8839 14.2259 61.022 14.7218 61.2981 15.0815C61.5743 15.4374 61.9585 15.6153 62.4508 15.6153C62.943 15.6153 63.3253 15.4336 63.5974 15.0701C63.8736 14.7067 64.0116 14.1747 64.0116 13.4743C64.0116 12.8534 63.8696 12.3613 63.5854 11.9978C63.3052 11.6343 62.923 11.4526 62.4388 11.4526C61.9625 11.4526 61.5843 11.6324 61.3041 11.9921C61.024 12.348 60.8839 12.8818 60.8839 13.5936Z" fill="white"/>
<path d="M72.3864 13.5936C72.3864 14.5439 72.1582 15.303 71.702 15.8709C71.2457 16.435 70.6334 16.717 69.8649 16.717C69.1525 16.717 68.5822 16.4955 68.154 16.0526V18.9659H66.6951V10.4588H68.0399L68.0999 11.0835C68.5282 10.5913 69.1105 10.3452 69.8469 10.3452C70.6394 10.3452 71.2597 10.6254 71.708 11.1857C72.1602 11.7422 72.3864 12.5165 72.3864 13.5084V13.5936ZM70.9335 13.4743C70.9335 12.861 70.8035 12.3745 70.5433 12.0148C70.2872 11.6552 69.919 11.4753 69.4387 11.4753C68.8424 11.4753 68.4141 11.7082 68.154 12.1738V14.8998C68.4181 15.3768 68.8504 15.6153 69.4507 15.6153C69.915 15.6153 70.2772 15.4393 70.5373 15.0872C70.8015 14.7313 70.9335 14.1937 70.9335 13.4743Z" fill="white"/>
<path d="M73.3529 13.4743C73.3529 12.8724 73.479 12.331 73.7311 11.8501C73.9833 11.3655 74.3375 10.9945 74.7937 10.7371C75.25 10.4758 75.7743 10.3452 76.3666 10.3452C77.2431 10.3452 77.9535 10.6121 78.4978 11.146C79.0461 11.6798 79.3423 12.3878 79.3863 13.2699L79.3923 13.5936C79.3923 14.1993 79.2682 14.7407 79.0201 15.2178C78.776 15.6948 78.4238 16.0639 77.9635 16.3252C77.5072 16.5864 76.9789 16.717 76.3786 16.717C75.4621 16.717 74.7277 16.4293 74.1754 15.8538C73.6271 15.2746 73.3529 14.5041 73.3529 13.5425V13.4743ZM74.8117 13.5936C74.8117 14.2259 74.9498 14.7218 75.226 15.0815C75.5021 15.4374 75.8863 15.6153 76.3786 15.6153C76.8709 15.6153 77.2531 15.4336 77.5253 15.0701C77.8014 14.7067 77.9395 14.1747 77.9395 13.4743C77.9395 12.8534 77.7974 12.3613 77.5132 11.9978C77.2331 11.6343 76.8509 11.4526 76.3666 11.4526C75.8903 11.4526 75.5121 11.6324 75.232 11.9921C74.9518 12.348 74.8117 12.8818 74.8117 13.5936Z" fill="white"/>
<path d="M83.7988 16.6034V10.4588H86.4343C87.3228 10.4588 87.9992 10.6064 88.4634 10.9018C88.9277 11.1933 89.1598 11.6135 89.1598 12.1625C89.1598 12.4464 89.0658 12.702 88.8777 12.9292C88.6935 13.1525 88.4194 13.3248 88.0552 13.4459C88.4794 13.5292 88.8156 13.6977 89.0638 13.9514C89.3119 14.205 89.436 14.5041 89.436 14.8486C89.436 15.4203 89.2118 15.8557 88.7636 16.1548C88.3193 16.4539 87.679 16.6034 86.8425 16.6034H83.7988ZM85.2576 13.9854V15.5131H86.8545C87.6029 15.5131 87.9771 15.2594 87.9771 14.7521C87.9771 14.241 87.5969 13.9854 86.8365 13.9854H85.2576ZM85.2576 12.9973H86.4583C87.2868 12.9973 87.701 12.7664 87.701 12.3045C87.701 11.8199 87.3088 11.57 86.5243 11.5548H85.2576V12.9973Z" fill="white"/>
<defs>
<linearGradient id="paint0_linear" x1="19.8071" y1="8.55087" x2="27.2825" y2="37.2392" gradientUnits="userSpaceOnUse">
<stop stop-color="#006884"/>
<stop offset="1" stop-color="#8AD1D0"/>
</linearGradient>
<linearGradient id="paint1_linear" x1="10.7834" y1="12.5189" x2="29.1479" y2="22.8426" gradientUnits="userSpaceOnUse">
<stop stop-color="#24BBB6"/>
<stop offset="1" stop-color="#DBE692"/>
</linearGradient>
<linearGradient id="paint2_linear" x1="32.793" y1="29.8134" x2="32.793" y2="20.2966" gradientUnits="userSpaceOnUse">
<stop stop-color="#FCC072"/>
<stop offset="1" stop-color="#F58A5B"/>
</linearGradient>
<linearGradient id="paint3_linear" x1="14.3094" y1="42.4229" x2="30.4076" y2="27.2112" gradientUnits="userSpaceOnUse">
<stop stop-color="#712B8F"/>
<stop offset="1" stop-color="#EA1D27"/>
</linearGradient>
</defs>
</svg>
