<svg fill="none" height="104" viewBox="0 0 104 104" width="104" xmlns="http://www.w3.org/2000/svg" xmlns:xlink="http://www.w3.org/1999/xlink"><clipPath id="a"><path d="m24.4707 18.353h61.1765v61.1765h-61.1765z"/></clipPath><circle cx="52" cy="52" fill="#e4dcd3" r="52"/><g clip-path="url(#a)" fill="#66645f"><path d="m68.6057 79.5296h-11.3687v-7.4427h-7.1373v7.4427h-11.3677v-9.3631c-4.1833-2.1478-7.3219-5.8754-8.7355-10.3644h-5.5258v-13.8192h6.8731c.9869-1.8005 2.3026-3.4413 3.8498-4.7987l-5.8304-9.8187 1.7413.1848c2.3122.2457 10.1607 1.3476 15.328 5.3065.0807-.0019.1614-.0029.2422-.0029h15.3683c9.6495 0 17.4989 7.9032 17.4989 17.6165 0 7.1718-4.3697 13.6577-10.9352 16.3346v8.7246zm-9.6187-1.7608h7.8687v-8.1847l.5766-.2119c6.1975-2.2716 10.3606-8.2592 10.3606-14.9008 0-8.742-7.0653-15.8548-15.7499-15.8548h-15.3693c-.1701 0-.3373.0048-.5055.0097l-.32.0097-.2508-.2003c-3.894-3.1094-9.6783-4.3981-12.9072-4.8992l4.7819 8.0502-.5977.4799c-1.751 1.4047-3.2127 3.2023-4.2256 5.1972l-.2441.4808h-6.184v10.2977h5.0952l.1778.6462c1.2205 4.462 4.313 8.1557 8.4847 10.1342l.5026.237v8.7101h7.8687v-7.4427h10.6373z"/><path d="m55.0806 35.3774c-4.6628 0-8.4558-3.8185-8.4558-8.5126 0-4.6942 3.793-8.5118 8.4558-8.5118 4.6609 0 8.454 3.8176 8.454 8.5118 0 4.6941-3.7931 8.5126-8.454 8.5126zm0-15.2636c-3.6979 0-6.7059 3.0291-6.7059 6.751 0 3.7227 3.008 6.7509 6.7059 6.7509 3.696 0 6.7049-3.0282 6.7049-6.7509 0-3.7219-3.0089-6.751-6.7049-6.751z"/><path d="m54.9893 23.8424h-.026l-1.4828.8059-.2229-.8833 1.8624-1.0043h.9831v8.5843h-1.1148v-7.5026z"/><path d="m61.3531 43.7442h-11.1102c-.4834 0-.8745-.3938-.8745-.8804s.3911-.8804.8745-.8804h11.1102c.4824 0 .8745.3938.8745.8804s-.3921.8804-.8745.8804z"/><path d="m84.7726 55.7434h-5.6459c-.4824 0-.8745-.3947-.8745-.8813 0-.4867.3921-.8804.8745-.8804h5.6459c.4843 0 .8745.3937.8745.8804 0 .4866-.3911.8813-.8745.8813z"/></g></svg>