<svg fill="none" height="48" viewBox="0 0 48 48" width="48" xmlns="http://www.w3.org/2000/svg"><circle cx="24" cy="24" r="23" stroke="#002c5f" stroke-width="2"/><path d="m19.2247 23.48c2.328 0 4.032-1.728 4.032-4.032 0-2.28-1.704-4.008-4.032-4.008s-4.056 1.728-4.056 4.008c0 2.304 1.728 4.032 4.056 4.032zm0-1.656c-1.392 0-2.328-1.056-2.328-2.376 0-1.296.936-2.352 2.328-2.352 1.368 0 2.304 1.056 2.304 2.352 0 1.32-.936 2.376-2.304 2.376zm-.384 10.176h1.848l8.448-16.32h-1.824zm9.96.264c2.328 0 4.032-1.728 4.032-4.032 0-2.28-1.704-4.008-4.032-4.008s-4.056 1.728-4.056 4.008c0 2.304 1.728 4.032 4.056 4.032zm0-1.656c-1.392 0-2.328-1.056-2.328-2.376 0-1.296.936-2.352 2.328-2.352 1.368 0 2.304 1.056 2.304 2.352 0 1.32-.936 2.376-2.304 2.376z" fill="#002c5f"/></svg>